<?xml version="1.0" encoding="utf-8"?>
<!-- Generator: Adobe Illustrator 22.0.0, SVG Export Plug-In . SVG Version: 6.00 Build 0)  -->
<svg version="1.1" id="Layer_1" xmlns="http://www.w3.org/2000/svg" xmlns:xlink="http://www.w3.org/1999/xlink" x="0px" y="0px"
	 viewBox="0 0 725 725" style="enable-background:new 0 0 725 725;" xml:space="preserve">
<style type="text/css">
	.st0{fill:#2C4369;}
	.st1{fill:#1C2F52;}
	.st2{fill:#0A1939;}
	.st3{fill:#0F1F40;}
	.st4{fill:#1D3154;}
	.st5{fill:#162849;}
	.st6{fill:#3F5A84;}
	.st7{fill:#324A71;}
	.st8{fill:#39537C;}
	.st9{fill:#46638F;}
	.st10{fill:#51719E;}
	.st11{fill:#86B2EA;}
	.st12{fill:#81ABE2;}
	.st13{fill:#78A0D6;}
	.st14{fill:#769ED3;}
	.st15{fill:#7096CA;}
	.st16{fill:#6589BB;}
	.st17{fill:#52719F;}
	.st18{fill:#4A6894;}
	.st19{fill:#3D5882;}
	.st20{fill:#2E466D;}
	.st21{fill:#1F3356;}
	.st22{fill:#16284A;}
	.st23{fill:#486591;}
	.st24{fill:#4F6E9B;}
	.st25{fill:#89B5ED;}
	.st26{fill:#85B0E8;}
	.st27{fill:#82ADE4;}
	.st28{fill:#7DA6DC;}
	.st29{fill:#749BD0;}
	.st30{fill:#7097CB;}
	.st31{fill:#6184B5;}
	.st32{fill:#6386B8;}
	.st33{fill:#102142;}
	.st34{fill:#0A1A39;}
	.st35{fill:#081736;}
	.st36{fill:#0E1F3F;}
	.st37{fill:#21365A;}
	.st38{fill:#5676A5;}
	.st39{fill:#87B3EC;}
	.st40{fill:#6C92C5;}
	.st41{fill:#5373A1;}
	.st42{fill:#435F8A;}
	.st43{fill:#425E89;}
	.st44{fill:#30476E;}
	.st45{fill:#142547;}
	.st46{fill:#0B1A3A;}
	.st47{fill:#5D7FAF;}
	.st48{fill:#769DD3;}
	.st49{fill:#7EA8DF;}
	.st50{fill:#091837;}
	.st51{fill:#2F466D;}
	.st52{fill:#263C61;}
	.st53{fill:#1D3053;}
	.st54{fill:#4B6995;}
	.st55{fill:#364F77;}
	.st56{fill:#2A4166;}
	.st57{fill:#5B7DAD;}
	.st58{fill:#88B4ED;}
	.st59{fill:#6F96CA;}
	.st60{fill:#7BA4DB;}
	.st61{fill:#415D88;}
	.st62{fill:#3C5781;}
	.st63{fill:#3A547D;}
	.st64{fill:#4D6B98;}
	.st65{fill:#44608B;}
	.st66{fill:#3E5983;}
	.st67{fill:#365078;}
	.st68{fill:#405B85;}
	.st69{fill:#30486F;}
	.st70{fill:#122445;}
	.st71{fill:#83AEE6;}
	.st72{fill:#496793;}
	.st73{fill:#6A8FC1;}
	.st74{fill:#273C62;}
	.st75{fill:#7FA8DF;}
	.st76{fill:#7CA5DB;}
	.st77{fill:#5F82B2;}
	.st78{fill:#5778A7;}
	.st79{fill:#203458;}
	.st80{fill:#102141;}
	.st81{fill:#091938;}
	.st82{fill:#5E80B0;}
	.st83{fill:#6E94C7;}
	.st84{fill:#749BCF;}
	.st85{fill:#182A4C;}
	.st86{fill:#0B1B3B;}
	.st87{fill:none;stroke:#FFFFFF;stroke-width:5;}
	.st88{fill:none;stroke:#FFFAFA;stroke-width:2;stroke-linecap:square;}
	.st89{fill:none;stroke:#FFFFFF;stroke-width:2;stroke-linecap:square;}
</style>
<title>logo</title>
<desc>Created with Sketch.</desc>
<g id="Page-1">
	<g id="OLD" transform="translate(-41.000000, -78.000000)">
		<g id="Group-2">
		</g>
	</g>
	<g id="TempLogo" transform="translate(-42.000000, -24.000000)">
		<g id="Group-3" transform="translate(47.000000, 28.000000)">
			<polygon id="Line" class="st0" points="416.4,365.7 437.8,462.1 500.6,404.2 			"/>
			<polygon id="Line_1_" class="st1" points="438.5,462.5 415.9,527.7 415.9,364.9 			"/>
			<polygon id="Line_2_" class="st2" points="437.9,462.4 416.3,527.8 500.8,527.8 			"/>
			<polygon id="Line_3_" class="st3" points="438,462.2 478.5,464.8 500.4,527.3 			"/>
			<polygon id="Line_4_" class="st4" points="500.1,404.6 478.5,464.9 438.1,462.2 			"/>
			<polygon id="Line_5_" class="st5" points="478.5,464.5 501.1,527.5 501.1,404 			"/>
			<polygon id="Line_6_" class="st6" points="501.9,327.2 500.6,403.6 546.8,387.7 			"/>
			<polygon id="Line_7_" class="st7" points="547,387.5 500.6,403.8 621,403.8 			"/>
			<polygon id="Line_8_" class="st8" points="570,359.8 546.5,387.6 621.9,403.4 			"/>
			<polygon id="Line_9_" class="st9" points="501,327.1 547.6,387.2 569.6,359.5 			"/>
			<polygon id="Line_10_" class="st10" points="500.3,326.5 556.5,326.5 569.6,359.6 			"/>
			<polygon id="Line_11_" class="st10" points="621.7,326.5 569.5,359.5 556.4,326.5 			"/>
			<polygon id="Line_12_" class="st11" points="622.6,190 686.4,245.1 714.6,190 			"/>
			<polygon id="Line_13_" class="st12" points="686.5,244.5 646.7,250.6 622.3,190.8 			"/>
			<polygon id="Line_14_" class="st13" points="714.5,190.5 686,245.6 715.1,315 			"/>
			<polygon id="Line_15_" class="st14" points="646.4,250.9 621.5,326.5 621.5,190.3 			"/>
			<polygon id="Line_16_" class="st15" points="685.5,244.5 646.5,250.5 622.3,326.1 			"/>
			<polygon id="Line_17_" class="st16" points="715.2,315.4 686.4,244.9 621.9,326.9 			"/>
			<polygon id="Line_18_" class="st17" points="714.8,315.5 621.7,327.5 694.7,362.5 			"/>
			<polygon id="Line_19_" class="st18" points="621.5,327.5 570.5,359.3 694.6,362.7 			"/>
			<polygon id="Line_20_" class="st19" points="569.2,359.1 693.5,362.5 622.5,404.6 			"/>
			<polygon id="Line_21_" class="st19" points="714.5,316.5 694.3,362.9 715.3,449.5 			"/>
			<polygon id="Line_22_" class="st20" points="694.5,362.5 715,450.4 623.2,404 			"/>
			<polygon id="Line_23_" class="st21" points="621.8,403.5 649.9,462.5 714.3,449.7 			"/>
			<polygon id="Line_24_" class="st22" points="650.2,461.4 621.9,527.8 621.9,404.8 			"/>
			<polygon id="Line_25_" class="st23" points="445.5,296.7 500.4,403.7 416,365.4 			"/>
			<polygon id="Line_26_" class="st24" points="446,297.1 500.7,326.7 500.7,403.4 			"/>
			<polygon id="Line_27_" class="st25" points="416.3,190.2 448,204.8 500,190.2 			"/>
			<polygon id="Line_28_" class="st26" points="447.9,204.9 416,190.2 416,246 			"/>
			<polygon id="Line_29_" class="st27" points="447.9,204.7 499.9,190.7 468.1,273.5 			"/>
			<polygon id="Line_30_" class="st28" points="448,205.1 416.3,245.9 468.1,273.6 			"/>
			<polygon id="Line_31_" class="st29" points="468.3,273 500.5,190.5 500.9,325.7 			"/>
			<polygon id="Line_32_" class="st30" points="416.4,246.3 445.8,296.7 467.6,273.4 			"/>
			<polygon id="Line_33_" class="st31" points="445.5,297.1 415.8,366.3 415.8,246.4 			"/>
			<polygon id="Line_34_" class="st32" points="445.5,296.5 468.5,273.5 500.9,327.1 			"/>
			<polygon id="Line_35_" class="st33" points="650.5,461.5 715.2,449.9 715.2,527.9 			"/>
			<polygon id="Line_36_" class="st34" points="622.1,527.5 714.8,527.5 650.2,462 			"/>
			<polygon id="Line_37_" class="st35" points="249.5,527.5 208.7,500.5 169.7,527.9 			"/>
			<polygon id="Line_38_" class="st36" points="193.5,440.5 208.5,500.5 169.4,527.7 			"/>
			<polygon id="Line_39_" class="st37" points="222.5,392.5 193.5,441.5 240.1,470.2 			"/>
			<polygon id="Line-Copy" class="st38" points="153.9,350.5 172.5,286.5 208.5,352.5 			"/>
			<polygon id="Line_40_" class="st39" points="161.8,189.5 141.9,228.4 167.3,206.9 			"/>
			<polygon id="Line_41_" class="st40" points="172.3,287.3 208.3,351.5 167.1,206.7 			"/>
			<polygon id="Line_42_" class="st41" points="308.8,333.6 357.6,303.7 373.1,366.5 			"/>
			<polygon id="Line_43_" class="st42" points="348,400.2 373.2,367.1 308.8,333.7 			"/>
			<polygon id="Line_44_" class="st43" points="347.5,400.5 292.2,363.2 308.7,333.8 			"/>
			<polygon id="Line_45_" class="st44" points="347.8,400.5 352.2,448.8 293.2,364.3 			"/>
			<polygon id="Line_46_" class="st45" points="239.5,470.5 208.5,500.1 193.8,441.2 			"/>
			<polygon id="Line_47_" class="st46" points="47.5,488.5 97.7,458.6 77.8,528 			"/>
			<polygon id="Line_48_" class="st41" points="80.5,309.5 91.5,346.5 154.9,350.3 			"/>
			<polygon id="Line_49_" class="st47" points="172.2,287.2 154.3,351.5 80.5,309.5 			"/>
			<polygon id="Line_50_" class="st48" points="142.5,227.5 128.5,271.5 172.3,286.7 			"/>
			<polygon id="Line_51_" class="st49" points="142.5,227.2 167.6,207.2 172.3,286.5 			"/>
			<polygon id="Line_52_" class="st22" points="33.5,394.5 47.6,488.9 0.5,526.6 			"/>
			<polygon id="Line_53_" class="st50" points="0.2,528.3 47.5,488.5 77.2,528.3 			"/>
			<polygon id="Line_54_" class="st51" points="102.5,397.5 125,364.8 98.1,459.5 			"/>
			<polygon id="Line_55_" class="st52" points="47.5,488.5 102.5,397.5 34.3,395.1 			"/>
			<polygon id="Line_56_" class="st53" points="47.5,488.5 102.1,398.9 97.9,458.9 			"/>
			<polygon id="Line_57_" class="st54" points="79.5,309.5 91.5,346.7 33.8,394.6 			"/>
			<polygon id="Line_58_" class="st55" points="153.5,350.5 125.1,363.8 153.1,467.7 			"/>
			<polygon id="Line_59_" class="st56" points="193.5,440.5 152.7,466.5 154.2,349.8 			"/>
			<polygon id="Line_60_" class="st57" points="70.5,245.5 79.5,309.5 33.5,394.2 			"/>
			<polygon id="Line_61_" class="st58" points="84.3,189.1 142.5,227.5 161.9,189.1 			"/>
			<polygon id="Line_62_" class="st59" points="71.5,245.5 127.5,271.5 79.4,309.5 			"/>
			<polygon id="Line_63_" class="st60" points="142.5,227.5 128.5,271.5 71,245.5 			"/>
			<polygon id="Line_64_" class="st61" points="91.5,346.5 102.2,397.6 124.9,363.8 			"/>
			<polygon id="Line_65_" class="st62" points="91.5,347.5 102.5,397.4 34.8,395 			"/>
			<polygon id="Line_66_" class="st55" points="198.5,384.5 193.5,440.5 154.4,350.3 			"/>
			<polygon id="Line_67_" class="st63" points="246.5,372.5 280.5,409.4 292.4,363.3 			"/>
			<polygon id="Line_68_" class="st64" points="275.5,301.5 291.9,363.3 246.5,372.2 			"/>
			<polygon id="Line_69_" class="st65" points="208.5,352.5 198.3,384.6 154.1,350.6 			"/>
			<polygon id="Line_70_" class="st66" points="198.5,384.5 222.2,392.8 208.7,352.5 			"/>
			<polygon id="Line_71_" class="st67" points="245.5,372.5 222.5,392.5 280.2,409.7 			"/>
			<polygon id="Line_72_" class="st68" points="208.5,352.5 245.5,372.5 222.2,392.3 			"/>
			<polygon id="Line_73_" class="st69" points="198.5,384.5 222.5,392.5 194,440.4 			"/>
			<polygon id="Line_74_" class="st70" points="152.8,467.1 192.5,441.5 169.6,527.5 			"/>
			<polygon id="Line_75_" class="st71" points="83.9,189.2 69.8,245.5 142.6,227.4 			"/>
			<polygon id="Line_76_" class="st72" points="91.5,346.5 125.2,363.9 153.3,350.7 			"/>
			<polygon id="Line_77_" class="st73" points="128.5,271.5 172.5,286.5 79.9,309 			"/>
			<polygon id="Line_78_" class="st74" points="222.7,392.4 280.5,409.6 239.6,470.8 			"/>
			<polygon id="Line_79_" class="st75" points="273.5,260.5 231.7,259.7 249.4,189 			"/>
			<polygon id="Line_80_" class="st12" points="303.5,235.7 273.5,260.1 249.8,189.6 			"/>
			<polygon id="Line_81_" class="st39" points="329.1,189.5 303.5,235.5 249.7,188.8 			"/>
			<polygon id="Line_82_" class="st76" points="303.6,235.4 357.2,302.8 328.9,189 			"/>
			<polygon id="Line_83_" class="st77" points="232,260.8 275.5,301.5 246.5,371.3 			"/>
			<polygon id="Line_84_" class="st78" points="231.7,261.5 246.5,372.5 208.4,352.5 			"/>
			<polygon id="Line_85_" class="st41" points="308.5,333.6 276.5,302.5 292.5,362.9 			"/>
			<polygon id="Line_86_" class="st30" points="274.5,260.5 232.5,260.5 275.7,301.8 			"/>
			<polygon id="Line_87_" class="st4" points="292.8,364.7 351.5,448.5 339.5,527.6 			"/>
			<polygon id="Line_88_" class="st0" points="347.7,400.3 373.5,367.1 399.3,471.8 			"/>
			<polygon id="Line_89_" class="st79" points="348.1,401.3 351.5,448.5 398.9,472.2 			"/>
			<polygon id="Line_90_" class="st80" points="339.7,527.9 398.9,472.6 351.5,448.2 			"/>
			<polygon id="Line_91_" class="st81" points="399.2,472.7 339.8,527.9 413.2,527.9 			"/>
			<polygon id="Line_92_" class="st82" points="356.5,303.5 275.5,301.5 309.1,333.5 			"/>
			<polygon id="Line_93_" class="st83" points="275.5,301.5 357,303.4 303.4,235.8 			"/>
			<polygon id="Line_94_" class="st84" points="303.5,235.5 273.5,260.5 275.5,300.3 			"/>
			<polygon id="Line_95_" class="st85" points="239.5,471.3 280.4,410.1 249.4,528 			"/>
			<polygon id="Line_96_" class="st86" points="239.7,470.6 249,527.2 208.7,500.3 			"/>
		</g>
		<polygon id="_x35_" class="st87" points="47,556.1 131,217 209,217 255.4,376.1 296.5,217 376.2,217 460.3,556.1 386.3,556.1 
			339.2,396.2 296.5,556.1 216.6,556.1 172.1,396.2 124.8,556.1 		"/>
		<polygon id="_x35__1_" class="st87" points="462.7,217.7 548,217.7 548,354.4 668.6,354.4 668.6,217.7 762.1,217.7 762.1,555.8 
			668.6,555.8 668.6,432 548,432 548,555.8 462.7,555.8 		"/>
		<g id="Lines-Copy" transform="translate(47.000000, 29.000000)">
			<path id="Line_97_" class="st88" d="M650.3,460.6l-28.4-56.7"/>
			<path id="Line_98_" class="st89" d="M650.5,460.5l-28.7,66"/>
			<path id="Line_99_" class="st89" d="M650.6,461l64.1,65.3"/>
			<path id="Line_100_" class="st89" d="M622,402.9l72.2-41.2"/>
			<path id="Line_101_" class="st89" d="M569.5,358.5l-67.9-32.4"/>
			<path id="Line_102_" class="st89" d="M569.5,358.5l-13.2-32.8"/>
			<path id="Line_103_" class="st88" d="M500.6,402.5l45.9-16"/>
			<path id="Line_104_" class="st89" d="M501.3,326l45.5,60.2"/>
			<path id="Line_105_" class="st89" d="M569.5,358.5L547,386.2"/>
			<path id="Line_106_" class="st89" d="M416.3,245.1l51.7,27.4"/>
			<path id="Line_107_" class="st89" d="M347.5,399.5l-54.9-37"/>
			<path id="Line_108_" class="st89" d="M347.8,399.2l25.3-33.2"/>
			<path id="Line_109_" class="st89" d="M308.5,332.5l64.3,33"/>
			<path id="Line_110_" class="st89" d="M347.7,399.6l51,71.2"/>
			<path id="Line_111_" class="st89" d="M347.6,399.9l4.3,47.7"/>
			<path id="Line_112_" class="st89" d="M351.5,447.5l-58.6-84.4"/>
			<path id="Line_113_" class="st89" d="M351.5,447.5l-11.8,79"/>
			<path id="Line_114_" class="st89" d="M352,447.7l47.1,23.8"/>
			<path id="Line_115_" class="st89" d="M398.9,471.7l-59.2,55.1"/>
			<path id="Line_116_" class="st89" d="M291.9,362.2l-16.4-62.7"/>
			<path id="Line_117_" class="st89" d="M246.5,370.5l29-71"/>
			<path id="Line_118_" class="st89" d="M231.8,259.4l43.7,41.1"/>
			<path id="Line_119_" class="st89" d="M275.5,300.5l28-66"/>
			<path id="Line_120_" class="st89" d="M303.5,234.5l-30,25"/>
			<path id="Line_121_" class="st89" d="M273.5,260.5l2,39"/>
			<path id="Line_122_" class="st89" d="M231.9,259l41.6,0.5"/>
			<path id="Line_123_" class="st89" d="M303.5,234.5l53.5,67.6"/>
			<path id="Line_124_" class="st89" d="M357.3,302.5l-80.8-2"/>
			<path id="Line_125_" class="st89" d="M303.5,234.5l-53.4-46"/>
			<path id="Line_126_" class="st89" d="M249.6,188.5l23.9,71"/>
			<path id="Line_127_" class="st89" d="M303.5,234.5l25.2-45.9"/>
			<path id="Line_128_" class="st89" d="M308.5,332.5l49-29.9"/>
			<path id="Line_129_" class="st89" d="M275.5,300.5l33,32"/>
			<path id="Line_130_" class="st89" d="M292.4,362.1l16.1-29.6"/>
			<path id="Line_131_" class="st89" d="M308.5,332.5l39.2,66.8"/>
			<path id="Line_132_" class="st89" d="M246.1,371.3l45.9-8.7"/>
			<path id="Line_133_" class="st89" d="M102.5,396.5l22.3-33.2"/>
			<path id="Line_134_" class="st88" d="M102.5,396.5l-4.9,61.8"/>
			<path id="Line_135_" class="st89" d="M239.9,469.6l40.3-60.6"/>
			<path id="Line_136_" class="st89" d="M222.5,391.5l57.6,17.3"/>
			<path id="Line_137_" class="st89" d="M246,371.5l34.3,36.8"/>
			<path id="Line_138_" class="st89" d="M246.1,371.4l-14.5-112.2"/>
			<path id="Line_139_" class="st89" d="M33.4,394.3l58.1-48.8"/>
			<path id="Line_140_" class="st89" d="M91.4,345.2L79.8,309"/>
			<path id="Line_141_" class="st89" d="M91.5,345.5l62.4,4"/>
			<path id="Line_142_" class="st89" d="M91.5,345.5l33.7,17.2"/>
			<path id="Line_143_" class="st89" d="M91.5,345.5l11,51"/>
			<path id="Line_144_" class="st88" d="M33.2,394.4l69.3,2.1"/>
			<path id="Line_145_" class="st88" d="M102.5,396.5l-55,91"/>
			<path id="Line_146_" class="st89" d="M47.5,487.5l49.8-29.1"/>
			<path id="Line_147_" class="st88" d="M47.5,487.5l-14.1-93.3"/>
			<path id="Line_148_" class="st88" d="M0.5,526.4l47-38.9"/>
			<path id="Line_149_" class="st88" d="M47.5,487.5l29.9,39.2"/>
			<path id="Line_150_" class="st89" d="M79.5,308.5l-46.3,85.9"/>
			<path id="Line_151_" class="st89" d="M70.9,245l8.6,63.5"/>
			<path id="Line_152_" class="st89" d="M84.4,188.4l58.1,38.1"/>
			<path id="Line_153_" class="st89" d="M71,244.4l71.5-17.9"/>
			<path id="Line_154_" class="st89" d="M128.5,270.5L71,244.6"/>
			<path id="Line_155_" class="st89" d="M79.5,308.5l49-38"/>
			<path id="Line_156_" class="st89" d="M128.5,270.6l43.8,15.2"/>
			<path id="Line_157_" class="st89" d="M142.5,226.5l-14,44"/>
			<path id="Line_158_" class="st89" d="M172.6,286l-92.1,22.5"/>
			<path id="Line_159_" class="st89" d="M153.8,349.2l-74.1-40.7"/>
			<path id="Line_160_" class="st89" d="M161.9,188.3l-19.4,38.2"/>
			<path id="Line_161_" class="st89" d="M172.6,286.2l-29.9-59.5"/>
			<path id="Line_162_" class="st89" d="M125.7,362.5l27.8-13"/>
			<path id="Line_163_" class="st88" d="M153.8,349.5l-0.7,115.9"/>
			<polygon id="Line_164_" class="st89" points="153.9,349.5 172.5,285.5 208.5,351.5 			"/>
			<path id="Line_165_" class="st89" d="M198.3,383.4l-43.6-33.2L198.3,383.4z"/>
			<path id="Line_166_" class="st89" d="M193.5,440.2l46,29.3"/>
			<path id="Line_167_" class="st88" d="M193.3,439.3L169.8,526"/>
			<path id="Line_168_" class="st89" d="M172.5,285.5l-5.4-79.4"/>
			<path id="Line_169_" class="st89" d="M166.9,206.1l-24.4,20.4"/>
			<path id="Line_170_" class="st89" d="M501.3,325.8l-0.9,77"/>
			<path id="Line_171_" class="st89" d="M547,386.6l74.5,15.9"/>
			<path id="Line_172_" class="st89" d="M569.7,358.5l51.6,43.6"/>
			<path id="Line_173_" class="st89" d="M569.8,358.3l124.7,3.3"/>
			<path id="Line_174_" class="st89" d="M569.6,358.2l51.8-32"/>
			<path id="Line_175_" class="st89" d="M685.7,243.4L622,189.1"/>
			<path id="Line_176_" class="st89" d="M686.5,243.5l28.2-54.5"/>
			<path id="Line_177_" class="st89" d="M685.6,243.8l-38.9,5.9"/>
			<path id="Line_178_" class="st89" d="M646.5,249.5l-24.7,76.3"/>
			<path id="Line_179_" class="st89" d="M646.5,249.5L622.3,189"/>
			<path id="Line_180_" class="st89" d="M622,326l63.8-82.1"/>
			<path id="Line_181_" class="st89" d="M686.4,244.2l28.6,69.9"/>
			<path id="Line_182_" class="st89" d="M621.5,326l93-11.5"/>
			<path id="Line_183_" class="st89" d="M621.6,326.4l72.9,35.1"/>
			<path id="Line_184_" class="st89" d="M694.5,361.5l20-47"/>
			<path id="Line_185_" class="st89" d="M694.6,361.8l20.1,86.2"/>
			<path id="Line_186_" class="st89" d="M714.7,448l-92.7-44.8"/>
			<path id="Line_187_" class="st89" d="M714.7,448.8l-64.2,11.7"/>
			<path id="Line_188_" class="st89" d="M153.4,465.8l40-25.9"/>
			<path id="Line_189_" class="st89" d="M193.5,440.5l-39.1-90.6"/>
			<path id="Line_190_" class="st88" d="M193.6,440.1l28.6-48.3"/>
			<path id="Line_191_" class="st89" d="M193.8,440.5l14.7,59"/>
			<path id="Line_192_" class="st88" d="M208.6,499.3l-38.7,27.2"/>
			<path id="Line_193_" class="st88" d="M208.7,499.3l40.3,27.2"/>
			<path id="Line_194_" class="st89" d="M416.5,526.6l21.4-65.3"/>
			<path id="Line_195_" class="st89" d="M500.4,526.7L438,461.4"/>
			<path id="Line_196_" class="st89" d="M438.3,461.4l40.2,2.2"/>
			<path id="Line_197_" class="st89" d="M478.5,463.5l21.9,62.9"/>
			<path id="Line_198_" class="st89" d="M478.5,463.5l22-60.5"/>
			<path id="Line_199_" class="st89" d="M438,461.1l62.5-58.1"/>
			<path id="Line_200_" class="st89" d="M437.8,460.8l-21.5-96.2"/>
			<path id="Line_201_" class="st89" d="M416.5,364.5l83.7,38.5"/>
			<path id="Line_202_" class="st89" d="M500.6,403.2l-55.1-107.7"/>
			<path id="Line_203_" class="st89" d="M445.2,296.2l-28.8,68"/>
			<path id="Line_204_" class="st89" d="M445.5,295.5l55.3,30.3"/>
			<path id="Line_205_" class="st89" d="M416.2,245.5l29.4,50"/>
			<path id="Line_206_" class="st89" d="M448.1,203.9l-32.2,41"/>
			<path id="Line_207_" class="st89" d="M416.1,189.3l31.4,14.2"/>
			<path id="Line_208_" class="st89" d="M448.5,203.5l51.9-14.3"/>
			<path id="Line_209_" class="st89" d="M448.2,204.1l19.8,68.3"/>
			<path id="Line_210_" class="st89" d="M468.1,272.5l32.4-83.3"/>
			<path id="Line_211_" class="st89" d="M468.1,272.5l32.9,53.1"/>
			<path id="Line_212_" class="st89" d="M445.5,295.8l22.5-23.3"/>
			<polygon id="Line_213_" class="st89" points="193.6,439.9 198.5,383.5 222.2,391.8 			"/>
			<path id="Line_214_" class="st88" d="M222.5,392.1l17,76.8"/>
			<path id="Line_215_" class="st88" d="M249.1,526.5l-9.6-57"/>
			<polyline id="Line_216_" class="st89" points="198.5,383.5 208.5,351.3 222.2,391.7 245.8,371.3 208.5,351.3 			"/>
			<path id="Line_217_" class="st88" d="M208.7,499.1l31-29.4"/>
		</g>
	</g>
</g>
</svg>
