<?xml version="1.0" encoding="UTF-8"?>
<svg width="725px" height="349px" viewBox="0 0 725 349" version="1.1" xmlns="http://www.w3.org/2000/svg" xmlns:xlink="http://www.w3.org/1999/xlink">
    <!-- Generator: Sketch 42 (36781) - http://www.bohemiancoding.com/sketch -->
    <title>logo</title>
    <desc>Created with Sketch.</desc>
    <defs></defs>
    <g id="Page-1" stroke="none" stroke-width="1" fill="none" fill-rule="evenodd">
        <g id="OLD" transform="translate(-41.000000, -78.000000)">
            <g id="Group-2"></g>
        </g>
        <g id="TempLogo" transform="translate(-42.000000, -24.000000)">
            <g id="Group-3" transform="translate(47.000000, 28.000000)">
                <polygon id="Line" fill="#2C4369" points="416.440088 177.672817 437.825949 274.062546 500.645654 216.163137"></polygon>
                <polygon id="Line" fill="#1C2F52" points="438.5 274.5 415.944933 339.7104 415.944933 176.943065"></polygon>
                <polygon id="Line" fill="#0A1939" points="437.916327 274.412519 416.263659 339.801259 500.752377 339.801259"></polygon>
                <polygon id="Line" fill="#0F1F40" points="437.982537 274.170586 478.456335 276.792595 500.418268 339.282548"></polygon>
                <polygon id="Line" fill="#1D3154" points="500.089928 216.597238 478.548423 276.897554 438.054297 274.19667"></polygon>
                <polygon id="Line" fill="#162849" points="478.5 276.5 501.05544 339.485866 501.05544 215.969315"></polygon>
                <polygon id="Line" fill="#3F5A84" points="501.929781 139.247037 500.556905 215.611535 546.811041 199.680626"></polygon>
                <polygon id="Line" fill="#324A71" points="546.976757 199.537098 500.595734 215.847849 621.037874 215.847849"></polygon>
                <polygon id="Line" fill="#39537C" points="570.006829 171.787472 546.510737 199.558191 621.949936 215.355597"></polygon>
                <polygon id="Line" fill="#46638F" points="501.041457 139.081672 547.640538 199.18093 569.575109 171.522102"></polygon>
                <polygon id="Line" fill="#51719E" points="500.251953 138.5 556.5 138.5 569.634293 171.591391"></polygon>
                <polygon id="Line" fill="#51719E" points="621.720845 138.5 569.5 171.5 556.443362 138.5"></polygon>
                <polygon id="Line" fill="#86B2EA" points="622.593563 1.95189474 686.356498 57.0824996 714.567286 1.95189474"></polygon>
                <polygon id="Line" fill="#81ABE2" points="686.5 56.5 646.660407 62.5775209 622.342585 2.81101117"></polygon>
                <polygon id="Line" fill="#78A0D6" points="714.5 2.5 686.04462 57.6062292 715.123996 126.98879"></polygon>
                <polygon id="Line" fill="#769ED3" points="646.367921 62.868076 621.5 138.5 621.5 2.29747191"></polygon>
                <polygon id="Line" fill="#7096CA" points="685.5 56.5 646.5 62.5 622.347 138.089507"></polygon>
                <polygon id="Line" fill="#6589BB" points="715.207509 127.364817 686.353527 56.8626786 621.898547 138.887331"></polygon>
                <polygon id="Line" fill="#52719F" points="714.755984 127.478688 621.663773 139.481707 694.705735 174.46196"></polygon>
                <polygon id="Line" fill="#4A6894" points="621.5 139.5 570.535934 171.25961 694.567248 174.72407"></polygon>
                <polygon id="Line" fill="#3D5882" points="569.162202 171.147812 693.5 174.5 622.480675 216.648778"></polygon>
                <polygon id="Line" fill="#3D5882" points="714.5 128.5 694.343327 174.904573 715.260973 261.461117"></polygon>
                <polygon id="Line" fill="#2E466D" points="694.5 174.5 714.9537 262.384785 623.162598 215.984826"></polygon>
                <polygon id="Line" fill="#1F3356" points="621.834085 215.526899 649.880474 274.5424 714.270668 261.692497"></polygon>
                <polygon id="Line" fill="#16284A" points="650.173754 273.4142 621.880623 339.8073 621.880623 216.805227"></polygon>
                <polygon id="Line" fill="#486591" points="445.470314 108.707758 500.442626 215.707978 416.049116 177.364508"></polygon>
                <polygon id="Line" fill="#4F6E9B" points="445.987464 109.056213 500.730539 138.683604 500.730539 215.446658"></polygon>
                <polygon id="Line" fill="#89B5ED" points="416.277465 2.15229839 448.001439 16.759249 499.950422 2.15229839"></polygon>
                <polygon id="Line" fill="#85B0E8" points="447.882435 16.8557236 416.004794 2.23548609 416.004794 58.0243898"></polygon>
                <polygon id="Line" fill="#82ADE4" points="447.945981 16.715922 499.897072 2.73292709 468.081447 85.4971263"></polygon>
                <polygon id="Line" fill="#7DA6DC" points="447.954646 17.0839121 416.256091 57.946979 468.139216 85.5710709"></polygon>
                <polygon id="Line" fill="#749BD0" points="468.293687 85.038725 500.5 2.5 500.905267 137.682234"></polygon>
                <polygon id="Line" fill="#7097CB" points="416.384563 58.2780801 445.798021 108.651822 467.642779 85.38838"></polygon>
                <polygon id="Line" fill="#6184B5" points="445.525764 109.132547 415.817553 178.299889 415.817553 58.3680957"></polygon>
                <polygon id="Line" fill="#6386B8" points="445.5 108.5 468.5 85.5 500.898871 139.110387"></polygon>
                <polygon id="Line" fill="#102142" points="650.5 273.5 715.232844 261.901361 715.232844 339.867505"></polygon>
                <polygon id="Line" fill="#0A1A39" points="622.067768 339.5 714.824098 339.5 650.197925 274.011166"></polygon>
                <polygon id="Line" fill="#081736" points="249.5 339.5 208.735318 312.475335 169.666243 339.872193"></polygon>
                <polygon id="Line" fill="#0E1F3F" points="193.5 252.5 208.5 312.5 169.409792 339.682141"></polygon>
                <polygon id="Line" fill="#21365A" points="222.5 204.5 193.5 253.5 240.145885 282.169163"></polygon>
                <polygon id="Line-Copy" fill="#5676A5" points="153.92513 162.489583 172.5 98.5 208.505283 164.478552"></polygon>
                <polygon id="Line" fill="#87B3EC" points="161.787109 1.4820849 141.860095 40.3603198 167.281035 18.940941"></polygon>
                <polygon id="Line" fill="#6C92C5" points="172.259167 99.2551947 208.266562 163.452272 167.095831 18.680077"></polygon>
                <polygon id="Line" fill="#5373A1" points="308.814949 145.600675 357.561225 115.673131 373.118018 178.5156"></polygon>
                <polygon id="Line" fill="#435F8A" points="347.994266 212.21292 373.188787 179.079165 308.765565 145.65833"></polygon>
                <polygon id="Line" fill="#425E89" points="347.5 212.5 292.166135 175.165987 308.727623 145.796479"></polygon>
                <polygon id="Line" fill="#30476E" points="347.761551 212.477697 352.155214 260.807173 293.214549 176.302929"></polygon>
                <polygon id="Line" fill="#142547" points="239.5 282.5 208.465739 312.071375 193.791096 253.217502"></polygon>
                <polygon id="Line" fill="#0B1A3A" points="47.5 300.5 97.6682593 270.626877 77.7784203 339.978608"></polygon>
                <polygon id="Line" fill="#5373A1" points="80.5 121.5 91.5 158.5 154.864751 162.344567"></polygon>
                <polygon id="Line" fill="#5D7FAF" points="172.179499 99.1603231 154.250214 163.515128 80.5038798 121.541632"></polygon>
                <polygon id="Line" fill="#769DD3" points="142.5 39.5 128.5 83.5 172.342665 98.6953391"></polygon>
                <polygon id="Line" fill="#7EA8DF" points="142.48582 39.1950089 167.602967 19.1906946 172.32196 98.5422963"></polygon>
                <polygon id="Line" fill="#16284A" points="33.5 206.5 47.5721501 300.896879 0.472911629 338.624838"></polygon>
                <polygon id="Line" fill="#091837" points="0.174265009 340.259157 47.5 300.5 77.2145184 340.259157"></polygon>
                <polygon id="Line" fill="#2F466D" points="102.5 209.5 125.021296 176.767128 98.1321258 271.504513"></polygon>
                <polygon id="Line" fill="#263C61" points="47.5 300.5 102.5 209.5 34.2785085 207.080255"></polygon>
                <polygon id="Line" fill="#1D3053" points="47.5 300.5 102.085348 210.870471 97.9098474 270.933842"></polygon>
                <polygon id="Line" fill="#4B6995" points="79.5 121.5 91.5148642 158.734617 33.8114258 206.61668"></polygon>
                <polygon id="Line" fill="#364F77" points="153.5 162.5 125.117106 175.813637 153.100032 279.743031"></polygon>
                <polygon id="Line" fill="#2A4166" points="193.5 252.5 152.701173 278.474221 154.153153 161.82684"></polygon>
                <polygon id="Line" fill="#5B7DAD" points="70.5 57.5 79.5 121.5 33.5166166 206.205384"></polygon>
                <polygon id="Line" fill="#88B4ED" points="84.3236615 1.08801571 142.5 39.5 161.919712 1.08801571"></polygon>
                <polygon id="Line" fill="#6F96CA" points="71.5 57.5 127.5 83.5 79.4254667 121.509051"></polygon>
                <polygon id="Line" fill="#7BA4DB" points="142.5 39.5 128.5 83.5 71.0423436 57.5027421"></polygon>
                <polygon id="Line" fill="#415D88" points="91.5 158.5 102.210877 209.648051 124.916854 175.821056"></polygon>
                <polygon id="Line" fill="#3C5781" points="91.5 159.5 102.540162 209.353844 34.7567864 206.972949"></polygon>
                <polygon id="Line" fill="#364F77" points="198.5 196.5 193.5 252.5 154.363285 162.303262"></polygon>
                <polygon id="Line" fill="#3A547D" points="246.5 184.5 280.494272 221.427795 292.449954 175.345903"></polygon>
                <polygon id="Line" fill="#4D6B98" points="275.5 113.5 291.906194 175.283586 246.533204 184.162543"></polygon>
                <polygon id="Line" fill="#44608B" points="208.5 164.5 198.294944 196.621307 154.056699 162.557635"></polygon>
                <polygon id="Line" fill="#3E5983" points="198.5 196.5 222.247788 204.834266 208.686642 164.520324"></polygon>
                <polygon id="Line" fill="#365078" points="245.5 184.5 222.5 204.5 280.223717 221.661022"></polygon>
                <polygon id="Line" fill="#405B85" points="208.5 164.5 245.5 184.5 222.150637 204.268969"></polygon>
                <polygon id="Line" fill="#30486F" points="198.5 196.5 222.5 204.5 194.017354 252.431623"></polygon>
                <polygon id="Line" fill="#122445" points="152.84777 279.096039 192.5 253.5 169.649185 339.450938"></polygon>
                <polygon id="Line" fill="#83AEE6" points="83.9385842 1.1842722 69.7890198 57.5285981 142.647712 39.3509508"></polygon>
                <polygon id="Line" fill="#496793" points="91.5 158.5 125.213238 175.903655 153.323215 162.666163"></polygon>
                <polygon id="Line" fill="#6A8FC1" points="128.5 83.5 172.5 98.5 79.9171747 120.962165"></polygon>
                <polygon id="Line" fill="#273C62" points="222.686969 204.447469 280.52991 221.639079 239.558149 282.750204"></polygon>
                <polygon id="Line" fill="#7FA8DF" points="273.5 72.5 231.729132 71.7394618 249.401988 0.951072422"></polygon>
                <polygon id="Line" fill="#81ABE2" points="303.495359 47.6587158 273.521772 72.0863958 249.800553 1.61471751"></polygon>
                <polygon id="Line" fill="#87B3EC" points="329.062696 1.52908588 303.5 47.5 249.748293 0.822624986"></polygon>
                <polygon id="Line" fill="#7CA5DB" points="303.562731 47.3583755 357.209055 114.761167 328.947467 1.0122232"></polygon>
                <polygon id="Line" fill="#5F82B2" points="232.042047 72.796009 275.5 113.5 246.483543 183.270755"></polygon>
                <polygon id="Line" fill="#5778A7" points="231.659221 73.4574411 246.5 184.5 208.354317 164.510119"></polygon>
                <polygon id="Line" fill="#5373A1" points="308.545655 145.56672 276.5 114.5 292.5 174.927749"></polygon>
                <polygon id="Line" fill="#7097CB" points="274.5 72.5 232.5 72.5 275.742413 113.846581"></polygon>
                <polygon id="Line" fill="#1D3154" points="292.814284 176.689433 351.5 260.5 339.48042 339.643956"></polygon>
                <polygon id="Line" fill="#2C4369" points="347.695373 212.298657 373.477589 179.06865 399.259805 283.824386"></polygon>
                <polygon id="Line" fill="#203458" points="348.099362 213.346324 351.5 260.5 398.932247 284.245533"></polygon>
                <polygon id="Line" fill="#102141" points="339.651478 339.919001 398.947325 284.555933 351.499612 260.240251"></polygon>
                <polygon id="Line" fill="#091938" points="399.242647 284.716593 339.810058 339.885725 413.223147 339.885725"></polygon>
                <polygon id="Line" fill="#5E80B0" points="356.5 115.5 275.5 113.5 309.0978 145.505036"></polygon>
                <polygon id="Line" fill="#6E94C7" points="275.533691 113.515625 357.002621 115.408179 303.400489 47.7503799"></polygon>
                <polygon id="Line" fill="#749BCF" points="303.5 47.5 273.5 72.5 275.539542 112.319765"></polygon>
                <polygon id="Line" fill="#182A4C" points="239.541204 283.304183 280.400924 222.141053 249.433082 340.001528"></polygon>
                <polygon id="Line" fill="#0B1B3B" points="239.709463 282.619349 249.03398 339.240002 208.683964 312.340475"></polygon>
            </g>
            <polygon id="5" stroke="#FFFFFF" stroke-width="5" points="47.0485305 368.114953 130.999399 29 209.024081 29 255.393354 188.105409 296.483948 29 376.243574 29 460.272662 368.114953 386.294734 368.114953 339.187733 208.248883 296.483948 368.114953 216.583093 368.114953 172.114884 208.248883 124.848333 368.114953"></polygon>
            <polygon id="5" stroke="#FFFFFF" stroke-width="5" points="462.701422 29.7455579 547.996353 29.7455579 547.996353 166.421954 668.617219 166.421954 668.617219 29.7455579 762.130168 29.7455579 762.130168 367.781086 668.617219 367.781086 668.617219 244.006602 547.996353 244.006602 547.996353 367.781086 462.701422 367.781086"></polygon>
            <g id="Lines-Copy" transform="translate(47.000000, 29.000000)" stroke-width="2" stroke-linecap="square">
                <path d="M650.297491,272.581198 L621.864736,215.87359" id="Line" stroke="#FFFAFA"></path>
                <path d="M650.5,272.5 L621.824718,338.472534" id="Line" stroke="#FFFFFF"></path>
                <path d="M650.558466,272.953143 L714.668857,338.245135" id="Line" stroke="#FFFFFF"></path>
                <path d="M622.019567,214.896795 L694.173428,173.692021" id="Line" stroke="#FFFFFF"></path>
                <path d="M569.5,170.5 L501.643646,138.07259" id="Line" stroke="#FFFFFF"></path>
                <path d="M569.5,170.5 L556.289699,137.687594" id="Line" stroke="#FFFFFF"></path>
                <path d="M500.574817,214.532566 L546.5,198.5" id="Line" stroke="#FFFAFA"></path>
                <path d="M501.297367,137.957527 L546.834879,198.179876" id="Line" stroke="#FFFFFF"></path>
                <path d="M569.5,170.5 L547.020852,198.236896" id="Line" stroke="#FFFFFF"></path>
                <path d="M416.282944,57.077181 L467.984689,84.4563139" id="Line" stroke="#FFFFFF"></path>
                <path d="M347.5,211.5 L292.586663,174.471802" id="Line" stroke="#FFFFFF"></path>
                <path d="M347.799275,211.239007 L373.133261,178.037954" id="Line" stroke="#FFFFFF"></path>
                <path d="M308.5,144.5 L372.820628,177.522011" id="Line" stroke="#FFFFFF"></path>
                <path d="M347.747613,211.641115 L398.776322,282.813571" id="Line" stroke="#FFFFFF"></path>
                <path d="M347.633759,211.899918 L351.894155,259.589041" id="Line" stroke="#FFFFFF"></path>
                <path d="M351.5,259.5 L292.933712,175.139217" id="Line" stroke="#FFFFFF"></path>
                <path d="M351.5,259.5 L339.676394,338.546202" id="Line" stroke="#FFFFFF"></path>
                <path d="M352.041418,259.663821 L399.165737,283.478732" id="Line" stroke="#FFFFFF"></path>
                <path d="M398.941856,283.72552 L339.761971,338.818058" id="Line" stroke="#FFFFFF"></path>
                <path d="M291.887084,174.224171 L275.5,111.5" id="Line" stroke="#FFFFFF"></path>
                <path d="M246.5,182.5 L275.5,111.5" id="Line" stroke="#FFFFFF"></path>
                <path d="M231.84842,71.3921623 L275.5,112.5" id="Line" stroke="#FFFFFF"></path>
                <path d="M275.5,112.5 L303.5,46.5" id="Line" stroke="#FFFFFF"></path>
                <path d="M303.5,46.5 L273.5,71.5" id="Line" stroke="#FFFFFF"></path>
                <path d="M273.5,72.5 L275.5,111.5" id="Line" stroke="#FFFFFF"></path>
                <path d="M231.902305,70.9524576 L273.5,71.5" id="Line" stroke="#FFFFFF"></path>
                <path d="M303.5,46.5 L356.999838,114.08351" id="Line" stroke="#FFFFFF"></path>
                <path d="M357.250129,114.470258 L276.5,112.5" id="Line" stroke="#FFFFFF"></path>
                <path d="M303.5,46.5 L250.110297,0.549163342" id="Line" stroke="#FFFFFF"></path>
                <path d="M249.621976,0.545092002 L273.5,71.5" id="Line" stroke="#FFFFFF"></path>
                <path d="M303.5,46.5 L328.724048,0.565688194" id="Line" stroke="#FFFFFF"></path>
                <path d="M308.5,144.5 L357.46483,114.586542" id="Line" stroke="#FFFFFF"></path>
                <path d="M275.5,112.5 L308.5,144.5" id="Line" stroke="#FFFFFF"></path>
                <path d="M292.406652,174.083999 L308.5,144.5" id="Line" stroke="#FFFFFF"></path>
                <path d="M308.5,144.5 L347.696116,211.330814" id="Line" stroke="#FFFFFF"></path>
                <path d="M246.094201,183.308368 L292.000391,174.571768" id="Line" stroke="#FFFFFF"></path>
                <path d="M102.5,208.5 L124.842365,175.283942" id="Line" stroke="#FFFFFF"></path>
                <path d="M102.5,208.5 L97.6292984,270.306439" id="Line" stroke="#FFFAFA"></path>
                <path d="M239.870334,281.610352 L280.166695,221.032981" id="Line" stroke="#FFFFFF"></path>
                <path d="M222.5,203.5 L280.136149,220.758489" id="Line" stroke="#FFFFFF"></path>
                <path d="M246.009766,183.511869 L280.289933,220.309147" id="Line" stroke="#FFFFFF"></path>
                <path d="M246.052284,183.432242 L231.508583,71.2779253" id="Line" stroke="#FFFFFF"></path>
                <path d="M33.3608394,206.33848 L91.5,157.5" id="Line" stroke="#FFFFFF"></path>
                <path d="M91.4454462,157.156767 L79.8398868,121.031022" id="Line" stroke="#FFFFFF"></path>
                <path d="M91.5,157.5 L153.908203,161.456055" id="Line" stroke="#FFFFFF"></path>
                <path d="M91.5,157.5 L125.249307,174.685081" id="Line" stroke="#FFFFFF"></path>
                <path d="M91.5,157.5 L102.5,208.5" id="Line" stroke="#FFFFFF"></path>
                <path d="M33.1569385,206.379192 L102.5,208.5" id="Line" stroke="#FFFAFA"></path>
                <path d="M102.5,208.5 L47.5,299.5" id="Line" stroke="#FFFAFA"></path>
                <path d="M47.5,299.5 L97.3072153,270.427032" id="Line" stroke="#FFFFFF"></path>
                <path d="M47.5,299.5 L33.3628921,206.18658" id="Line" stroke="#FFFAFA"></path>
                <path d="M0.53861742,338.424155 L47.5,299.5" id="Line" stroke="#FFFAFA"></path>
                <path d="M47.5,299.5 L77.3948716,338.691689" id="Line" stroke="#FFFAFA"></path>
                <path d="M79.5,120.5 L33.1925185,206.430851" id="Line" stroke="#FFFFFF"></path>
                <path d="M70.9429977,57.0212952 L79.5,120.5" id="Line" stroke="#FFFFFF"></path>
                <path d="M84.4188455,0.408535815 L142.5,38.5" id="Line" stroke="#FFFFFF"></path>
                <path d="M70.99179,56.3899937 L142.5,38.5" id="Line" stroke="#FFFFFF"></path>
                <path d="M128.5,82.5 L70.9664398,56.6007001" id="Line" stroke="#FFFFFF"></path>
                <path d="M79.5,120.5 L128.5,82.5" id="Line" stroke="#FFFFFF"></path>
                <path d="M128.484131,82.5705566 L172.29248,97.7719727" id="Line" stroke="#FFFFFF"></path>
                <path d="M142.5,38.5 L128.5,82.5" id="Line" stroke="#FFFFFF"></path>
                <path d="M172.58252,97.9638672 L80.5,120.5" id="Line" stroke="#FFFFFF"></path>
                <path d="M153.83252,161.219238 L79.7471704,120.546744" id="Line" stroke="#FFFFFF"></path>
                <path d="M161.859775,0.309322311 L142.5,38.5" id="Line" stroke="#FFFFFF"></path>
                <path d="M172.600098,98.1953125 L142.661133,38.6733398" id="Line" stroke="#FFFFFF"></path>
                <path d="M125.744353,174.5252 L153.5,161.5" id="Line" stroke="#FFFFFF"></path>
                <path d="M153.813151,161.499349 L153.141771,277.424871" id="Line" stroke="#FFFAFA"></path>
                <polygon id="Line" stroke="#FFFFFF" points="153.92513 161.489583 172.5 97.5 208.505283 163.478552"></polygon>
                <path d="M198.307292,195.44987 L154.684896,162.236979 L198.307292,195.44987 Z" id="Line" stroke="#FFFFFF"></path>
                <path d="M193.530273,252.206055 L239.5,281.5" id="Line" stroke="#FFFFFF"></path>
                <path d="M193.309186,251.308421 L169.82071,337.975112" id="Line" stroke="#FFFAFA"></path>
                <path d="M172.5,97.5 L167.141394,18.1152522" id="Line" stroke="#FFFFFF"></path>
                <path d="M166.926164,18.1396996 L142.5,38.5" id="Line" stroke="#FFFFFF"></path>
                <path d="M501.310455,137.822833 L500.393038,214.804136" id="Line" stroke="#FFFFFF"></path>
                <path d="M547.025677,198.601384 L621.5,214.5" id="Line" stroke="#FFFFFF"></path>
                <path d="M569.651174,170.549347 L621.257693,214.155536" id="Line" stroke="#FFFFFF"></path>
                <path d="M569.750739,170.296267 L694.489669,173.638072" id="Line" stroke="#FFFFFF"></path>
                <path d="M569.626173,170.210737 L621.448052,138.233099" id="Line" stroke="#FFFFFF"></path>
                <path d="M685.709043,55.3866909 L622.032934,1.05700243" id="Line" stroke="#FFFFFF"></path>
                <path d="M686.5,55.5 L714.652871,1.04098253" id="Line" stroke="#FFFFFF"></path>
                <path d="M685.64983,55.7906549 L646.773222,61.6465988" id="Line" stroke="#FFFFFF"></path>
                <path d="M646.5,61.5 L621.789294,137.82431" id="Line" stroke="#FFFFFF"></path>
                <path d="M646.5,61.5 L622.307645,0.99648281" id="Line" stroke="#FFFFFF"></path>
                <path d="M622.012988,137.984404 L685.816065,55.9296958" id="Line" stroke="#FFFFFF"></path>
                <path d="M686.395913,56.2314626 L714.966602,126.168237" id="Line" stroke="#FFFFFF"></path>
                <path d="M621.461649,138.022125 L714.5,126.5" id="Line" stroke="#FFFFFF"></path>
                <path d="M621.58183,138.35942 L694.5,173.5" id="Line" stroke="#FFFFFF"></path>
                <path d="M694.5,173.5 L714.5,126.5" id="Line" stroke="#FFFFFF"></path>
                <path d="M694.623885,173.795534 L714.767262,259.966641" id="Line" stroke="#FFFFFF"></path>
                <path d="M714.743566,260.049948 L622.082728,215.256459" id="Line" stroke="#FFFFFF"></path>
                <path d="M714.68217,260.816676 L650.5,272.5" id="Line" stroke="#FFFFFF"></path>
                <path d="M153.362041,277.780965 L193.362827,251.861583" id="Line" stroke="#FFFFFF"></path>
                <path d="M193.5,252.5 L154.350237,161.858329" id="Line" stroke="#FFFFFF"></path>
                <path d="M193.565234,252.123687 L222.148498,203.779441" id="Line" stroke="#FFFAFA"></path>
                <path d="M193.760395,252.514233 L208.5,311.5" id="Line" stroke="#FFFFFF"></path>
                <path d="M208.610853,311.315865 L169.943795,338.482572" id="Line" stroke="#FFFAFA"></path>
                <path d="M208.651245,311.308533 L248.93261,338.513831" id="Line" stroke="#FFFAFA"></path>
                <path d="M416.460222,338.647053 L437.899778,273.32773" id="Line" stroke="#FFFFFF"></path>
                <path d="M500.441214,338.694479 L438.008888,273.374213" id="Line" stroke="#FFFFFF"></path>
                <path d="M438.260653,273.361055 L478.448718,275.592287" id="Line" stroke="#FFFFFF"></path>
                <path d="M478.5,275.5 L500.388318,338.366741" id="Line" stroke="#FFFFFF"></path>
                <path d="M478.5,275.5 L500.493564,214.985727" id="Line" stroke="#FFFFFF"></path>
                <path d="M438.000555,273.148765 L500.475569,215.062618" id="Line" stroke="#FFFFFF"></path>
                <path d="M437.781247,272.843051 L416.313482,176.663308" id="Line" stroke="#FFFFFF"></path>
                <path d="M416.5,176.5 L500.18764,215.030444" id="Line" stroke="#FFFFFF"></path>
                <path d="M500.640256,215.158049 L445.5,107.5" id="Line" stroke="#FFFFFF"></path>
                <path d="M445.205239,108.175277 L416.376739,176.201421" id="Line" stroke="#FFFFFF"></path>
                <path d="M445.5,107.5 L500.803852,137.778662" id="Line" stroke="#FFFFFF"></path>
                <path d="M416.200601,57.5008953 L445.559639,107.513846" id="Line" stroke="#FFFFFF"></path>
                <path d="M448.07641,15.8508456 L415.919215,56.8912266" id="Line" stroke="#FFFFFF"></path>
                <path d="M416.081175,1.27886533 L447.5,15.5" id="Line" stroke="#FFFFFF"></path>
                <path d="M448.5,15.5 L500.368141,1.22596922" id="Line" stroke="#FFFFFF"></path>
                <path d="M448.222907,16.0526083 L468.048727,84.3260454" id="Line" stroke="#FFFFFF"></path>
                <path d="M468.10794,84.4927189 L500.503926,1.17689034" id="Line" stroke="#FFFFFF"></path>
                <path d="M468.061885,84.542721 L501.007257,137.685958" id="Line" stroke="#FFFFFF"></path>
                <path d="M445.465337,107.801577 L467.924599,84.5115793" id="Line" stroke="#FFFFFF"></path>
                <polygon id="Line" stroke="#FFFFFF" points="193.555399 251.912764 198.5 195.5 222.202535 203.77351"></polygon>
                <path d="M222.463281,204.070703 L239.422114,280.856828" id="Line" stroke="#FFFAFA"></path>
                <path d="M249.137619,338.468556 L239.5,281.5" id="Line" stroke="#FFFAFA"></path>
                <polyline id="Line" stroke="#FFFFFF" points="198.5 195.5 208.475202 163.279395 222.198774 203.666149 245.751805 183.277305 208.475202 163.279395"></polyline>
                <path d="M208.680628,311.116637 L239.727539,281.682129" id="Line" stroke="#FFFAFA"></path>
            </g>
        </g>
    </g>
</svg>