<?xml version="1.0" encoding="UTF-8" ?>
<!DOCTYPE svg PUBLIC "-//W3C//DTD SVG 1.1//EN" "http://www.w3.org/Graphics/SVG/1.1/DTD/svg11.dtd">
<svg width="1772pt" height="586pt" viewBox="0 0 1772 586" version="1.1" xmlns="http://www.w3.org/2000/svg">
<g id="#ffffffff">
<path fill="#ffffff" opacity="1.00" d=" M 146.38 0.00 L 309.20 0.00 C 314.63 18.34 319.41 36.86 324.80 55.22 C 338.09 99.30 350.52 143.64 363.43 187.84 C 373.24 149.69 383.72 111.70 393.78 73.61 C 400.75 49.18 406.64 24.46 413.50 0.00 L 573.06 0.00 C 575.51 11.26 578.47 22.44 580.21 33.84 C 612.11 166.61 644.08 299.36 675.78 432.17 C 676.28 409.46 675.86 386.72 676.00 364.00 C 676.08 242.67 675.84 121.33 676.12 0.00 L 855.03 0.00 C 855.14 12.31 854.37 24.63 855.00 36.92 C 854.98 96.61 855.01 156.31 855.01 216.00 C 905.00 216.02 955.00 216.02 1004.99 216.00 C 1005.01 144.00 1004.99 72.00 1005.00 0.00 L 1180.98 0.00 C 1187.56 2.16 1194.75 0.44 1201.60 1.04 C 1201.78 9.04 1202.07 17.03 1202.34 25.02 C 1201.63 48.00 1202.17 71.01 1202.00 94.00 C 1202.04 258.00 1201.91 422.01 1202.08 586.00 L 1005.00 586.00 C 1004.99 520.01 1005.02 454.01 1004.99 388.02 C 954.99 388.02 905.00 388.02 855.01 388.02 C 854.98 454.01 855.01 520.01 855.00 586.00 L 560.28 586.00 C 554.23 569.56 548.47 553.01 543.87 536.10 C 530.63 490.37 517.41 444.63 504.18 398.90 C 502.97 394.78 501.89 390.62 500.46 386.58 C 487.90 429.01 475.38 471.46 462.85 513.90 C 460.55 520.94 459.16 528.30 455.90 534.99 C 451.12 551.91 447.34 569.09 442.51 586.00 L 284.22 586.00 C 266.09 520.38 247.94 454.77 230.30 389.01 C 213.65 443.17 197.14 497.38 180.48 551.53 C 178.05 563.21 174.38 574.59 170.91 586.00 L 0.38 586.00 C 3.15 574.87 5.13 563.52 8.78 552.63 C 52.00 379.57 95.07 206.46 138.41 33.43 C 140.63 22.19 143.76 11.15 146.38 0.00 M 182.81 30.04 C 197.66 118.69 212.81 207.29 227.46 295.98 C 228.14 292.66 228.88 289.37 229.49 286.04 C 245.39 200.70 261.35 115.37 277.24 30.03 C 245.77 29.99 214.29 29.97 182.81 30.04 M 450.64 30.02 C 467.91 56.47 485.22 82.90 502.71 109.21 C 516.27 82.81 529.93 56.46 543.43 30.03 C 512.50 29.97 481.57 30.00 450.64 30.02 M 711.25 30.03 C 749.06 80.81 787.03 131.47 824.94 182.17 C 825.07 131.45 824.97 80.72 825.00 30.00 C 787.08 30.02 749.16 29.96 711.25 30.03 M 1035.00 30.00 C 1035.07 39.29 1034.85 48.59 1035.10 57.87 C 1066.68 95.87 1098.80 133.44 1130.48 171.37 C 1133.02 164.91 1134.46 158.07 1136.57 151.46 C 1148.35 110.97 1160.16 70.50 1171.93 30.01 C 1126.29 29.98 1080.64 30.01 1035.00 30.00 M 63.19 457.95 C 106.59 379.08 149.79 300.11 193.15 221.23 C 193.95 219.94 194.37 218.47 193.94 216.98 C 184.54 160.61 174.84 104.28 165.58 47.89 C 131.46 184.58 97.49 321.30 63.19 457.95 M 438.16 47.81 C 447.80 91.16 458.05 134.38 467.52 177.76 C 475.48 161.72 483.97 145.94 491.97 129.92 C 488.43 123.39 483.83 117.40 479.89 111.07 C 465.95 90.01 452.29 68.75 438.16 47.81 M 552.72 55.63 C 500.09 158.02 447.29 260.33 394.67 362.72 C 393.88 366.07 395.67 369.52 396.03 372.89 C 406.48 424.61 416.61 476.39 427.28 528.06 C 443.98 471.17 460.84 414.32 477.63 357.45 C 490.28 311.72 502.80 265.96 515.38 220.21 C 516.67 215.20 518.36 210.27 519.23 205.16 C 521.09 196.42 524.49 188.11 526.62 179.44 C 536.57 143.16 546.34 106.84 556.39 70.58 C 558.37 64.99 555.10 59.43 554.31 53.91 C 553.59 54.31 553.05 54.88 552.72 55.63 M 706.05 56.65 C 705.94 190.10 706.03 323.55 706.00 457.00 C 706.16 472.01 705.67 487.05 706.25 502.05 C 714.33 470.99 722.87 440.04 731.13 409.03 C 752.05 331.24 772.93 253.43 793.87 175.65 C 794.44 174.35 793.28 173.29 792.65 172.31 C 763.72 133.80 735.05 95.10 706.05 56.65 M 418.62 97.46 C 403.64 153.20 388.87 209.00 374.98 265.02 C 374.63 266.50 375.03 268.00 375.26 269.47 C 379.49 290.32 383.60 311.20 387.86 332.04 C 409.28 291.01 430.24 249.73 451.55 208.64 C 452.35 206.87 453.75 205.07 453.01 203.03 C 443.46 160.95 433.87 118.88 424.31 76.81 C 422.12 83.61 420.55 90.59 418.62 97.46 M 303.45 88.25 C 303.78 92.78 303.76 97.33 303.84 101.87 C 305.22 192.91 306.60 283.95 307.99 374.99 C 308.45 397.77 308.43 420.57 309.23 443.33 C 324.06 385.12 338.66 326.84 353.47 268.62 C 353.79 267.14 354.33 265.58 353.83 264.07 C 351.75 256.22 348.91 248.57 347.46 240.56 C 332.80 189.79 317.99 139.06 303.45 88.25 M 1035.04 89.22 C 1034.94 198.48 1035.03 307.74 1035.00 417.00 C 1035.13 444.44 1034.74 471.89 1035.20 499.32 C 1064.73 398.43 1093.99 297.46 1123.45 196.55 C 1123.90 195.36 1123.91 194.04 1122.81 193.22 C 1093.50 158.60 1064.45 123.75 1035.04 89.22 M 1111.22 310.29 C 1087.39 392.19 1063.49 474.08 1039.69 555.99 C 1083.79 556.07 1127.89 556.03 1171.99 556.01 C 1172.01 415.01 1171.99 274.00 1172.00 133.00 C 1171.84 122.70 1172.33 112.38 1171.72 102.09 C 1151.82 171.56 1131.35 240.88 1111.22 310.29 M 283.56 104.80 C 270.52 176.24 256.92 247.59 243.73 319.01 C 243.36 324.18 246.30 328.89 246.88 333.97 C 247.15 337.39 248.24 340.65 249.12 343.94 C 262.67 393.68 276.13 443.43 289.70 493.16 C 287.82 367.44 285.89 241.72 283.99 116.00 C 283.90 112.26 284.02 108.51 283.56 104.80 M 552.78 159.61 C 548.90 174.37 544.39 189.00 540.89 203.84 C 552.42 227.90 564.60 251.68 576.38 275.63 C 596.50 316.11 616.58 356.61 636.72 397.08 C 613.44 300.69 590.47 204.22 567.18 107.82 C 562.00 124.97 557.64 142.36 552.78 159.61 M 809.51 195.74 C 777.39 315.85 745.01 435.88 712.76 555.95 C 750.17 556.12 787.58 556.01 824.99 556.01 C 825.00 497.68 825.01 439.34 824.98 381.00 C 825.45 358.34 825.21 335.68 825.03 313.01 C 824.84 288.34 824.80 263.67 824.41 239.01 C 825.03 231.13 824.90 223.21 824.72 215.33 C 821.14 210.27 817.28 205.41 813.64 200.40 C 812.38 198.74 811.30 196.88 809.51 195.74 M 532.68 232.90 C 525.24 260.00 517.86 287.12 510.37 314.21 C 510.01 315.70 509.35 317.31 509.98 318.84 C 514.70 332.53 520.34 345.93 524.13 359.92 C 542.93 424.88 561.72 489.83 580.50 554.79 C 580.67 556.56 582.75 555.89 583.92 556.05 C 614.23 556.00 644.54 556.06 674.85 556.02 C 669.20 532.68 663.61 509.32 658.03 485.97 C 657.78 484.89 657.44 483.85 657.01 482.85 C 633.23 435.01 609.49 387.15 585.71 339.30 C 567.98 303.86 550.63 268.22 532.68 232.90 M 844.01 246.02 C 843.99 283.35 844.00 320.67 844.01 358.00 C 848.62 358.02 853.23 358.04 857.85 357.99 C 896.02 320.63 934.41 283.50 972.48 246.05 C 929.66 245.97 886.83 246.03 844.01 246.02 M 1001.21 246.06 C 963.09 283.43 924.67 320.50 886.65 357.98 C 929.43 358.07 972.21 358.01 1014.99 358.01 C 1015.00 320.68 1015.00 283.35 1014.99 246.02 C 1010.39 246.00 1005.80 245.96 1001.21 246.06 M 45.31 532.29 C 42.21 539.88 41.03 548.12 38.85 556.00 C 75.13 556.00 111.42 556.14 147.71 555.94 C 168.68 486.95 189.90 418.04 210.96 349.08 C 212.14 344.77 214.83 340.56 213.98 335.95 C 209.22 307.60 204.41 279.27 199.70 250.92 C 148.22 344.70 96.73 438.48 45.31 532.29 M 352.78 352.63 C 336.62 416.50 320.48 480.37 304.33 544.23 C 303.73 548.18 306.09 551.94 306.61 555.84 C 311.40 556.21 316.20 555.96 321.00 556.03 C 351.38 555.99 381.76 556.11 412.13 555.97 C 409.49 540.17 405.90 524.54 402.89 508.80 C 392.65 457.13 381.89 405.56 372.17 353.79 C 371.47 349.69 370.70 345.60 369.40 341.64 C 367.30 331.70 365.44 321.71 363.35 311.76 C 359.39 325.26 356.37 339.03 352.78 352.63 Z" />
<path fill="#ffffff" opacity="1.00" d=" M 1319.01 2.00 C 1357.00 2.00 1395.00 2.00 1432.99 2.01 C 1433.01 196.67 1433.00 391.33 1433.00 586.00 L 1319.00 586.00 C 1319.00 391.33 1318.99 196.67 1319.01 2.00 Z" />
<path fill="#ffffff" opacity="1.00" d=" M 1491.00 2.01 C 1529.00 2.00 1567.00 2.00 1604.99 2.01 C 1605.01 196.67 1605.00 391.33 1605.00 586.00 L 1491.00 586.00 C 1491.00 391.34 1490.99 196.67 1491.00 2.01 Z" />
<path fill="#ffffff" opacity="1.00" d=" M 1658.00 4.01 C 1696.00 3.99 1734.00 4.00 1772.00 4.00 L 1772.00 586.00 L 1658.00 586.00 C 1658.00 392.00 1657.99 198.00 1658.00 4.01 Z" />
</g>
</svg>
