<svg id="Layer_1" data-name="Layer 1" xmlns="http://www.w3.org/2000/svg" viewBox="0 0 279.86 275">
    <defs>
        <style>.cls-1{fill:#26275f;}.cls-2{fill:#56c1ae;}.cls-3{fill:#fee686;}.cls-4{fill:#5e6ab2;}.cls-5{fill:#fff;}
        </style>
    </defs>
    <title>Artboard 1</title>
    <path class="cls-1" d="M267.77,135.47A127.84,127.84,0,1,1,139.93,7.63,127.84,127.84,0,0,1,267.77,135.47"/>
    <path class="cls-2"
          d="M95.57,110.76c-4-4.39-10-6.61-17.85-6.61-4.91,0-9.53,0-11.48,0v43.17H80.31c9.94,0,20.59-8.27,20.59-20.59C100.89,120.14,99.05,114.61,95.57,110.76Zm-16.8,31.54H73l0-33.1h5.74c9.41,0,15.55,5.58,15.54,16.43S88.42,142.29,78.76,142.29Z"/>
    <path class="cls-2"
          d="M79.35,97.23H59.1l0,57H79.31c17.95,0,29.44-10.69,29.45-28.63S97.3,97.23,79.35,97.23Zm1,52.06h-16V102.23h1c.06,0,6,0,12.46,0,8.44,0,14.94,2.44,19.29,7.25,3.81,4.21,5.83,10.2,5.83,17.31C102.84,140.24,91.19,149.3,80.31,149.3Z"/>
    <path class="cls-3"
          d="M134.08,142.3V131.53h17.39v-12H134.1V109.2h21.77v-12H120.15l0,57H157v-12Zm1.09-17.52h12.36a1,1,0,0,1,0,2H135.17a1,1,0,0,1,0-2Zm17.15,24.53H125.93V102.2h26.39a1,1,0,0,1,0,2H127.88v43.2h24.44a1,1,0,0,1,0,2Z"/>
    <path class="cls-4"
          d="M205.89,97.23,193.34,136,181.16,97.23H166l20.14,57h14.52l20.14-57Zm-26,21.08L174.24,102a1,1,0,1,1,1.84-.63l5.62,16.34a1,1,0,0,1-.6,1.24,1,1,0,0,1-.32.05A1,1,0,0,1,179.86,118.31Zm19.43,22.21-2.74,6.93a1,1,0,0,1-.91.62h-4.43a1,1,0,0,1-.92-.64l-9.21-24.9a1,1,0,1,1,1.83-.68l9,24.27H195l2.5-6.32a1,1,0,1,1,1.81.72Zm1.57-4a1,1,0,0,1-.92.66,1,1,0,0,1-.32-.05,1,1,0,0,1-.6-1.24l12.05-34.72a1,1,0,0,1,1.84.64Z"/>
    <path class="cls-5"
          d="M78.2,179.44a11.84,11.84,0,0,1,3.85.57,7.33,7.33,0,0,1,2.75,1.63,6.74,6.74,0,0,1,1.65,2.58,10,10,0,0,1,.56,3.43v1.91a10.22,10.22,0,0,1-.54,3.42,6.93,6.93,0,0,1-1.64,2.63,7.32,7.32,0,0,1-2.75,1.69,11.45,11.45,0,0,1-3.87.59H72.32V179.44Zm-2.4,2.74v13h2.27a5.19,5.19,0,0,0,4-1.42,6,6,0,0,0,1.29-4.16v-1.86a6,6,0,0,0-1.25-4.09A5.18,5.18,0,0,0,78,182.18Z"/>
    <path class="cls-5"
          d="M101.7,194.2a4.48,4.48,0,0,1-.61,1.42,4.8,4.8,0,0,1-1.2,1.28,6.45,6.45,0,0,1-1.77.91,7.16,7.16,0,0,1-2.34.35,7.66,7.66,0,0,1-2.65-.44,5.86,5.86,0,0,1-2.07-1.27,5.64,5.64,0,0,1-1.34-2,7.39,7.39,0,0,1-.48-2.75v-1a7.17,7.17,0,0,1,.49-2.71,6.14,6.14,0,0,1,1.34-2.07,5.9,5.9,0,0,1,2-1.32,6.85,6.85,0,0,1,2.54-.46,7.45,7.45,0,0,1,2.34.36,5.16,5.16,0,0,1,1.94,1.15,5.53,5.53,0,0,1,1.33,2,7.73,7.73,0,0,1,.49,2.91v1.31H92.59a4.44,4.44,0,0,0,.92,3,3.06,3.06,0,0,0,2.36.94,3.23,3.23,0,0,0,1.17-.2,2.91,2.91,0,0,0,.85-.5,2.74,2.74,0,0,0,.57-.67,2.4,2.4,0,0,0,.3-.73Zm-6-7.73a2.9,2.9,0,0,0-2,.75,3.8,3.8,0,0,0-1,2.55h5.89v0a3.69,3.69,0,0,0-.8-2.5A2.73,2.73,0,0,0,95.66,186.47Z"/>
    <path class="cls-5" d="M102.86,184.4h3.51l3.15,10,3.07-10h3.23l-4.57,13.5h-3.77Z"/>
    <path class="cls-5"
          d="M129.72,179.44a11.84,11.84,0,0,1,3.85.57,7.33,7.33,0,0,1,2.75,1.63,6.74,6.74,0,0,1,1.65,2.58,10,10,0,0,1,.56,3.43v1.91A10.22,10.22,0,0,1,138,193a6.93,6.93,0,0,1-1.64,2.63,7.32,7.32,0,0,1-2.75,1.69,11.45,11.45,0,0,1-3.87.59h-5.89V179.44Zm-2.4,2.74v13h2.27a5.19,5.19,0,0,0,4-1.42,6,6,0,0,0,1.29-4.16v-1.86a6,6,0,0,0-1.25-4.09,5.18,5.18,0,0,0-4.09-1.43Z"/>
    <path class="cls-5"
          d="M153.21,194.2a4.48,4.48,0,0,1-.61,1.42,4.8,4.8,0,0,1-1.2,1.28,6.45,6.45,0,0,1-1.77.91,7.16,7.16,0,0,1-2.34.35,7.66,7.66,0,0,1-2.65-.44,5.86,5.86,0,0,1-2.07-1.27,5.64,5.64,0,0,1-1.34-2,7.39,7.39,0,0,1-.48-2.75v-1a7.17,7.17,0,0,1,.49-2.71,6.14,6.14,0,0,1,1.34-2.07,5.9,5.9,0,0,1,2-1.32,6.85,6.85,0,0,1,2.54-.46,7.45,7.45,0,0,1,2.34.36,5.16,5.16,0,0,1,1.94,1.15,5.53,5.53,0,0,1,1.33,2,7.73,7.73,0,0,1,.49,2.91v1.31H144.1a4.44,4.44,0,0,0,.92,3,3.06,3.06,0,0,0,2.36.94,3.23,3.23,0,0,0,1.17-.2,2.91,2.91,0,0,0,.85-.5,2.74,2.74,0,0,0,.57-.67,2.4,2.4,0,0,0,.3-.73Zm-6-7.73a2.9,2.9,0,0,0-2,.75,3.8,3.8,0,0,0-1,2.55H150v0a3.69,3.69,0,0,0-.8-2.5A2.73,2.73,0,0,0,147.17,186.47Z"/>
    <path class="cls-5"
          d="M168.09,197.11a5.18,5.18,0,0,1-1.76,4.3,7.52,7.52,0,0,1-4.83,1.41,8.75,8.75,0,0,1-2.61-.35,6.24,6.24,0,0,1-1.87-.91,4.46,4.46,0,0,1-1.17-1.25,3.69,3.69,0,0,1-.52-1.38l3.25-.5a2.07,2.07,0,0,0,.25.66,2,2,0,0,0,.54.62,3,3,0,0,0,.88.45,3.89,3.89,0,0,0,1.25.18q3.28,0,3.28-3.23V195a4.69,4.69,0,0,1-1.59,1.67,4.5,4.5,0,0,1-2.54.71,5.46,5.46,0,0,1-2.14-.41,5,5,0,0,1-1.72-1.19,5.46,5.46,0,0,1-1.15-1.89,7.21,7.21,0,0,1-.41-2.53v-1.06a7.35,7.35,0,0,1,.41-2.53,5.72,5.72,0,0,1,1.16-1.95,5.27,5.27,0,0,1,4-1.72,4.46,4.46,0,0,1,2.52.65,4.34,4.34,0,0,1,1.48,1.65v-2h3.31Zm-6.43-2.19A3,3,0,0,0,164,194a3.72,3.72,0,0,0,.89-2.66v-1a4,4,0,0,0-.83-2.69,3.28,3.28,0,0,0-4.62,0,3.92,3.92,0,0,0-.83,2.64v1.11a3.64,3.64,0,0,0,.85,2.6A2.92,2.92,0,0,0,161.66,194.91Z"/>
    <path class="cls-5"
          d="M171.5,184.4h3.31v2.48a4.59,4.59,0,0,1,1.63-2,5.14,5.14,0,0,1,2.92-.66v3.15a6.13,6.13,0,0,0-3.41.72,3,3,0,0,0-1.14,2.69v7.13H171.5Z"/>
    <path class="cls-5"
          d="M193.06,194.2a4.48,4.48,0,0,1-.61,1.42,4.8,4.8,0,0,1-1.2,1.28,6.45,6.45,0,0,1-1.77.91,7.16,7.16,0,0,1-2.34.35,7.66,7.66,0,0,1-2.65-.44,5.86,5.86,0,0,1-2.07-1.27,5.64,5.64,0,0,1-1.34-2,7.39,7.39,0,0,1-.48-2.75v-1a7.17,7.17,0,0,1,.49-2.71,6.14,6.14,0,0,1,1.34-2.07,5.9,5.9,0,0,1,2-1.32,6.85,6.85,0,0,1,2.54-.46,7.45,7.45,0,0,1,2.34.36,5.16,5.16,0,0,1,1.94,1.15,5.53,5.53,0,0,1,1.33,2,7.73,7.73,0,0,1,.49,2.91v1.31h-9.17a4.44,4.44,0,0,0,.92,3,3.06,3.06,0,0,0,2.36.94,3.23,3.23,0,0,0,1.17-.2,2.91,2.91,0,0,0,.85-.5,2.74,2.74,0,0,0,.57-.67,2.4,2.4,0,0,0,.3-.73Zm-6-7.73a2.9,2.9,0,0,0-2,.75,3.8,3.8,0,0,0-1,2.55h5.89v0a3.69,3.69,0,0,0-.8-2.5A2.73,2.73,0,0,0,187,186.47Z"/>
    <path class="cls-5"
          d="M207.49,194.2a4.48,4.48,0,0,1-.61,1.42,4.8,4.8,0,0,1-1.2,1.28,6.45,6.45,0,0,1-1.77.91,7.16,7.16,0,0,1-2.34.35,7.66,7.66,0,0,1-2.65-.44,5.86,5.86,0,0,1-2.07-1.27,5.64,5.64,0,0,1-1.34-2,7.39,7.39,0,0,1-.48-2.75v-1a7.17,7.17,0,0,1,.49-2.71,6.14,6.14,0,0,1,1.34-2.07,5.9,5.9,0,0,1,2-1.32,6.85,6.85,0,0,1,2.54-.46,7.45,7.45,0,0,1,2.34.36,5.16,5.16,0,0,1,1.94,1.15,5.53,5.53,0,0,1,1.33,2,7.73,7.73,0,0,1,.49,2.91v1.31h-9.17a4.44,4.44,0,0,0,.92,3,3.06,3.06,0,0,0,2.36.94,3.23,3.23,0,0,0,1.17-.2,2.91,2.91,0,0,0,.85-.5,2.74,2.74,0,0,0,.57-.67,2.4,2.4,0,0,0,.3-.73Zm-6-7.73a2.9,2.9,0,0,0-2,.75,3.8,3.8,0,0,0-1,2.55h5.89v0a3.69,3.69,0,0,0-.8-2.5A2.73,2.73,0,0,0,201.45,186.47Z"/>
</svg>