<?xml version="1.0" encoding="utf-8"?>
<!-- Generator: Adobe Illustrator 21.1.0, SVG Export Plug-In . SVG Version: 6.00 Build 0)  -->
<svg version="1.1" id="Layer_1" xmlns="http://www.w3.org/2000/svg" xmlns:xlink="http://www.w3.org/1999/xlink" x="0px" y="0px"
	 viewBox="0 0 271 479" style="enable-background:new 0 0 271 479;" xml:space="preserve">
<style type="text/css">
	.st0{fill:none;stroke:#A5A3A2;stroke-width:2;stroke-miterlimit:1.41;}
	.st1{fill:none;stroke:#676666;stroke-width:1.2;stroke-miterlimit:1.41;}
	.st2{fill:#676666;}
	.st3{fill:none;stroke:#676666;stroke-width:2;stroke-miterlimit:1.41;}
	.st4{fill:none;stroke:#676666;stroke-width:1.4;stroke-miterlimit:1.41;}
	.st5{fill:none;stroke:#676666;stroke-width:1.5;stroke-miterlimit:1.41;}
	.st6{fill:#B2D34E;}
	.st7{fill:#F5F3F4;}
	.st8{fill:none;stroke:#FFFFFF;stroke-width:0.6;stroke-miterlimit:1.41;}
	.st9{fill:none;stroke:#FFFFFF;stroke-width:0.2;stroke-miterlimit:1.41;}
	.st10{fill:none;stroke:#676666;stroke-miterlimit:1.41;}
	.st11{fill:none;stroke:#676666;stroke-width:1.8;stroke-miterlimit:1.41;}
	.st12{fill:none;stroke:#676666;stroke-width:2.5;stroke-miterlimit:1.41;}
	.st13{fill:none;stroke:#676666;stroke-width:1.3;stroke-miterlimit:1.41;}
	.st14{fill:none;stroke:#676666;stroke-width:0.9;stroke-miterlimit:1.41;}
	.st15{fill:none;stroke:#676666;stroke-width:0.8;stroke-miterlimit:1.41;}
	.st16{fill:none;stroke:#676666;stroke-width:0.6;stroke-miterlimit:1.41;}
	.st17{fill:none;stroke:#676666;stroke-width:1.9;stroke-miterlimit:1.41;}
	.st18{fill:#FFFFFF;}
</style>
<title>htv_logo</title>
<path class="st0" d="M136.1,310.8c0,0,45.2,20.8,45.3,20.8"/>
<path class="st0" d="M137.6,310.9c0,0-45.2,20.8-45.3,20.8"/>
<path class="st0" d="M187.4,329.6c4.9,0,9,3.9,9,8.8c0,4.9-3.9,9-8.8,9s-9-3.9-9-8.8c0,0,0-0.1,0-0.1
	C178.6,333.6,182.5,329.6,187.4,329.6z"/>
<path class="st0" d="M221.3,373.3c4.9,0,9,3.9,9,8.8c0,4.9-3.9,9-8.8,9s-9-3.9-9-8.8c0,0,0-0.1,0-0.1
	C212.4,377.3,216.4,373.3,221.3,373.3z"/>
<path class="st0" d="M218.9,373.3c0,0-25.2-27.8-25.3-27.8"/>
<path class="st0" d="M187.4,416.7c4.9,0,9,3.9,9,8.8c0,4.9-3.9,9-8.8,9c-4.9,0-9-3.9-9-8.8c0,0,0-0.1,0-0.1
	C178.6,420.7,182.5,416.7,187.4,416.7C187.4,416.7,187.4,416.7,187.4,416.7z"/>
<path class="st0" d="M185.1,416.7c0,0-25.2-27.8-25.3-27.8"/>
<path class="st0" d="M153.9,373.1c-4.9,0-9,3.9-9,8.8c0,4.9,3.9,9,8.8,9s9-3.9,9-8.8c0,0,0-0.1,0-0.1
	C162.8,377.2,158.8,373.2,153.9,373.1z"/>
<path class="st0" d="M86.2,416.7c4.9-0.1,9,3.9,9,8.8c0.1,4.9-3.9,9-8.8,9c-4.9,0.1-9-3.9-9-8.8c0,0,0-0.1,0-0.1
	C77.4,420.7,81.3,416.8,86.2,416.7z"/>
<path class="st0" d="M83.8,416.7c0,0-25.2-27.8-25.3-27.8"/>
<path class="st0" d="M51.6,373.3c-4.9-0.1-9,3.9-9,8.8s3.9,9,8.8,9s9-3.9,9-8.8c0,0,0-0.1,0-0.1C60.5,377.3,56.5,373.3,51.6,373.3z"
	/>
<path class="st0" d="M155.7,373.3c0,0,25.2-27.8,25.3-27.8"/>
<path class="st0" d="M86.2,329.8c-4.9,0-9,3.9-9,8.8c0,4.9,3.9,9,8.8,9s9-3.9,9-8.8c0,0,0-0.1,0-0.1
	C95.1,333.8,91.1,329.8,86.2,329.8z"/>
<path class="st0" d="M54.6,373.3c0,0,25.2-27.8,25.3-27.8"/>
<path class="st0" d="M120.2,373.3c4.9-0.1,9,3.9,9,8.8c0.1,4.9-3.9,9-8.8,9c-4.9,0.1-9-3.9-9-8.8c0,0,0-0.1,0-0.1
	C111.3,377.3,115.3,373.3,120.2,373.3z"/>
<path class="st0" d="M117.8,373.3c0,0-25.2-27.8-25.3-27.8"/>
<path class="st0" d="M51.5,460.1c-4.9-0.1-9,3.9-9,8.8s3.9,9,8.8,9s9-3.9,9-8.8c0,0,0-0.1,0-0.1C60.3,464.1,56.4,460.2,51.5,460.1z"
	/>
<path class="st0" d="M54.4,460.1c0,0,25.2-27.8,25.3-27.8"/>
<path class="st0" d="M120,460.1c4.9-0.1,9,3.9,9,8.8c0.1,4.9-3.9,9-8.8,9c-4.9,0.1-9-3.9-9-8.8c0,0,0-0.1,0-0.1
	C111.2,464.1,115.1,460.2,120,460.1z"/>
<path class="st0" d="M117.7,460.1c0,0-25.2-27.8-25.3-27.8"/>
<path class="st1" d="M175,88.3l-8.8-0.2l-6.2-5.8v-6.7"/>
<rect x="133.3" y="112.9" class="st2" width="6.8" height="168.6"/>
<rect x="148.3" y="122.8" class="st2" width="6.8" height="157.6"/>
<rect x="118.3" y="145.3" class="st2" width="6.8" height="135.8"/>
<rect x="103.8" y="204.4" class="st2" width="6.8" height="76.3"/>
<path class="st3" d="M152.1,193.3l15-12.7"/>
<path class="st4" d="M154.3,153.8l11.5-11.4v-12.1"/>
<path class="st5" d="M121.9,176.7L103.2,158"/>
<rect x="162.9" y="211.8" class="st2" width="6.8" height="68.8"/>
<path class="st2" d="M140.1,112.8l-3.5,3.7L97.2,80.1l3.5-3.7C100.7,76.4,140.1,112.8,140.1,112.8z"/>
<path class="st2" d="M178.4,56.2v43.7l-26.5,26.5l-3.6-3.6l25-25V56.2L178.4,56.2z"/>
<path class="st2" d="M36.8,173.6h41.8v5.1H34.8L6,150l3.6-3.6L36.8,173.6z"/>
<path class="st5" d="M21.9,159.3l18.8-24.8h17"/>
<path class="st2" d="M125.1,145.3l-3.6,3.6l-28.2-28.2l3.6-3.6L125.1,145.3z"/>
<rect x="84.7" y="117.1" class="st2" width="12.1" height="5.1"/>
<rect x="4.5" y="264.9" class="st6" width="266.1" height="47.6"/>
<path class="st7" d="M4.5,300h266.1"/>
<path class="st8" d="M4.5,300h266.1"/>
<path class="st7" d="M4.5,306.9h266.1"/>
<path class="st9" d="M4.5,306.9h266.1"/>
<path class="st2" d="M82.4,150.2l-0.3,24.7l28.4,29.4l-3.7,3.5l-29.8-31l0.3-26.8L82.4,150.2z"/>
<path class="st2" d="M223.6,158.1l-57.2,57.2l-3.5-3.5l57.2-57.2L223.6,158.1L223.6,158.1z"/>
<path class="st5" d="M212,164.5v-20.2"/>
<path class="st5" d="M211.6,145.2l16.7-16.7"/>
<path class="st3" d="M199,180.1h28.6l8.3,8.3"/>
<path class="st10" d="M228.3,179.5l11.5-11.3"/>
<path class="st3" d="M166.5,181.9v-19.1l23.5-23.5v-13.3"/>
<path class="st3" d="M189.5,127.3l23.3-23.3V83.9"/>
<path class="st11" d="M127.1,102.2l19.4-19.4V45.3"/>
<path class="st3" d="M138.5,90.2l-9.1-9.1V61.2l-8.9-8.9v-8.7"/>
<path class="st10" d="M124.7,57.3l7.9-7.9V23.9"/>
<path class="st12" d="M86.3,120.7l-2.3-2.3l-9.6-9.6H50.4"/>
<path class="st5" d="M73.8,107v-9L58.1,86.8h-20"/>
<path class="st2" d="M167.8,45.4l10.7,10.7l-3.6,3.6l-12.2-12.2V15.4h5.1V45.4z"/>
<path class="st10" d="M177.9,73.8l9.5-9.5V32.6"/>
<path class="st3" d="M202.2,114.8h21.4l14.7-14.7"/>
<path class="st3" d="M224.3,114.8h27.6l10.4-9.2"/>
<path class="st3" d="M237.8,101.3V68.2"/>
<path class="st5" d="M237.8,91.3l26.7-26.7"/>
<path class="st13" d="M179.6,198.5v-21.6"/>
<path class="st1" d="M79.8,193.9l-7.1,7.1"/>
<path class="st1" d="M79.2,194.2h17"/>
<path class="st5" d="M165,0.8c4,0,7.3,3.3,7.2,7.4c0,4-3.3,7.3-7.4,7.2c-4,0-7.2-3.3-7.2-7.3C157.7,4,161,0.7,165,0.8z"/>
<path class="st14" d="M147,38.8c1.9,0.3,3.1,2,2.8,3.9c-0.3,1.9-2,3.1-3.9,2.8c-1.8-0.3-3.1-2-2.8-3.9
	C143.4,39.8,145.1,38.5,147,38.8C147,38.8,147,38.8,147,38.8z"/>
<path class="st15" d="M121.1,33.3c2.8,0.4,4.7,3.1,4.2,5.8c-0.4,2.8-3.1,4.7-5.8,4.2c-2.8-0.4-4.6-3-4.2-5.8
	C115.7,34.8,118.3,32.9,121.1,33.3C121.1,33.3,121.1,33.3,121.1,33.3z"/>
<path class="st10" d="M71.2,199.8c2.2,0,3.9,1.8,3.9,3.9c0,2.2-1.8,3.9-3.9,3.9c-2.1,0-3.9-1.8-3.9-3.9
	C67.3,201.5,69.1,199.8,71.2,199.8z"/>
<path class="st10" d="M61.5,130.4c2.2,0,3.9,1.8,3.9,3.9c0,2.2-1.8,3.9-3.9,3.9c-2.1,0-3.9-1.8-3.9-3.9
	C57.5,132.2,59.3,130.4,61.5,130.4z"/>
<path class="st16" d="M35.3,83.9c1.5,0,2.8,1.3,2.8,2.8c0,1.5-1.3,2.8-2.8,2.8c-1.5,0-2.8-1.3-2.8-2.8
	C32.5,85.2,33.7,83.9,35.3,83.9z"/>
<path class="st10" d="M82.1,79c1.5,0,2.8,1.3,2.8,2.8c0,1.5-1.3,2.8-2.8,2.8c-1.5,0-2.8-1.3-2.8-2.8C79.3,80.2,80.6,79,82.1,79
	C82.1,79,82.1,79,82.1,79z"/>
<path class="st2" d="M132.4,15.2c2.2,0,4,1.8,4,4s-1.8,4-4,4s-4-1.8-4-4S130.2,15.2,132.4,15.2z"/>
<path class="st5" d="M132.4,15.2c2.2,0,4,1.8,4,4s-1.8,4-4,4s-4-1.8-4-4S130.2,15.2,132.4,15.2z"/>
<path class="st2" d="M160,69.5c1.6,0,2.8,1.3,2.8,2.8s-1.3,2.8-2.8,2.8c-1.6,0-2.8-1.3-2.8-2.8c0,0,0,0,0,0
	C157.2,70.8,158.4,69.5,160,69.5z"/>
<path class="st5" d="M160,69.5c1.6,0,2.8,1.3,2.8,2.8s-1.3,2.8-2.8,2.8c-1.6,0-2.8-1.3-2.8-2.8c0,0,0,0,0,0
	C157.2,70.8,158.4,69.5,160,69.5z"/>
<path class="st2" d="M265,59.3c2.1,0,3.8,1.7,3.8,3.8s-1.7,3.8-3.8,3.8s-3.8-1.7-3.8-3.8S262.9,59.3,265,59.3L265,59.3z"/>
<path class="st5" d="M265,59.3c2.1,0,3.8,1.7,3.8,3.8s-1.7,3.8-3.8,3.8s-3.8-1.7-3.8-3.8S262.9,59.3,265,59.3L265,59.3z"/>
<path class="st2" d="M250.1,122.2c1.6,0,2.9,1.3,2.9,2.9c0,1.6-1.3,2.9-2.9,2.9c-1.6,0-2.9-1.3-2.9-2.9c0,0,0,0,0,0
	C247.3,123.5,248.6,122.2,250.1,122.2z"/>
<path class="st5" d="M250.1,122.2c1.6,0,2.9,1.3,2.9,2.9c0,1.6-1.3,2.9-2.9,2.9c-1.6,0-2.9-1.3-2.9-2.9c0,0,0,0,0,0
	C247.3,123.5,248.6,122.2,250.1,122.2z"/>
<path class="st2" d="M179.8,171.4c1.3,0,2.4,1.1,2.4,2.4s-1.1,2.4-2.4,2.4c-1.3,0-2.4-1.1-2.4-2.4c0,0,0,0,0,0
	C177.3,172.5,178.4,171.4,179.8,171.4z"/>
<path class="st5" d="M179.8,171.4c1.3,0,2.4,1.1,2.4,2.4s-1.1,2.4-2.4,2.4c-1.3,0-2.4-1.1-2.4-2.4c0,0,0,0,0,0
	C177.3,172.5,178.4,171.4,179.8,171.4z"/>
<path class="st2" d="M224.1,150.9c1.7,0,3.2,1.4,3.2,3.2c0,1.7-1.4,3.2-3.2,3.2c-1.7,0-3.2-1.4-3.2-3.2c0,0,0,0,0,0
	C220.9,152.3,222.3,150.9,224.1,150.9z"/>
<path class="st5" d="M224.1,150.9c1.7,0,3.2,1.4,3.2,3.2c0,1.7-1.4,3.2-3.2,3.2c-1.7,0-3.2-1.4-3.2-3.2c0,0,0,0,0,0
	C220.9,152.3,222.3,150.9,224.1,150.9z"/>
<path class="st2" d="M101.4,98c1,0,1.9,0.8,1.9,1.9c0,1-0.8,1.9-1.9,1.9c-1,0-1.9-0.8-1.9-1.9c0,0,0,0,0,0
	C99.6,98.8,100.4,98,101.4,98z"/>
<path class="st5" d="M101.4,98c1,0,1.9,0.8,1.9,1.9c0,1-0.8,1.9-1.9,1.9c-1,0-1.9-0.8-1.9-1.9c0,0,0,0,0,0
	C99.6,98.8,100.4,98,101.4,98z"/>
<path class="st2" d="M165.7,126.2c1,0,1.9,0.8,1.9,1.9c0,1-0.8,1.9-1.9,1.9c-1,0-1.9-0.8-1.9-1.9
	C163.8,127.1,164.6,126.2,165.7,126.2C165.7,126.2,165.7,126.2,165.7,126.2z"/>
<path class="st5" d="M165.7,126.2c1,0,1.9,0.8,1.9,1.9c0,1-0.8,1.9-1.9,1.9c-1,0-1.9-0.8-1.9-1.9
	C163.8,127.1,164.6,126.2,165.7,126.2C165.7,126.2,165.7,126.2,165.7,126.2z"/>
<path class="st2" d="M102,154.5c1,0,1.9,0.8,1.9,1.9c0,1-0.8,1.9-1.9,1.9c-1,0-1.9-0.8-1.9-1.9S101,154.5,102,154.5L102,154.5z"/>
<path class="st5" d="M102,154.5c1,0,1.9,0.8,1.9,1.9c0,1-0.8,1.9-1.9,1.9c-1,0-1.9-0.8-1.9-1.9S101,154.5,102,154.5L102,154.5z"/>
<path class="st2" d="M237.3,187c2.4,0,4.3,1.9,4.3,4.3s-1.9,4.3-4.3,4.3c-2.4,0-4.3-1.9-4.3-4.3c0,0,0,0,0,0
	C233.1,188.9,235,187,237.3,187z"/>
<path class="st5" d="M237.3,187c2.4,0,4.3,1.9,4.3,4.3s-1.9,4.3-4.3,4.3c-2.4,0-4.3-1.9-4.3-4.3c0,0,0,0,0,0
	C233.1,188.9,235,187,237.3,187z"/>
<path class="st2" d="M80,141.2c2.6,0,4.6,2.2,4.6,4.7s-2.2,4.6-4.7,4.6c-2.5,0-4.6-2.1-4.6-4.7C75.3,143.3,77.4,141.2,80,141.2z"/>
<path class="st5" d="M80,141.2c2.6,0,4.6,2.2,4.6,4.7s-2.2,4.6-4.7,4.6c-2.5,0-4.6-2.1-4.6-4.7C75.3,143.3,77.4,141.2,80,141.2z"/>
<path class="st1" d="M183.8,146.9l10.4,10.4"/>
<path class="st10" d="M197.2,156.4c2.6,0,4.6,2.1,4.6,4.7c0,2.6-2.1,4.6-4.7,4.6c-2.6,0-4.6-2.1-4.6-4.6
	C192.6,158.5,194.7,156.4,197.2,156.4C197.2,156.4,197.2,156.4,197.2,156.4z"/>
<path class="st16" d="M230.3,122.8c1.9,0,3.5,1.6,3.5,3.5c0,1.9-1.6,3.5-3.5,3.5c-1.9,0-3.5-1.6-3.5-3.5
	C226.8,124.3,228.4,122.8,230.3,122.8z"/>
<path class="st16" d="M237.6,58.8c2.7,0,4.9,2.3,4.8,5c0,2.7-2.3,4.9-5,4.8c-2.7,0-4.8-2.2-4.8-4.9C232.7,61,234.9,58.8,237.6,58.8z
	"/>
<path class="st1" d="M243.8,158.2c3.4,0,6.2,2.9,6.2,6.3c0,3.4-2.9,6.2-6.3,6.2c-3.4,0-6.2-2.8-6.2-6.2
	C237.5,161,240.3,158.2,243.8,158.2C243.7,158.2,243.7,158.2,243.8,158.2z"/>
<path class="st17" d="M264.5,95.3c3,0,5.4,2.5,5.4,5.5c0,3-2.5,5.4-5.5,5.4c-3,0-5.4-2.5-5.4-5.4C259.1,97.7,261.5,95.3,264.5,95.3z
	"/>
<path class="st2" d="M187.4,27.8c1.1,0,1.9,0.9,1.9,1.9c0,1.1-0.9,1.9-1.9,1.9c-1.1,0-1.9-0.9-1.9-1.9
	C185.5,28.7,186.3,27.8,187.4,27.8L187.4,27.8z"/>
<path class="st5" d="M187.4,27.8c1.1,0,1.9,0.9,1.9,1.9c0,1.1-0.9,1.9-1.9,1.9c-1.1,0-1.9-0.9-1.9-1.9
	C185.5,28.7,186.3,27.8,187.4,27.8L187.4,27.8z"/>
<path class="st2" d="M212.8,79.7c1.1,0,2,0.9,2,1.9s-0.9,2-1.9,2c-1.1,0-1.9-0.8-2-1.9C210.8,80.6,211.7,79.7,212.8,79.7z"/>
<path class="st5" d="M212.8,79.7c1.1,0,2,0.9,2,1.9s-0.9,2-1.9,2c-1.1,0-1.9-0.8-2-1.9C210.8,80.6,211.7,79.7,212.8,79.7z"/>
<path class="st4" d="M84.9,82.1h9.9l8.5-7.9V60.8"/>
<path class="st14" d="M120.5,100h-16.6"/>
<path class="st2" d="M45.2,103.9c2.8-0.1,5.2,2.1,5.3,4.9c0.1,2.8-2.1,5.2-4.9,5.3c-2.8,0.1-5.2-2.1-5.3-4.9c0-0.1,0-0.1,0-0.2
	C40.2,106.2,42.4,104,45.2,103.9C45.2,103.9,45.2,103.9,45.2,103.9z"/>
<path class="st5" d="M45.2,103.9c2.8-0.1,5.2,2.1,5.3,4.9c0.1,2.8-2.1,5.2-4.9,5.3c-2.8,0.1-5.2-2.1-5.3-4.9c0-0.1,0-0.1,0-0.2
	C40.2,106.2,42.4,104,45.2,103.9C45.2,103.9,45.2,103.9,45.2,103.9z"/>
<path class="st2" d="M5.7,139.1c2.8,0.1,5,2.5,4.9,5.3c-0.1,2.6-2.2,4.7-4.9,4.9c-2.8-0.1-5-2.5-4.9-5.3
	C0.9,141.4,3,139.3,5.7,139.1z"/>
<path class="st5" d="M5.7,139.1c2.8,0.1,5,2.5,4.9,5.3c-0.1,2.6-2.2,4.7-4.9,4.9c-2.8-0.1-5-2.5-4.9-5.3
	C0.9,141.4,3,139.3,5.7,139.1z"/>
<path class="st2" d="M103.2,55.1c1.4,0,2.5,1.1,2.5,2.5c0,1.4-1.1,2.5-2.5,2.5c-1.4,0-2.5-1.1-2.5-2.5l0,0
	C100.7,56.2,101.8,55.1,103.2,55.1z"/>
<path class="st5" d="M103.2,55.1c1.4,0,2.5,1.1,2.5,2.5c0,1.4-1.1,2.5-2.5,2.5c-1.4,0-2.5-1.1-2.5-2.5l0,0
	C100.7,56.2,101.8,55.1,103.2,55.1z"/>
<path class="st14" d="M241.8,115l8.1,8.1"/>
<path class="st18" d="M128.3,290.8c0-2.8-0.2-4.5-0.6-5.4c-0.2-0.5-0.4-0.9-0.7-1.3c-1.8-2.6-4.9-4.1-8.1-4h-6.3v-10.2h-9.9V307h9.9
	v-20h2.8c2,0,3,1.1,3,3.2V307h10L128.3,290.8z"/>
<rect x="127" y="280.1" class="st18" width="5.3" height="6.9"/>
<path class="st18" d="M142.4,298.7c-0.2-0.1-0.2-1.1-0.2-2.8V287h5.6v-6.9h-5.6v-7.8h-9.9v7.8h-4.2v6.9h4.2v11.5
	c0,1.6,0.5,3.2,1.5,4.5c1.9,2.6,4.9,4.1,8.2,4h5.8v-7.6h-3.1c-0.7,0.1-1.3-0.1-1.9-0.4L142.4,298.7L142.4,298.7z"/>
<path class="st18" d="M157.8,295.9l-3.5-15.8h-10.5l8.6,26.9H163l8.6-26.9h-10.4L157.8,295.9z"/>
<path class="st2" d="M164.8,251.8c0,0.1,0,0.1,0,0.2c0,0.1-0.1,0.1-0.1,0.1c-0.1,0-0.1,0-0.2,0c-0.1,0-0.1,0-0.2,0
	c-0.1,0-0.1-0.1-0.1-0.1c-0.1-0.1-0.1-0.3,0-0.4c0-0.1,0.1-0.1,0.1-0.1c0.1,0,0.1,0,0.2-0.1c0.1,0,0.1,0,0.2,0.1
	c0.1,0,0.1,0.1,0.1,0.1C164.8,251.7,164.8,251.7,164.8,251.8z M164.8,251.8c0-0.1,0-0.1,0-0.2c0,0-0.1-0.1-0.1-0.1
	c0,0-0.1,0-0.2-0.1c-0.1,0-0.1,0-0.2,0.1c-0.1,0-0.1,0.1-0.1,0.1c0,0.1,0,0.1,0,0.2c0,0.1,0,0.1,0,0.2c0,0,0.1,0.1,0.1,0.1
	c0,0,0.1,0,0.2,0.1c0.1,0,0.1,0,0.2-0.1c0,0,0.1-0.1,0.1-0.1C164.8,251.9,164.8,251.8,164.8,251.8z M164.4,251.9L164.4,251.9
	c0,0.1-0.1,0-0.1,0c0,0,0-0.1,0-0.1c0-0.1,0-0.1,0.1-0.1c0,0,0.1-0.1,0.2-0.1c0,0,0.1,0,0.1,0c0,0,0.1,0,0.1,0.1c0,0,0,0.1,0,0.1
	c0,0,0,0.1,0,0.1c0,0-0.1,0.1-0.1,0.1v-0.1l0,0c0,0,0,0,0-0.1c0,0,0-0.1,0-0.1c0,0-0.1,0-0.1,0c0,0-0.1,0-0.1,0
	C164.3,251.7,164.3,251.8,164.4,251.9C164.4,251.8,164.4,251.9,164.4,251.9C164.4,251.9,164.4,251.9,164.4,251.9L164.4,251.9z"/>
<path class="st2" d="M164.1,252.4l0.7,0.3v0.1l-0.7,0.3V253l0.2-0.1v-0.3l-0.2-0.1V252.4z M164.4,252.6v0.3l0.2-0.1l0.2-0.1h-0.1
	L164.4,252.6z"/>
<path class="st2" d="M164.1,253.1h0.5v0.1h-0.1l0.1,0.1c0,0,0,0.1,0,0.1c0,0,0,0.1,0,0.1c0,0,0,0-0.1,0c0.1,0,0.1,0.1,0.1,0.2
	c0,0,0,0.1,0,0.1c0,0-0.1,0-0.1,0h-0.4v-0.1h0.4l0,0l0,0c0,0,0-0.1,0-0.1c0,0-0.1,0-0.1,0h-0.3v-0.1h0.3c0,0,0.1,0,0.1,0
	c0,0,0,0,0-0.1c0,0,0,0,0-0.1c0,0,0,0,0-0.1h-0.4L164.1,253.1L164.1,253.1z"/>
<path class="st2" d="M164.8,254h0.1v0.1L164.8,254L164.8,254z M164.1,254h0.5v0.1L164.1,254L164.1,254z"/>
<path class="st2" d="M164.1,254.2h0.5v0.1h-0.1l0.1,0.1c0,0,0,0,0,0.1c0,0,0,0.1,0,0.1h-0.1c0,0,0,0,0-0.1v0c0,0,0,0-0.1,0h-0.1
	h-0.3L164.1,254.2L164.1,254.2z"/>
<path class="st2" d="M164.1,254.9L164.1,254.9c0,0,0-0.1,0-0.2c0,0,0-0.1,0-0.1c0,0,0,0,0.1-0.1s0,0,0.1,0h0.4v0.1h-0.4
	c0,0,0,0-0.1,0c0,0,0,0,0,0.1C164.1,254.8,164.1,254.8,164.1,254.9l0.1,0h0.1h0.3v0.1L164.1,254.9L164.1,254.9L164.1,254.9z"/>
<path class="st2" d="M164.1,255.4L164.1,255.4C164.1,255.3,164.1,255.3,164.1,255.4c-0.1-0.1-0.1-0.1-0.1-0.1l0,0c0,0,0.1,0,0.1,0
	h0.3v-0.1h0.1v0.1h0.2l0.1,0.1h-0.2v0.1h-0.1v-0.1L164.1,255.4L164.1,255.4L164.1,255.4z"/>
<path class="st2" d="M164.1,255.4h0.7v0.1h-0.3c0.1,0.1,0.1,0.2,0.1,0.3l-0.1,0.1h-0.1h-0.3v-0.1h0.3c0,0,0.1,0,0.1,0
	c0,0,0-0.1,0-0.1c0,0,0,0,0-0.1c0,0,0,0-0.1,0h-0.1h-0.3L164.1,255.4L164.1,255.4z"/>
<path class="st2" d="M164.1,256.4C164.1,256.3,164.1,256.3,164.1,256.4c-0.1-0.1-0.1-0.2-0.1-0.2c0,0,0-0.1,0-0.1c0,0,0.1,0,0.1,0
	h0.1l0.1,0c0,0,0,0,0,0.1c0,0,0,0,0,0.1c0,0.1,0,0.1,0,0.2l0,0c0,0,0.1,0,0.1,0c0,0,0-0.1,0-0.1c0,0,0-0.1,0-0.1h-0.1V256
	c0,0,0.1,0,0.1,0c0,0,0,0,0.1,0.1c0,0,0,0.1,0,0.1c0,0,0,0.1,0,0.1c0,0,0,0,0,0.1h-0.1H164H164v-0.1L164.1,256.4L164.1,256.4z
	 M164.3,256.4c0,0,0-0.1,0-0.1c0,0,0-0.1,0-0.1l0,0l0,0h-0.1c0,0,0,0.1,0,0.1C164.3,256.2,164.3,256.3,164.3,256.4
	C164.3,256.3,164.3,256.3,164.3,256.4L164.3,256.4L164.3,256.4z"/>
<path class="st2" d="M164.3,256.8L164.3,256.8L164.3,256.8c-0.1,0.1-0.1,0.1-0.1,0.2c0,0,0,0.1,0,0.1c0,0,0,0.1,0,0.1
	c0,0,0,0,0.1,0.1c0,0,0.1,0,0.1,0c0,0,0,0,0-0.1c0,0,0-0.1,0-0.1L164.3,256.8l0.1,0h0.1c0,0,0.1,0,0.1,0c0,0,0.1,0.1,0.1,0.1
	c0,0.1,0,0.2,0,0.3c0,0,0,0.1-0.1,0.1c0,0-0.1,0-0.1,0v-0.1c0,0,0.1,0,0.1,0c0-0.1,0-0.2,0-0.3c0,0-0.1,0-0.1,0c0,0,0,0-0.1,0
	c0,0-0.1,0.1-0.1,0.1c0,0.1,0,0.1,0,0.2c0,0,0,0.1-0.1,0.1c0,0-0.1,0-0.1,0c0,0-0.1,0-0.1,0c0,0-0.1,0-0.1-0.1c0,0,0-0.1,0-0.1
	c0-0.1,0-0.1,0-0.2c0,0,0-0.1,0.1-0.1C164.2,256.9,164.2,256.9,164.3,256.8L164.3,256.8z"/>
<path class="st2" d="M164.1,257.9c0,0,0-0.1-0.1-0.1c0,0,0-0.1,0-0.1c0,0,0-0.1,0-0.1c0,0,0.1,0,0.1,0h0.1l0.1,0c0,0,0,0,0,0.1
	c0,0,0,0,0,0.1c0,0.1,0,0.1,0,0.2l0,0c0,0,0.1,0,0.1,0c0,0,0-0.1,0-0.1c0,0,0-0.1,0-0.1c0,0,0,0-0.1,0v-0.1c0,0,0.1,0,0.1,0
	c0,0,0,0,0.1,0.1c0,0,0,0.1,0,0.1c0,0,0,0.1,0,0.1c0,0,0,0,0,0.1h-0.1H164H164v-0.1L164.1,257.9z M164.3,257.9c0,0,0-0.1,0-0.1
	c0,0,0-0.1,0-0.1l0,0l0,0c0,0,0,0-0.1,0c0,0,0,0.1,0,0.1C164.3,257.8,164.3,257.8,164.3,257.9C164.3,257.9,164.3,257.9,164.3,257.9
	c0,0,0.1,0,0.1,0H164.3z"/>
<path class="st2" d="M164.2,258.1L164.2,258.1L164.2,258.1c-0.1,0.1-0.1,0.2-0.1,0.2c0,0,0,0.1,0,0.1c0,0,0,0,0.1,0h0.1
	c0,0,0-0.1,0-0.1C164.3,258.2,164.3,258.2,164.2,258.1C164.3,258.1,164.3,258.1,164.2,258.1c0.1,0,0.1,0,0.1,0h0.1c0,0,0,0,0.1,0
	c0,0,0,0,0,0.1c0,0,0,0,0,0.1c0,0,0,0.1,0,0.1c0,0,0,0.1,0,0.1h-0.1v-0.1h0.1c0,0,0-0.1,0-0.1c0,0,0-0.1,0-0.1c0,0,0,0-0.1,0l0,0
	l0,0c0,0,0,0,0,0.1c0,0,0,0.1,0,0.1c0,0,0,0,0,0.1c0,0,0,0-0.1,0h-0.1c0,0-0.1,0-0.1-0.1c0,0,0-0.1,0-0.1
	C164.2,258.2,164.2,258.2,164.2,258.1C164.2,258.1,164.3,258,164.2,258.1L164.2,258.1z"/>
<path class="st2" d="M164.8,258.6h0.1v0.1L164.8,258.6L164.8,258.6z M164.1,258.6h0.5v0.1L164.1,258.6L164.1,258.6z"/>
<path class="st2" d="M164.1,258.9h0.7v0.1h-0.3c0,0,0.1,0.1,0.1,0.2c0,0,0,0.1,0,0.1c0,0,0,0.1-0.1,0.1h-0.1h-0.3v-0.1h0.3
	c0,0,0.1,0,0.1,0c0,0,0-0.1,0-0.1c0,0,0,0,0-0.1c0,0,0,0-0.1,0h-0.1h-0.3L164.1,258.9L164.1,258.9z"/>
<path class="st2" d="M164.1,259.8c0,0,0-0.1-0.1-0.1c0,0,0-0.1,0-0.1c0,0,0-0.1,0-0.1c0,0,0.1,0,0.1,0h0.1l0.1,0c0,0,0,0,0,0.1
	c0,0,0,0,0,0.1c0,0.1,0,0.1,0,0.2l0,0c0,0,0.1,0,0.1,0c0,0,0-0.1,0-0.1c0,0,0-0.1,0-0.1h-0.1v-0.1c0,0,0.1,0,0.1,0c0,0,0,0,0.1,0.1
	c0,0,0,0.1,0,0.1c0,0,0,0.1,0,0.1c0,0,0,0,0,0.1h-0.1L164.1,259.8l-0.2,0v-0.1L164.1,259.8L164.1,259.8z M164.3,259.8
	c0,0,0-0.1,0-0.1c0,0,0-0.1,0-0.1l0,0l0,0h-0.1c0,0,0,0.1,0,0.1C164.3,259.7,164.3,259.7,164.3,259.8
	C164.3,259.8,164.3,259.8,164.3,259.8l0.1,0L164.3,259.8z"/>
<path class="st2" d="M164.1,260h0.5v0.1h-0.1c0,0,0.1,0,0.1,0c0,0,0,0,0,0.1c0,0,0,0.1,0,0.1h-0.1c0,0,0-0.1,0-0.1h-0.1h-0.1h-0.3
	L164.1,260L164.1,260z"/>
<path class="st2" d="M164.1,260.7c0,0,0-0.1-0.1-0.1c0,0,0-0.1,0-0.1c0,0,0-0.1,0-0.1c0,0,0.1,0,0.1,0h0.1l0.1,0c0,0,0,0,0,0.1
	c0,0,0,0,0,0.1c0,0.1,0,0.1,0,0.2l0,0c0,0,0.1,0,0.1,0c0,0,0-0.1,0-0.1c0,0,0-0.1,0-0.1h-0.1v-0.1c0,0,0.1,0,0.1,0c0,0,0,0,0.1,0.1
	c0,0,0,0.1,0,0.1c0,0,0,0.1,0,0.1c0,0,0,0,0,0.1h-0.1h-0.4H164v-0.1L164.1,260.7z M164.3,260.7c0,0,0-0.1,0-0.1c0,0,0-0.1,0-0.1l0,0
	l0,0c0,0,0,0-0.1,0c0,0,0,0.1,0,0.1C164.3,260.6,164.3,260.6,164.3,260.7C164.3,260.7,164.3,260.7,164.3,260.7h0.1H164.3z"/>
<path class="st2" d="M164.1,260.9h0.5v0.1h-0.1c0.1,0,0.1,0.1,0.1,0.2c0,0,0,0.1,0,0.1c0,0,0,0,0,0.1h-0.1h-0.4v-0.1h0.4l0,0
	c0,0,0,0,0-0.1c0,0,0-0.1,0-0.1c0,0-0.1,0-0.1,0h-0.3L164.1,260.9L164.1,260.9z"/>
<path class="st2" d="M164.2,262.2L164.2,262.2l-0.1-0.5h0.1l0.1,0.1l0.1,0.1c0,0.1,0.1,0.1,0.2,0.2c0,0,0.1,0,0.1,0c0,0,0.1,0,0.1,0
	c0.1-0.1,0.1-0.1,0-0.2c0,0,0,0,0,0c0,0-0.1,0-0.1,0v-0.1c0.1,0,0.1,0,0.2,0.1c0,0,0.1,0.1,0.1,0.2c0,0.1,0,0.1-0.1,0.2
	c0,0-0.1,0.1-0.1,0.1h-0.1l-0.1-0.1l-0.1-0.1l-0.1-0.1c0,0,0,0-0.1,0L164.2,262.2L164.2,262.2z"/>
<path class="st2" d="M164.4,262.3c0.1,0,0.1,0,0.2,0c0,0,0.1,0,0.1,0.1c0,0,0,0.1,0,0.1c0,0,0,0.1,0,0.1c0,0,0,0.1-0.1,0.1h-0.1
	c-0.1,0-0.1,0-0.2,0h-0.2c0,0-0.1,0-0.1-0.1c0,0,0-0.1,0-0.1c0-0.1,0-0.1,0.1-0.2C164.2,262.3,164.3,262.2,164.4,262.3L164.4,262.3z
	 M164.4,262.4c-0.1,0-0.2,0-0.2,0c0,0-0.1,0.1-0.1,0.1c0,0,0,0.1,0.1,0.1c0.1,0,0.2,0,0.2,0c0.1,0,0.2,0,0.3,0c0,0,0.1-0.1,0.1-0.1
	c0,0,0-0.1-0.1-0.1C164.6,262.4,164.5,262.4,164.4,262.4z"/>
<path class="st2" d="M164.1,263.2L164.1,263.2l0.6-0.1l-0.1-0.1l-0.1-0.1h0.1c0,0,0,0.1,0.1,0.1l0.1,0.1v0H164.1z"/>
<path class="st2" d="M164.6,263.9L164.6,263.9C164.7,263.9,164.7,263.9,164.6,263.9c0.1-0.1,0.1-0.2,0.1-0.2c0,0,0-0.1,0-0.1
	c0,0-0.1,0-0.1-0.1c-0.1,0-0.1,0-0.2,0c0,0,0.1,0,0.1,0.1c0,0,0,0.1,0,0.1c0,0.1,0,0.1-0.1,0.1c0,0-0.1,0.1-0.2,0.1c0,0-0.1,0-0.1,0
	c0,0-0.1,0-0.1-0.1c0,0,0-0.1,0-0.1c0-0.1,0-0.1,0.1-0.2c0.1-0.1,0.2-0.1,0.3-0.1c0.1,0,0.2,0,0.3,0.1c0.1,0,0.1,0.1,0.1,0.2
	c0,0.1,0,0.1-0.1,0.1C164.7,264,164.7,264,164.6,263.9L164.6,263.9z M164.3,263.6L164.3,263.6c-0.1,0-0.1,0-0.1,0c0,0,0,0.1,0,0.1
	c0,0,0,0.1,0.1,0.1c0,0,0.1,0.1,0.1,0c0,0,0.1,0,0.1,0c0,0,0-0.1,0-0.1c0,0,0-0.1,0-0.1C164.4,263.5,164.4,263.5,164.3,263.6
	L164.3,263.6z"/>
</svg>
