<?xml version="1.0" standalone="no"?>
<!DOCTYPE svg PUBLIC "-//W3C//DTD SVG 20010904//EN"
 "http://www.w3.org/TR/2001/REC-SVG-20010904/DTD/svg10.dtd">
<svg version="1.0" xmlns="http://www.w3.org/2000/svg"
 width="700.000000pt" height="700.000000pt" viewBox="0 0 700.000000 700.000000"
 preserveAspectRatio="xMidYMid meet">
<metadata>
Created by potrace 1.11, written by Peter Selinger 2001-2013
</metadata>
<g transform="translate(0.000000,700.000000) scale(0.100000,-0.100000)"
fill="#000000" stroke="none">
<path d="M62 6592 l-62 -3 2 -3091 3 -3091 895 1 c492 0 905 1 916 1 l21 1 0
1022 c0 1121 5 1018 -52 1143 -8 16 -77 174 -155 350 -78 176 -150 338 -160
360 -11 22 -191 426 -400 899 -210 472 -389 877 -400 900 -10 22 -118 266
-240 541 -121 275 -229 518 -239 540 -10 22 -35 75 -55 118 -20 43 -36 83 -36
90 1 11 51 -89 282 -563 125 -255 277 -565 423 -865 62 -126 160 -327 217
-445 58 -118 156 -318 218 -445 181 -370 325 -665 435 -890 56 -115 162 -331
235 -480 73 -148 168 -344 212 -435 75 -153 242 -494 395 -807 l65 -133 919 0
919 0 104 213 c57 116 142 293 190 392 48 99 91 188 96 198 6 9 14 25 20 35 5
9 50 100 99 202 49 102 142 293 206 425 65 132 167 341 227 465 61 124 154
315 208 425 193 395 314 643 405 830 51 105 155 316 230 470 76 154 168 343
205 420 37 77 137 282 222 455 85 173 183 375 218 447 35 73 65 131 67 129 2
-2 -7 -28 -21 -57 -14 -30 -116 -259 -226 -509 -111 -250 -210 -473 -220 -495
-37 -82 -145 -325 -202 -455 -33 -74 -73 -163 -89 -198 -16 -35 -29 -66 -29
-68 0 -3 -13 -33 -29 -67 -17 -34 -75 -165 -131 -292 -56 -126 -107 -243 -115
-260 -7 -16 -27 -59 -43 -95 -16 -36 -60 -135 -97 -220 -37 -85 -85 -192 -106
-238 -22 -46 -39 -85 -39 -87 0 -3 -14 -35 -31 -72 -17 -38 -64 -142 -104
-233 -79 -179 -115 -260 -147 -330 -11 -25 -36 -81 -55 -125 -20 -44 -43 -98
-53 -120 -16 -37 -17 -110 -17 -1065 l0 -1025 896 2 c493 1 906 2 919 2 l22 1
0 3090 0 3090 -67 1 c-38 0 -451 1 -919 2 l-851 2 -61 -125 c-111 -227 -343
-702 -427 -875 -45 -93 -140 -287 -210 -430 -184 -375 -335 -684 -435 -890
-98 -201 -247 -506 -413 -845 -144 -296 -311 -638 -432 -885 -54 -110 -161
-330 -239 -490 -78 -159 -175 -358 -216 -442 -41 -84 -75 -151 -77 -150 -2 3
224 521 267 612 5 11 107 241 225 510 119 270 236 535 261 589 24 55 44 104
44 109 0 5 -32 76 -71 156 -40 80 -125 254 -189 386 -65 132 -166 339 -225
460 -215 440 -468 957 -630 1290 -51 105 -150 307 -220 450 -70 143 -161 329
-201 413 -52 106 -80 152 -92 153 -66 2 -1710 3 -1760 1z m22 -169 c9 -18 14
-33 12 -33 -6 0 -36 55 -36 66 0 11 5 3 24 -33z m6847 14 c-10 -9 -11 -8 -5 6
3 10 9 15 12 12 3 -3 0 -11 -7 -18z"/>
</g>
</svg>
