<?xml version="1.0" standalone="no"?>
<!DOCTYPE svg PUBLIC "-//W3C//DTD SVG 20010904//EN"
 "http://www.w3.org/TR/2001/REC-SVG-20010904/DTD/svg10.dtd">
<svg version="1.0" xmlns="http://www.w3.org/2000/svg"
 width="1450.000000pt" height="1450.000000pt" viewBox="0 0 1450.000000 1450.000000"
 preserveAspectRatio="xMidYMid meet">
<metadata>
Created by potrace 1.11, written by Peter Selinger 2001-2013
</metadata>
<g transform="translate(0.000000,1450.000000) scale(0.100000,-0.100000)"
fill="#000000" stroke="none">
<path d="M1736 10673 c-3 -10 -7 -29 -10 -43 -3 -14 -14 -58 -25 -97 -10 -40
-17 -73 -14 -73 3 0 0 -7 -7 -15 -7 -8 -10 -15 -7 -15 3 0 -1 -24 -9 -52 -8
-29 -16 -65 -19 -80 -3 -15 -9 -37 -14 -50 -5 -13 -9 -26 -10 -30 0 -5 -1 -9
-2 -10 0 -2 -2 -14 -5 -26 -2 -13 -18 -78 -35 -145 -17 -67 -32 -129 -34 -137
-2 -8 -8 -35 -15 -60 -7 -25 -13 -52 -15 -60 -2 -8 -8 -33 -13 -55 -6 -22 -13
-51 -16 -65 -2 -14 -14 -61 -26 -105 -12 -44 -24 -91 -26 -105 -3 -14 -14 -61
-25 -105 -12 -44 -22 -87 -24 -95 -2 -8 -9 -35 -16 -60 -7 -25 -14 -52 -15
-61 -2 -9 -29 -117 -60 -240 -30 -123 -57 -233 -60 -244 -2 -11 -15 -65 -29
-120 -14 -55 -28 -110 -31 -122 -6 -29 -162 -660 -170 -688 -2 -5 -5 -19 -7
-30 -3 -11 -10 -38 -15 -60 -6 -22 -14 -53 -17 -70 -8 -39 -13 -60 -15 -60 -1
0 -4 -11 -7 -25 -2 -14 -6 -29 -7 -35 -2 -5 -6 -23 -10 -40 -4 -16 -10 -37
-13 -45 -3 -8 -7 -24 -8 -35 -2 -11 -22 -94 -45 -185 -23 -91 -44 -173 -46
-182 -2 -10 -6 -27 -9 -38 -3 -11 -7 -29 -10 -40 -3 -11 -7 -29 -10 -40 -3
-11 -7 -28 -9 -37 -8 -33 -27 -108 -31 -125 -3 -10 -7 -26 -9 -35 -20 -87
-130 -529 -141 -568 -8 -27 -20 -72 -25 -100 -6 -27 -15 -66 -20 -85 -4 -19
-10 -44 -13 -55 -3 -11 -24 -96 -47 -190 -23 -93 -43 -174 -44 -180 -1 -5 -5
-16 -9 -22 -5 -7 -6 -13 -3 -13 2 0 0 -15 -5 -32 -11 -37 -10 -32 -37 -148
-11 -47 -30 -123 -42 -170 -21 -83 -26 -102 -34 -137 -2 -10 -21 -83 -41 -163
-20 -80 -38 -156 -41 -170 -3 -14 -12 -50 -21 -80 -9 -30 -17 -62 -18 -70 -1
-8 -23 -100 -49 -205 -26 -104 -50 -201 -52 -215 -3 -14 -7 -32 -11 -40 -3 -8
-7 -17 -8 -20 -2 -9 -15 -65 -20 -85 -2 -11 -7 -33 -10 -50 l-6 -30 798 2
c439 1 812 2 829 2 28 1 31 5 43 54 8 28 16 57 20 62 3 6 6 12 7 15 3 18 20
79 46 163 17 54 31 104 32 110 2 7 5 19 8 27 8 20 39 126 42 142 2 7 6 20 9
28 3 8 8 24 10 35 3 11 20 67 37 125 17 58 33 116 36 130 3 13 10 30 16 37 6
7 8 13 5 13 -3 0 -2 12 3 28 17 53 62 202 64 214 2 7 6 20 9 28 4 8 15 47 26
85 11 39 34 117 51 175 17 58 32 110 34 115 18 69 28 103 33 115 6 16 10 29
17 58 3 9 5 17 6 17 1 0 3 8 6 18 2 9 5 23 7 30 3 12 26 88 67 222 12 39 26
84 30 100 4 17 24 86 45 155 20 69 47 161 60 205 13 44 33 112 45 150 11 39
23 77 25 85 23 91 91 310 96 310 3 0 12 -26 19 -57 7 -32 17 -64 22 -70 6 -7
8 -13 5 -13 -4 0 0 -18 8 -40 8 -22 12 -40 10 -40 -3 0 0 -12 6 -27 6 -16 12
-35 14 -43 2 -8 22 -80 45 -160 22 -80 43 -153 45 -163 2 -10 7 -27 10 -37 3
-10 8 -27 10 -37 2 -10 27 -99 55 -198 28 -99 62 -223 76 -275 14 -52 32 -114
39 -137 8 -24 17 -57 20 -74 3 -18 10 -39 15 -49 5 -9 11 -28 14 -41 2 -13 23
-91 46 -174 48 -173 70 -254 75 -275 2 -8 18 -64 35 -125 17 -60 33 -117 35
-125 2 -8 17 -62 33 -120 31 -109 45 -165 42 -165 -1 0 5 -18 14 -40 9 -22 17
-49 19 -60 2 -11 7 -27 10 -35 6 -16 19 -66 24 -90 1 -8 14 -55 28 -105 28
-95 56 -193 60 -210 13 -57 18 -65 44 -66 172 -3 1643 0 1647 4 5 5 32 102 64
227 5 19 28 103 50 185 23 83 43 157 45 165 6 27 56 225 59 235 2 6 4 13 5 17
1 4 9 29 17 55 9 27 17 55 18 63 2 18 56 219 63 240 3 8 7 22 8 30 2 8 6 24 9
35 8 31 47 178 52 195 2 8 13 49 24 90 11 41 23 86 26 100 2 14 9 36 14 50 5
14 12 36 14 50 3 14 5 25 6 25 1 0 3 7 5 15 1 8 8 35 15 60 7 25 13 50 15 55
1 6 5 17 8 25 5 16 46 171 53 204 2 10 8 33 14 51 6 18 12 41 14 51 2 10 29
114 61 229 60 225 62 234 70 266 2 12 9 36 15 54 6 18 13 42 15 55 2 12 11 46
19 74 8 28 20 71 26 95 6 24 15 40 20 35 7 -7 31 -84 43 -139 2 -5 5 -15 9
-20 3 -6 9 -28 13 -50 5 -22 12 -51 18 -65 5 -14 12 -33 14 -43 3 -17 12 -47
64 -214 12 -38 22 -75 24 -83 2 -9 15 -56 30 -105 15 -48 29 -96 30 -104 2 -9
4 -17 5 -18 2 -2 3 -6 4 -10 5 -19 29 -100 36 -123 5 -14 18 -59 30 -100 12
-41 26 -86 30 -100 4 -14 16 -52 25 -85 9 -33 28 -95 41 -137 13 -42 25 -85
27 -95 2 -10 16 -58 31 -108 31 -102 79 -265 101 -340 8 -27 28 -95 45 -151
17 -55 32 -109 35 -120 2 -10 13 -48 25 -84 12 -36 24 -76 26 -90 3 -14 9 -36
14 -50 9 -24 87 -286 97 -325 3 -11 6 -24 8 -30 1 -5 3 -12 4 -15 0 -3 12 -41
27 -85 14 -44 27 -93 30 -110 3 -16 7 -32 9 -34 2 -2 361 -2 797 -1 436 0
1182 2 1658 3 l865 2 3 1238 2 1237 1155 0 c917 0 1155 -3 1156 -12 0 -7 1
-564 2 -1238 l2 -1225 983 0 982 -1 1 41 c0 54 0 6763 0 6795 l-1 25 -982 0
-983 0 -1 -1365 -1 -1365 -24 -1 c-14 0 -30 -3 -37 -8 -6 -4 -12 -3 -12 1 0
10 -102 9 -118 -1 -7 -4 -12 -4 -12 1 0 10 -163 8 -179 -1 -6 -4 -11 -3 -11 1
0 10 -102 9 -118 -1 -7 -4 -12 -4 -12 1 0 10 -163 8 -179 -1 -6 -4 -11 -3 -11
1 0 10 -102 9 -118 -1 -7 -4 -12 -4 -12 1 0 4 -49 8 -110 8 -60 0 -110 -4
-110 -8 0 -5 -5 -5 -11 -1 -7 4 -31 6 -55 5 -58 -2 -60 -2 -126 2 -32 1 -58
-1 -58 -6 0 -4 -6 -5 -12 -1 -17 11 -218 11 -218 1 0 -5 -5 -5 -11 -1 -15 9
-172 10 -187 0 -7 -4 -12 -4 -12 1 0 4 -61 8 -135 8 -74 0 -135 -4 -135 -8 0
-5 -5 -5 -11 -1 -7 4 -31 6 -55 5 -52 -2 -48 -2 -144 1 l-75 2 -5 1366 -5
1365 -890 1 c-489 0 -895 -1 -900 -3 -7 -2 -10 -1066 -10 -3283 0 -1804 -2
-3280 -5 -3280 -4 0 -104 383 -117 450 -2 8 -50 204 -108 435 -58 231 -107
429 -109 440 -1 11 -6 30 -10 42 -4 12 -8 30 -11 40 -2 10 -17 74 -35 143 -17
69 -33 132 -35 140 -2 8 -11 44 -20 80 -9 36 -18 79 -21 95 -4 17 -10 38 -15
48 -5 9 -8 17 -5 17 3 0 0 15 -5 33 -6 17 -12 43 -15 57 -3 14 -12 52 -21 85
-8 33 -16 67 -18 75 -2 8 -27 107 -55 220 -29 113 -53 212 -55 220 -2 8 -8 35
-15 60 -6 25 -13 54 -15 65 -2 11 -13 53 -24 93 -10 39 -17 72 -15 72 3 0 0 8
-5 18 -6 11 -12 30 -15 43 -11 55 -36 159 -54 229 -11 41 -27 109 -37 150 -9
41 -20 89 -25 105 -10 36 -24 92 -41 160 -6 28 -15 64 -20 80 -30 111 -57 223
-73 305 -2 8 -6 22 -9 30 -7 19 -20 70 -23 90 -1 8 -9 43 -19 77 -9 35 -18 71
-20 80 -2 10 -11 46 -20 80 -9 35 -18 71 -20 80 -2 10 -13 56 -25 103 -12 47
-24 92 -26 100 -2 8 -11 44 -19 80 -9 36 -18 72 -20 80 -2 8 -24 99 -50 201
-25 103 -48 195 -50 205 -2 11 -9 37 -15 59 -6 22 -12 47 -14 56 -3 9 -16 66
-31 125 -15 60 -29 120 -31 134 -3 14 -7 32 -10 40 -3 8 -30 114 -60 235 -30
121 -58 236 -64 255 -16 57 -68 275 -75 310 -1 8 -5 22 -8 30 -4 8 -9 26 -11
40 -10 50 -15 70 -21 80 -4 7 -297 10 -840 10 l-834 0 -11 -42 c-5 -24 -14
-56 -20 -73 -5 -16 -11 -41 -14 -55 -7 -41 -18 -84 -25 -95 -3 -5 -6 -14 -6
-20 -1 -16 -25 -117 -35 -145 -5 -14 -11 -36 -14 -50 -3 -20 -14 -61 -31 -120
-1 -3 -5 -23 -10 -45 -4 -22 -10 -44 -13 -50 -3 -5 -7 -16 -8 -25 -3 -20 -12
-55 -14 -55 -2 0 -10 -35 -13 -60 -2 -12 -6 -25 -9 -30 -3 -6 -9 -28 -13 -50
-4 -22 -11 -47 -15 -55 -5 -8 -11 -28 -14 -45 -14 -73 -18 -91 -23 -105 -3 -8
-7 -20 -8 -25 -10 -44 -67 -263 -72 -275 -3 -8 -7 -24 -9 -35 -7 -41 -10 -50
-17 -62 -5 -7 -6 -13 -3 -13 2 0 0 -15 -5 -32 -9 -31 -85 -320 -94 -361 -2
-10 -7 -27 -10 -37 -3 -10 -8 -27 -10 -37 -2 -10 -15 -61 -29 -113 -13 -52
-45 -176 -71 -275 -25 -99 -52 -201 -60 -227 -8 -27 -11 -48 -8 -48 3 0 0 -7
-7 -15 -7 -8 -10 -15 -6 -15 3 0 1 -12 -5 -27 -6 -16 -13 -39 -15 -53 -8 -40
-44 -183 -51 -200 -3 -8 -7 -23 -8 -32 -2 -10 -3 -21 -4 -25 -2 -10 -21 23
-26 45 -2 9 -12 44 -21 77 -9 33 -17 65 -19 70 -1 6 -5 17 -8 25 -4 8 -13 40
-21 70 -14 52 -81 283 -110 380 -7 25 -19 65 -26 90 -7 25 -15 52 -18 60 -3 8
-6 20 -7 25 -2 6 -19 66 -40 135 -20 69 -38 132 -40 140 -21 77 -34 120 -40
129 -3 6 -9 24 -11 39 -3 15 -18 70 -34 122 -16 52 -34 115 -41 140 -7 25 -13
47 -14 50 -1 3 -7 25 -14 50 -7 25 -12 45 -10 45 1 0 -3 9 -9 21 -6 11 -13 32
-16 45 -2 13 -23 87 -46 164 -23 77 -45 154 -47 170 -3 17 -9 35 -14 41 -5 6
-10 19 -12 30 -6 31 -18 76 -33 121 -7 23 -16 52 -19 65 -2 13 -32 115 -65
228 -34 113 -63 212 -65 220 -2 8 -18 62 -34 120 -17 58 -31 106 -31 107 0 2
-369 3 -819 3 -772 0 -820 -1 -825 -17z"/>
</g>
</svg>
