<?xml version="1.0" standalone="no"?>
<!DOCTYPE svg PUBLIC "-//W3C//DTD SVG 20010904//EN"
 "http://www.w3.org/TR/2001/REC-SVG-20010904/DTD/svg10.dtd">
<svg version="1.0" xmlns="http://www.w3.org/2000/svg"
 width="700.000000pt" height="700.000000pt" viewBox="0 0 700.000000 700.000000"
 preserveAspectRatio="xMidYMid meet">
<metadata>
Created by potrace 1.11, written by Peter Selinger 2001-2013
</metadata>
<g transform="translate(0.000000,700.000000) scale(0.100000,-0.100000)"
fill="#000000" stroke="none">
<path d="M637 6023 c-2 -5 -3 -1142 -3 -2528 l1 -2520 753 -3 752 -2 -2 847
-3 848 -27 55 c-14 30 -63 138 -108 240 -45 102 -92 208 -105 235 -12 28 -84
190 -160 360 -75 171 -145 328 -155 350 -10 22 -37 83 -60 135 -23 52 -50 113
-60 135 -69 154 -150 336 -150 339 0 2 -15 37 -34 78 -19 40 -107 237 -196
438 -88 201 -170 385 -182 410 -11 25 -38 86 -60 135 -46 104 -54 123 -102
229 -59 128 -35 97 34 -47 35 -72 129 -265 208 -427 152 -310 277 -567 447
-915 56 -115 158 -322 225 -460 67 -137 157 -322 200 -410 43 -88 142 -290
220 -450 78 -159 182 -371 230 -470 48 -99 153 -313 232 -475 79 -162 160
-328 179 -367 31 -66 37 -73 64 -73 38 -1 1386 -1 1440 -1 l41 1 54 113 c29
61 119 245 198 407 79 162 177 363 217 445 40 83 137 281 215 440 78 160 179
367 225 460 45 94 135 278 200 410 65 132 164 335 220 450 56 116 164 336 240
490 76 154 157 321 180 370 81 170 274 560 275 553 0 -9 -56 -137 -161 -366
-16 -35 -29 -65 -29 -67 0 -3 -11 -28 -24 -57 -13 -29 -50 -111 -81 -183 -31
-71 -72 -163 -91 -203 -19 -41 -34 -76 -34 -78 0 -2 -14 -34 -31 -71 -17 -38
-49 -108 -71 -158 -22 -49 -46 -103 -53 -120 -7 -16 -26 -57 -40 -90 -15 -33
-52 -116 -82 -185 -31 -69 -67 -150 -80 -180 -14 -30 -61 -136 -105 -235 -43
-99 -88 -199 -99 -223 -11 -23 -83 -185 -160 -360 -77 -174 -150 -339 -163
-367 -13 -27 -44 -98 -70 -156 l-46 -107 0 -836 0 -836 752 2 753 3 0 2508 c0
1380 -4 2511 -8 2514 -4 3 -3 11 4 19 10 12 -95 14 -745 14 l-757 0 -98 -202
c-54 -112 -149 -306 -211 -433 -113 -230 -241 -492 -437 -895 -100 -204 -177
-361 -403 -825 -54 -110 -149 -306 -212 -435 -64 -129 -163 -332 -221 -450
-57 -118 -164 -336 -237 -485 -73 -148 -148 -303 -167 -344 -19 -40 -36 -71
-39 -69 -2 3 2 18 10 34 8 16 33 72 56 124 41 94 59 134 106 238 13 29 24 55
24 57 0 2 13 33 29 67 15 35 54 122 86 193 31 72 67 153 80 180 12 28 37 84
55 125 18 41 45 103 61 138 16 35 29 65 29 67 0 2 17 41 39 87 21 46 41 93 45
104 5 16 -31 99 -135 310 -78 159 -182 372 -231 474 -102 208 -251 513 -418
855 -62 127 -156 320 -210 430 -54 110 -148 302 -209 428 l-111 227 -749 0
c-413 0 -752 -3 -754 -7z m5654 -156 c-10 -9 -11 -8 -5 6 3 10 9 15 12 12 3
-3 0 -11 -7 -18z"/>
</g>
</svg>
