<?xml version="1.0" encoding="UTF-8"?>
<svg width="182px" height="27px" viewBox="0 0 182 27" version="1.1" xmlns="http://www.w3.org/2000/svg" xmlns:xlink="http://www.w3.org/1999/xlink">
    <!-- Generator: Sketch 49.3 (51167) - http://www.bohemiancoding.com/sketch -->
    <title>email banner date copy</title>
    <desc>Created with Sketch.</desc>
    <defs></defs>
    <g id="email-banner-date-copy" stroke="none" stroke-width="1" fill="none" fill-rule="evenodd">
        <path d="M36.04,20 C35.906666,20 35.7933338,19.9533338 35.7,19.86 C35.6066662,19.7666662 35.56,19.653334 35.56,19.52 L35.56,6.5 C35.56,6.3533326 35.6033329,6.2333338 35.69,6.14 C35.7766671,6.0466662 35.8933326,6 36.04,6 L37.88,6 C38.0266674,6 38.1466662,6.0466662 38.24,6.14 C38.3333338,6.2333338 38.38,6.3533326 38.38,6.5 L38.38,11.64 L44.22,11.64 L44.22,6.5 C44.22,6.3533326 44.2666662,6.2333338 44.36,6.14 C44.4533338,6.0466662 44.566666,6 44.7,6 L46.56,6 C46.7066674,6 46.8233329,6.0466662 46.91,6.14 C46.9966671,6.2333338 47.04,6.3533326 47.04,6.5 L47.04,19.52 C47.04,19.653334 46.9966671,19.7666662 46.91,19.86 C46.8233329,19.9533338 46.7066674,20 46.56,20 L44.7,20 C44.566666,20 44.4533338,19.9533338 44.36,19.86 C44.2666662,19.7666662 44.22,19.653334 44.22,19.52 L44.22,14.18 L38.38,14.18 L38.38,19.52 C38.38,19.653334 38.3333338,19.7666662 38.24,19.86 C38.1466662,19.9533338 38.0266674,20 37.88,20 L36.04,20 Z M52.94,20.2 C52.2599966,20.2 51.6366695,20.0633347 51.07,19.79 C50.5033305,19.5166653 50.0566683,19.146669 49.73,18.68 C49.4033317,18.213331 49.24,17.7000028 49.24,17.14 C49.24,16.2333288 49.606663,15.5000028 50.34,14.94 C51.073337,14.3799972 52.0799936,14.000001 53.36,13.8 L56.1,13.4 L56.1,12.98 C56.1,12.4066638 55.9533348,11.9733348 55.66,11.68 C55.3666652,11.3866652 54.9000032,11.24 54.26,11.24 C53.8199978,11.24 53.466668,11.3199992 53.2,11.48 C52.933332,11.6400008 52.7166675,11.8033325 52.55,11.97 L52.22,12.3 C52.1666664,12.4600008 52.0666674,12.54 51.92,12.54 L50.36,12.54 C50.2399994,12.54 50.1366671,12.5000004 50.05,12.42 C49.9633329,12.3399996 49.92,12.233334 49.92,12.1 C49.9333334,11.766665 50.0966651,11.3900021 50.41,10.97 C50.7233349,10.5499979 51.2066634,10.1833349 51.86,9.87 C52.5133366,9.5566651 53.3199952,9.4 54.28,9.4 C55.8533412,9.4 56.9999964,9.7533298 57.72,10.46 C58.4400036,11.1666702 58.8,12.0933276 58.8,13.24 L58.8,19.52 C58.8,19.653334 58.7566671,19.7666662 58.67,19.86 C58.5833329,19.9533338 58.4666674,20 58.32,20 L56.66,20 C56.526666,20 56.4133338,19.9533338 56.32,19.86 C56.2266662,19.7666662 56.18,19.653334 56.18,19.52 L56.18,18.74 C55.8866652,19.1666688 55.473336,19.5166653 54.94,19.79 C54.406664,20.0633347 53.740004,20.2 52.94,20.2 Z M53.62,18.28 C54.353337,18.28 54.953331,18.0400024 55.42,17.56 C55.886669,17.0799976 56.12,16.3866712 56.12,15.48 L56.12,15.08 L54.12,15.4 C52.586659,15.6400012 51.82,16.1533294 51.82,16.94 C51.82,17.3666688 51.9966649,17.6966655 52.35,17.93 C52.7033351,18.1633345 53.1266642,18.28 53.62,18.28 Z M65.86,20.2 C64.393326,20.2 63.2233377,19.7933374 62.35,18.98 C61.4766623,18.1666626 61.0133336,17.0400072 60.96,15.6 L60.94,14.8 L60.96,14 C61.0133336,12.5599928 61.4766623,11.4333374 62.35,10.62 C63.2233377,9.8066626 64.393326,9.4 65.86,9.4 C66.9133386,9.4 67.8033297,9.5866648 68.53,9.96 C69.2566703,10.3333352 69.7966649,10.7899973 70.15,11.33 C70.5033351,11.8700027 70.6933332,12.3866642 70.72,12.88 C70.7333334,13.013334 70.6900005,13.1266662 70.59,13.22 C70.4899995,13.3133338 70.373334,13.36 70.24,13.36 L68.46,13.36 C68.3133326,13.36 68.206667,13.3300003 68.14,13.27 C68.073333,13.2099997 68.006667,13.1000008 67.94,12.94 C67.739999,12.4333308 67.4766683,12.0666678 67.15,11.84 C66.8233317,11.6133322 66.4066692,11.5 65.9,11.5 C65.2199966,11.5 64.6900019,11.7133312 64.31,12.14 C63.9299981,12.5666688 63.7266668,13.2199956 63.7,14.1 L63.68,14.84 L63.7,15.5 C63.7800004,17.233342 64.5133264,18.1 65.9,18.1 C66.4200026,18.1 66.8399984,17.9900011 67.16,17.77 C67.4800016,17.5499989 67.739999,17.1800026 67.94,16.66 C67.9933336,16.5133326 68.0566663,16.406667 68.13,16.34 C68.2033337,16.273333 68.3133326,16.24 68.46,16.24 L70.24,16.24 C70.373334,16.24 70.4899995,16.2866662 70.59,16.38 C70.6900005,16.4733338 70.7333334,16.586666 70.72,16.72 C70.6933332,17.186669 70.5066684,17.6899973 70.16,18.23 C69.8133316,18.7700027 69.2800036,19.2333314 68.56,19.62 C67.8399964,20.0066686 66.9400054,20.2 65.86,20.2 Z M73.3,20 C73.166666,20 73.0533338,19.9533338 72.96,19.86 C72.8666662,19.7666662 72.82,19.653334 72.82,19.52 L72.82,6.28 C72.82,6.1333326 72.8666662,6.0166671 72.96,5.93 C73.0533338,5.8433329 73.166666,5.8 73.3,5.8 L74.96,5.8 C75.093334,5.8 75.2066662,5.8466662 75.3,5.94 C75.3933338,6.0333338 75.44,6.146666 75.44,6.28 L75.44,13.12 L78.76,9.94 C78.8000002,9.9133332 78.8633329,9.8633337 78.95,9.79 C79.0366671,9.7166663 79.1199996,9.6666668 79.2,9.64 C79.2800004,9.6133332 79.3799994,9.6 79.5,9.6 L81.4,9.6 C81.533334,9.6 81.6399996,9.6399996 81.72,9.72 C81.8000004,9.8000004 81.84,9.906666 81.84,10.04 C81.84,10.1600006 81.773334,10.2799994 81.64,10.4 L77.56,14.26 L82.14,19.22 C82.2600006,19.3400006 82.32,19.4533328 82.32,19.56 C82.32,19.693334 82.2800004,19.7999996 82.2,19.88 C82.1199996,19.9600004 82.0200006,20 81.9,20 L79.96,20 C79.7733324,20 79.6366671,19.9766669 79.55,19.93 C79.4633329,19.8833331 79.353334,19.793334 79.22,19.66 L75.44,15.64 L75.44,19.52 C75.44,19.653334 75.3933338,19.7666662 75.3,19.86 C75.2066662,19.9533338 75.093334,20 74.96,20 L73.3,20 Z M92.58,20 C91.3666606,20 90.4533364,19.6833365 89.84,19.05 C89.2266636,18.4166635 88.92,17.4866728 88.92,16.26 L88.92,11.74 L87.34,11.74 C87.206666,11.74 87.0933338,11.6933338 87,11.6 C86.9066662,11.5066662 86.86,11.393334 86.86,11.26 L86.86,10.08 C86.86,9.946666 86.9066662,9.8333338 87,9.74 C87.0933338,9.6466662 87.206666,9.6 87.34,9.6 L88.92,9.6 L88.92,6.28 C88.92,6.1333326 88.9666662,6.0166671 89.06,5.93 C89.1533338,5.8433329 89.266666,5.8 89.4,5.8 L91.06,5.8 C91.2066674,5.8 91.3233329,5.8433329 91.41,5.93 C91.4966671,6.0166671 91.54,6.1333326 91.54,6.28 L91.54,9.6 L94.04,9.6 C94.173334,9.6 94.2866662,9.6466662 94.38,9.74 C94.4733338,9.8333338 94.52,9.946666 94.52,10.08 L94.52,11.26 C94.52,11.393334 94.4733338,11.5066662 94.38,11.6 C94.2866662,11.6933338 94.173334,11.74 94.04,11.74 L91.54,11.74 L91.54,16.04 C91.54,16.6133362 91.639999,17.0466652 91.84,17.34 C92.040001,17.6333348 92.3666644,17.78 92.82,17.78 L94.22,17.78 C94.3666674,17.78 94.4833329,17.8233329 94.57,17.91 C94.6566671,17.9966671 94.7,18.1133326 94.7,18.26 L94.7,19.52 C94.7,19.653334 94.6566671,19.7666662 94.57,19.86 C94.4833329,19.9533338 94.3666674,20 94.22,20 L92.58,20 Z M96.98,20 C96.846666,20 96.7333338,19.9533338 96.64,19.86 C96.5466662,19.7666662 96.5,19.653334 96.5,19.52 L96.5,6.28 C96.5,6.1333326 96.5466662,6.0166671 96.64,5.93 C96.7333338,5.8433329 96.846666,5.8 96.98,5.8 L98.8,5.8 C98.9466674,5.8 99.0633329,5.8433329 99.15,5.93 C99.2366671,6.0166671 99.28,6.1333326 99.28,6.28 L99.28,10.84 C100.080004,9.8799952 101.153327,9.4 102.5,9.4 C103.726673,9.4 104.706663,9.8033293 105.44,10.61 C106.173337,11.4166707 106.54,12.5133264 106.54,13.9 L106.54,19.52 C106.54,19.653334 106.496667,19.7666662 106.41,19.86 C106.323333,19.9533338 106.206667,20 106.06,20 L104.24,20 C104.093333,20 103.973334,19.9533338 103.88,19.86 C103.786666,19.7666662 103.74,19.653334 103.74,19.52 L103.74,14.02 C103.74,13.2466628 103.550002,12.6433355 103.17,12.21 C102.789998,11.7766645 102.24667,11.56 101.54,11.56 C100.859997,11.56 100.313335,11.7799978 99.9,12.22 C99.4866646,12.6600022 99.28,13.2599962 99.28,14.02 L99.28,19.52 C99.28,19.653334 99.2366671,19.7666662 99.15,19.86 C99.0633329,19.9533338 98.9466674,20 98.8,20 L96.98,20 Z M113.58,20.2 C112.086659,20.2 110.903338,19.7733376 110.03,18.92 C109.156662,18.0666624 108.693334,16.8533412 108.64,15.28 L108.62,14.78 C108.62,13.113325 109.056662,11.8000048 109.93,10.84 C110.803338,9.8799952 112.013326,9.4 113.56,9.4 C115.146675,9.4 116.369996,9.8799952 117.23,10.84 C118.090004,11.8000048 118.52,13.079992 118.52,14.68 L118.52,15.1 C118.52,15.233334 118.473334,15.3466662 118.38,15.44 C118.286666,15.5333338 118.166667,15.58 118.02,15.58 L111.38,15.58 L111.38,15.74 C111.406667,16.4866704 111.609998,17.1033309 111.99,17.59 C112.370002,18.0766691 112.89333,18.32 113.56,18.32 C114.320004,18.32 114.939998,18.0133364 115.42,17.4 C115.540001,17.2533326 115.633333,17.1633335 115.7,17.13 C115.766667,17.0966665 115.879999,17.08 116.04,17.08 L117.8,17.08 C117.920001,17.08 118.023333,17.113333 118.11,17.18 C118.196667,17.246667 118.24,17.3399994 118.24,17.46 C118.24,17.7800016 118.050002,18.1566645 117.67,18.59 C117.289998,19.0233355 116.74667,19.3999984 116.04,19.72 C115.33333,20.0400016 114.513338,20.2 113.58,20.2 Z M115.76,13.88 L115.76,13.84 C115.76,13.0533294 115.563335,12.4233357 115.17,11.95 C114.776665,11.4766643 114.240003,11.24 113.56,11.24 C112.879997,11.24 112.346669,11.4766643 111.96,11.95 C111.573331,12.4233357 111.38,13.0533294 111.38,13.84 L111.38,13.88 L115.76,13.88 Z M125.92,20 C125.786666,20 125.673334,19.9533338 125.58,19.86 C125.486666,19.7666662 125.44,19.653334 125.44,19.52 L125.44,6.5 C125.44,6.3533326 125.483333,6.2333338 125.57,6.14 C125.656667,6.0466662 125.773333,6 125.92,6 L127.48,6 C127.733335,6 127.926666,6.1133322 128.06,6.34 L133.78,15.22 L133.78,6.5 C133.78,6.3533326 133.823333,6.2333338 133.91,6.14 C133.996667,6.0466662 134.113333,6 134.26,6 L135.98,6 C136.126667,6 136.246666,6.0466662 136.34,6.14 C136.433334,6.2333338 136.48,6.3533326 136.48,6.5 L136.48,19.5 C136.48,19.6466674 136.433334,19.7666662 136.34,19.86 C136.246666,19.9533338 136.133334,20 136,20 L134.42,20 C134.153332,20 133.953334,19.8866678 133.82,19.66 L128.12,10.98 L128.12,19.52 C128.12,19.653334 128.076667,19.7666662 127.99,19.86 C127.903333,19.9533338 127.786667,20 127.64,20 L125.92,20 Z M143.96,20.2 C142.386659,20.2 141.173338,19.800004 140.32,19 C139.466662,18.199996 139.006667,17.0933404 138.94,15.68 L138.92,14.8 L138.94,13.92 C139.006667,12.519993 139.473329,11.4166707 140.34,10.61 C141.206671,9.8033293 142.413326,9.4 143.96,9.4 C145.493341,9.4 146.693329,9.8033293 147.56,10.61 C148.426671,11.4166707 148.893333,12.519993 148.96,13.92 C148.973333,14.0800008 148.98,14.3733312 148.98,14.8 C148.98,15.2266688 148.973333,15.5199992 148.96,15.68 C148.893333,17.0933404 148.433338,18.199996 147.58,19 C146.726662,19.800004 145.520008,20.2 143.96,20.2 Z M143.96,18.18 C144.66667,18.18 145.209998,17.9600022 145.59,17.52 C145.970002,17.0799978 146.173333,16.4333376 146.2,15.58 C146.213333,15.446666 146.22,15.1866686 146.22,14.8 C146.22,14.4133314 146.213333,14.153334 146.2,14.02 C146.173333,13.1666624 145.966669,12.5166689 145.58,12.07 C145.193331,11.6233311 144.653337,11.4 143.96,11.4 C143.25333,11.4 142.706669,11.6233311 142.32,12.07 C141.933331,12.5166689 141.726667,13.1666624 141.7,14.02 L141.68,14.8 L141.7,15.58 C141.726667,16.4333376 141.933331,17.0799978 142.32,17.52 C142.706669,17.9600022 143.25333,18.18 143.96,18.18 Z M151.68,20 C151.546666,20 151.433334,19.9533338 151.34,19.86 C151.246666,19.7666662 151.2,19.653334 151.2,19.52 L151.2,10.1 C151.2,9.9533326 151.246666,9.8333338 151.34,9.74 C151.433334,9.6466662 151.546666,9.6 151.68,9.6 L153.32,9.6 C153.466667,9.6 153.586666,9.6466662 153.68,9.74 C153.773334,9.8333338 153.82,9.9533326 153.82,10.1 L153.82,10.92 C154.48667,10.0399956 155.44666,9.6 156.7,9.6 L157.54,9.6 C157.686667,9.6 157.803333,9.6433329 157.89,9.73 C157.976667,9.8166671 158.02,9.9333326 158.02,10.08 L158.02,11.54 C158.02,11.673334 157.976667,11.7866662 157.89,11.88 C157.803333,11.9733338 157.686667,12.02 157.54,12.02 L155.96,12.02 C155.33333,12.02 154.840002,12.1999982 154.48,12.56 C154.119998,12.9200018 153.94,13.4133302 153.94,14.04 L153.94,19.52 C153.94,19.653334 153.893334,19.7666662 153.8,19.86 C153.706666,19.9533338 153.593334,20 153.46,20 L151.68,20 Z M164.3,20 C163.086661,20 162.173336,19.6833365 161.56,19.05 C160.946664,18.4166635 160.64,17.4866728 160.64,16.26 L160.64,11.74 L159.06,11.74 C158.926666,11.74 158.813334,11.6933338 158.72,11.6 C158.626666,11.5066662 158.58,11.393334 158.58,11.26 L158.58,10.08 C158.58,9.946666 158.626666,9.8333338 158.72,9.74 C158.813334,9.6466662 158.926666,9.6 159.06,9.6 L160.64,9.6 L160.64,6.28 C160.64,6.1333326 160.686666,6.0166671 160.78,5.93 C160.873334,5.8433329 160.986666,5.8 161.12,5.8 L162.78,5.8 C162.926667,5.8 163.043333,5.8433329 163.13,5.93 C163.216667,6.0166671 163.26,6.1333326 163.26,6.28 L163.26,9.6 L165.76,9.6 C165.893334,9.6 166.006666,9.6466662 166.1,9.74 C166.193334,9.8333338 166.24,9.946666 166.24,10.08 L166.24,11.26 C166.24,11.393334 166.193334,11.5066662 166.1,11.6 C166.006666,11.6933338 165.893334,11.74 165.76,11.74 L163.26,11.74 L163.26,16.04 C163.26,16.6133362 163.359999,17.0466652 163.56,17.34 C163.760001,17.6333348 164.086664,17.78 164.54,17.78 L165.94,17.78 C166.086667,17.78 166.203333,17.8233329 166.29,17.91 C166.376667,17.9966671 166.42,18.1133326 166.42,18.26 L166.42,19.52 C166.42,19.653334 166.376667,19.7666662 166.29,19.86 C166.203333,19.9533338 166.086667,20 165.94,20 L164.3,20 Z M168.7,20 C168.566666,20 168.453334,19.9533338 168.36,19.86 C168.266666,19.7666662 168.22,19.653334 168.22,19.52 L168.22,6.28 C168.22,6.1333326 168.266666,6.0166671 168.36,5.93 C168.453334,5.8433329 168.566666,5.8 168.7,5.8 L170.52,5.8 C170.666667,5.8 170.783333,5.8433329 170.87,5.93 C170.956667,6.0166671 171,6.1333326 171,6.28 L171,10.84 C171.800004,9.8799952 172.873327,9.4 174.22,9.4 C175.446673,9.4 176.426663,9.8033293 177.16,10.61 C177.893337,11.4166707 178.26,12.5133264 178.26,13.9 L178.26,19.52 C178.26,19.653334 178.216667,19.7666662 178.13,19.86 C178.043333,19.9533338 177.926667,20 177.78,20 L175.96,20 C175.813333,20 175.693334,19.9533338 175.6,19.86 C175.506666,19.7666662 175.46,19.653334 175.46,19.52 L175.46,14.02 C175.46,13.2466628 175.270002,12.6433355 174.89,12.21 C174.509998,11.7766645 173.96667,11.56 173.26,11.56 C172.579997,11.56 172.033335,11.7799978 171.62,12.22 C171.206665,12.6600022 171,13.2599962 171,14.02 L171,19.52 C171,19.653334 170.956667,19.7666662 170.87,19.86 C170.783333,19.9533338 170.666667,20 170.52,20 L168.7,20 Z" id="Hack-the-North" fill="#0F0E1C"></path>
        <path d="M10.5448538,23.6245269 C5.61389569,22.3430695 2,17.9318429 2,12.7259493 C2,11.0240523 2.38400432,9.4127845 3.07065416,7.96905752 L3.41178244,8.08839649 C3.60166166,8.80801675 3.8864805,9.52763701 4.26623895,10.1513079 L3.12696361,12.5500421 C3.03202399,12.7899155 3.0794938,13.0777636 3.22190322,13.2216877 C3.36431264,13.3656117 3.50672205,13.5575105 3.69660128,13.7014345 C3.8864805,13.8933333 4.17129933,13.9413079 4.36117856,13.7973839 L6.68720379,12.6939662 C7.30431127,13.0777636 8.01635835,13.3656117 8.72840544,13.5575105 L9.58286195,16.052194 C9.67780156,16.2920674 9.86768078,16.4359915 10.1524996,16.4839662 C10.2474392,16.4839662 10.3898486,16.4839662 10.4847883,16.4839662 C10.5797279,16.4839662 10.7221373,16.4839662 10.8170769,16.4839662 C11.0544259,16.4839662 11.291775,16.2920674 11.3867146,16.052194 L12.2411711,13.5575105 C13.0481578,13.3656117 13.7127351,13.0777636 14.3298425,12.6939662 L16.655863,13.7973839 C16.893212,13.8933333 17.1780309,13.8453586 17.3204403,13.7014345 C17.4628497,13.5575105 17.6527289,13.4135864 17.7951384,13.2216877 C17.9850176,13.0297889 18.0324874,12.7419408 17.890078,12.5500421 L16.7982724,10.1992826 C17.1780309,9.5756117 17.4628497,8.85599144 17.6527289,8.13637118 L20.1211588,7.27282687 C20.3585079,7.1768775 20.5009173,6.98497876 20.5483871,6.69713066 C20.5483871,6.60118129 20.5483871,6.45725724 20.5483871,6.36130787 C20.5483871,6.26535851 20.5483871,6.12143445 20.5483871,6.02548509 C20.5483871,5.78561167 20.3585079,5.54573825 20.1211588,5.44978888 L17.7001987,4.53826988 C17.5103195,3.81864962 17.2255007,3.09902937 16.8457422,2.47535847 L17.0665215,2 C21.6819618,3.46428172 25,7.69990988 25,12.7259493 C25,14.8613999 24.3954271,16.8541648 23.3470027,18.5523078 L21.622823,18.6330258 C21.2814737,18.2118291 20.8913603,17.8374321 20.4524827,17.5098347 L20.550011,15.5910499 C20.550011,15.4506511 20.4524827,15.263453 20.3061901,15.2166534 C20.1111334,15.1230546 19.9648409,15.076255 19.7697842,15.0294553 C19.6234916,14.9826556 19.4284349,15.0294553 19.3309066,15.1230546 L18.0142737,16.5270425 C17.4778677,16.4334433 16.8926976,16.4334433 16.3562916,16.5270425 L15.0396588,15.1230546 C14.9421499,14.9826556 14.7470932,14.935856 14.6008007,15.0294553 C14.5032723,15.076255 14.4057488,15.076255 14.3569847,15.1230546 C14.2594563,15.1698542 14.1619279,15.2166534 14.1131638,15.2166534 C13.9668712,15.263453 13.8693429,15.4506511 13.8693429,15.5910499 L13.9668712,17.5098347 C13.5279936,17.8374321 13.089116,18.2118291 12.7965309,18.6330258 L10.7971996,18.5394265 C10.650907,18.5394265 10.4558508,18.6330258 10.4070866,18.7734247 C10.3095587,18.9606232 10.2607946,19.1010174 10.2120304,19.2882159 C10.1632661,19.4286148 10.2120304,19.6158133 10.3095587,19.7093939 L11.7724832,20.9729838 C11.6749548,21.4877797 11.6749548,22.0493753 11.7724832,22.5641712 L10.5448538,23.6245269 Z M16.8387097,24 C15.6094307,24 14.6129032,22.9904871 14.6129032,21.7451899 C14.6129032,20.4998926 15.6094307,19.4903797 16.8387097,19.4903797 C18.0679886,19.4903797 19.0645161,20.4998926 19.0645161,21.7451899 C19.0645161,22.9904871 18.0679886,24 16.8387097,24 Z M10.1612903,9.71953575 C8.52225171,9.71953575 7.19354839,8.37351856 7.19354839,6.71312222 C7.19354839,5.05272588 8.52225171,3.7067087 10.1612903,3.7067087 C11.8003289,3.7067087 13.1290323,5.05272588 13.1290323,6.71312222 C13.1290323,8.37351856 11.8003289,9.71953575 10.1612903,9.71953575 Z" id="Combined-Shape" fill="#0F0E1C" fill-rule="nonzero"></path>
    </g>
</svg>