<svg id="Layer_1" data-name="Layer 1" xmlns="http://www.w3.org/2000/svg" viewBox="0 0 270.97 478.98"><defs><style>.cls-1,.cls-10,.cls-11,.cls-12,.cls-13,.cls-14,.cls-15,.cls-16,.cls-17,.cls-18,.cls-2,.cls-4,.cls-5,.cls-6,.cls-9{fill:none;stroke-miterlimit:1.41;}.cls-1{stroke:#a5a3a2;}.cls-1,.cls-4{stroke-width:2px;}.cls-11,.cls-12,.cls-13,.cls-14,.cls-15,.cls-16,.cls-17,.cls-18,.cls-2,.cls-4,.cls-5,.cls-6{stroke:#676666;}.cls-2{stroke-width:1.2px;}.cls-3{fill:#676666;}.cls-5{stroke-width:1.4px;}.cls-6{stroke-width:1.5px;}.cls-7{fill:#b2d34e;}.cls-8{fill:#f5f3f4;}.cls-10,.cls-9{stroke:#fff;}.cls-17,.cls-9{stroke-width:0.6px;}.cls-10{stroke-width:0.2px;}.cls-12{stroke-width:1.8px;}.cls-13{stroke-width:2.5px;}.cls-14{stroke-width:1.3px;}.cls-15{stroke-width:0.9px;}.cls-16{stroke-width:0.8px;}.cls-18{stroke-width:1.9px;}.cls-19{fill:#fff;}</style></defs><title>htv_logo</title><path class="cls-1" d="M138.34,313.22S183.55,334,183.59,334" transform="translate(-2.25 -2.47)"/><path class="cls-1" d="M139.83,313.39s-45.22,20.76-45.26,20.76" transform="translate(-2.25 -2.47)"/><path class="cls-1" d="M189.69,332.09a8.93,8.93,0,1,1-8.84,8.93A8.89,8.89,0,0,1,189.69,332.09Z" transform="translate(-2.25 -2.47)"/><path class="cls-1" d="M223.53,375.78a8.93,8.93,0,1,1-8.84,8.93A8.89,8.89,0,0,1,223.53,375.78Z" transform="translate(-2.25 -2.47)"/><path class="cls-1" d="M221.15,375.78S195.92,348,195.89,348" transform="translate(-2.25 -2.47)"/><path class="cls-1" d="M189.69,419.19a8.93,8.93,0,1,1-8.84,8.92A8.88,8.88,0,0,1,189.69,419.19Z" transform="translate(-2.25 -2.47)"/><path class="cls-1" d="M187.31,419.19s-25.23-27.8-25.25-27.8" transform="translate(-2.25 -2.47)"/><path class="cls-1" d="M156.19,375.61a8.93,8.93,0,1,0,8.84,8.93,8.89,8.89,0,0,0-8.84-8.93Z" transform="translate(-2.25 -2.47)"/><path class="cls-1" d="M88.48,419.19a8.93,8.93,0,1,1-8.83,8.92A8.89,8.89,0,0,1,88.48,419.19Z" transform="translate(-2.25 -2.47)"/><path class="cls-1" d="M86.1,419.19s-25.23-27.8-25.25-27.8" transform="translate(-2.25 -2.47)"/><path class="cls-1" d="M53.87,375.78a8.93,8.93,0,1,0,8.83,8.93A8.89,8.89,0,0,0,53.87,375.78Z" transform="translate(-2.25 -2.47)"/><path class="cls-1" d="M157.91,375.78S183.15,348,183.17,348" transform="translate(-2.25 -2.47)"/><path class="cls-1" d="M88.47,332.26a8.93,8.93,0,1,0,8.84,8.93A8.89,8.89,0,0,0,88.47,332.26Z" transform="translate(-2.25 -2.47)"/><path class="cls-1" d="M56.84,375.78S82.08,348,82.1,348" transform="translate(-2.25 -2.47)"/><path class="cls-1" d="M122.44,375.78a8.93,8.93,0,1,1-8.83,8.93A8.89,8.89,0,0,1,122.44,375.78Z" transform="translate(-2.25 -2.47)"/><path class="cls-1" d="M120.08,375.78S94.84,348,94.82,348" transform="translate(-2.25 -2.47)"/><path class="cls-1" d="M53.7,462.59a8.93,8.93,0,1,0,8.83,8.93A8.89,8.89,0,0,0,53.7,462.59Z" transform="translate(-2.25 -2.47)"/><path class="cls-1" d="M56.67,462.59S81.9,434.8,81.93,434.8" transform="translate(-2.25 -2.47)"/><path class="cls-1" d="M122.27,462.59a8.93,8.93,0,1,1-8.83,8.93A8.89,8.89,0,0,1,122.27,462.59Z" transform="translate(-2.25 -2.47)"/><path class="cls-1" d="M119.91,462.59S94.67,434.8,94.65,434.8" transform="translate(-2.25 -2.47)"/><path class="cls-2" d="M177.24,90.76l-8.75-.23-6.22-5.75V78.13" transform="translate(-2.25 -2.47)"/><rect class="cls-3" x="133.34" y="112.89" width="6.8" height="168.6"/><rect class="cls-3" x="148.29" y="122.82" width="6.8" height="157.65"/><rect class="cls-3" x="118.34" y="145.28" width="6.8" height="135.8"/><rect class="cls-3" x="103.76" y="204.39" width="6.8" height="76.29"/><path class="cls-4" d="M154.38,195.8l15-12.68" transform="translate(-2.25 -2.47)"/><path class="cls-5" d="M156.59,156.28l11.5-11.39V132.81" transform="translate(-2.25 -2.47)"/><path class="cls-6" d="M124.2,179.17l-18.74-18.74" transform="translate(-2.25 -2.47)"/><rect class="cls-3" x="162.93" y="211.83" width="6.8" height="68.85"/><path class="cls-3" d="M142.3,115.29,138.84,119,99.46,82.58l3.46-3.74,39.38,36.45Z" transform="translate(-2.25 -2.47)"/><path class="cls-3" d="M180.69,58.64l0,43.73-26.51,26.51-3.61-3.61,25-25,0-41.62Z" transform="translate(-2.25 -2.47)"/><path class="cls-3" d="M39.07,176.05H80.85v5.1H37L8.24,152.44l3.61-3.61Z" transform="translate(-2.25 -2.47)"/><path class="cls-6" d="M24.18,161.78,43,137H60" transform="translate(-2.25 -2.47)"/><path class="cls-3" d="M127.31,147.72l-3.6,3.61L95.47,123.09l3.61-3.6Z" transform="translate(-2.25 -2.47)"/><rect class="cls-3" x="84.72" y="117.05" width="12.14" height="5.1"/><rect class="cls-7" x="4.51" y="264.89" width="266.1" height="47.6"/><path class="cls-8" d="M6.76,302.43H272.87" transform="translate(-2.25 -2.47)"/><path class="cls-9" d="M6.76,302.43H272.87" transform="translate(-2.25 -2.47)"/><path class="cls-8" d="M6.76,309.37H272.87" transform="translate(-2.25 -2.47)"/><path class="cls-10" d="M6.76,309.37H272.87" transform="translate(-2.25 -2.47)"/><path class="cls-3" d="M84.69,152.69l-.3,24.7,28.39,29.45-3.68,3.54-29.84-31,.33-26.8Z" transform="translate(-2.25 -2.47)"/><path class="cls-3" d="M225.84,160.57l-57.18,57.18-3.49-3.48,57.18-57.18,3.49,3.48Z" transform="translate(-2.25 -2.47)"/><path class="cls-6" d="M214.21,166.94V146.77" transform="translate(-2.25 -2.47)"/><path class="cls-6" d="M213.84,147.67,230.56,131" transform="translate(-2.25 -2.47)"/><path class="cls-4" d="M201.28,182.53h28.55l8.28,8.28" transform="translate(-2.25 -2.47)"/><path class="cls-11" d="M230.52,182,242,170.66" transform="translate(-2.25 -2.47)"/><path class="cls-4" d="M168.79,184.42V165.3l23.46-23.46V128.58" transform="translate(-2.25 -2.47)"/><path class="cls-4" d="M191.78,129.78l23.33-23.33V86.33" transform="translate(-2.25 -2.47)"/><path class="cls-12" d="M129.38,104.65l19.38-19.38V47.78" transform="translate(-2.25 -2.47)"/><path class="cls-4" d="M140.79,92.71l-9.12-9.13V63.66l-8.86-8.86V46.06" transform="translate(-2.25 -2.47)"/><path class="cls-11" d="M126.94,59.77l7.89-7.9V26.41" transform="translate(-2.25 -2.47)"/><path class="cls-13" d="M88.5,123.12l-2.34-2.34-9.62-9.62H52.67" transform="translate(-2.25 -2.47)"/><path class="cls-6" d="M76,109.48v-9L60.35,89.25h-20" transform="translate(-2.25 -2.47)"/><path class="cls-3" d="M170,47.92l10.71,10.72-3.6,3.6L164.87,50V17.87H170Z" transform="translate(-2.25 -2.47)"/><path class="cls-11" d="M180.15,76.24l9.51-9.52V35.07" transform="translate(-2.25 -2.47)"/><path class="cls-4" d="M204.42,117.24h21.4l14.66-14.67" transform="translate(-2.25 -2.47)"/><path class="cls-4" d="M226.54,117.24h27.58L264.55,108" transform="translate(-2.25 -2.47)"/><path class="cls-4" d="M240,103.77V70.67" transform="translate(-2.25 -2.47)"/><path class="cls-6" d="M240,93.78,266.7,67.06" transform="translate(-2.25 -2.47)"/><path class="cls-14" d="M181.9,201V179.38" transform="translate(-2.25 -2.47)"/><path class="cls-2" d="M82.1,196.42,75,203.53" transform="translate(-2.25 -2.47)"/><path class="cls-2" d="M81.45,196.68h17" transform="translate(-2.25 -2.47)"/><path class="cls-6" d="M167.29,3.22a7.31,7.31,0,1,1-7.38,7.31A7.35,7.35,0,0,1,167.29,3.22Z" transform="translate(-2.25 -2.47)"/><path class="cls-15" d="M149.27,41.27a3.4,3.4,0,1,1-3.89,2.86A3.41,3.41,0,0,1,149.27,41.27Z" transform="translate(-2.25 -2.47)"/><path class="cls-16" d="M123.37,35.79a5.1,5.1,0,1,1-5.85,4.3A5.12,5.12,0,0,1,123.37,35.79Z" transform="translate(-2.25 -2.47)"/><path class="cls-11" d="M73.47,202.24a3.9,3.9,0,1,1-3.94,3.89A3.92,3.92,0,0,1,73.47,202.24Z" transform="translate(-2.25 -2.47)"/><path class="cls-11" d="M63.71,132.92a3.9,3.9,0,1,1-3.94,3.9A3.93,3.93,0,0,1,63.71,132.92Z" transform="translate(-2.25 -2.47)"/><path class="cls-17" d="M37.54,86.41a2.8,2.8,0,1,1-2.83,2.8A2.82,2.82,0,0,1,37.54,86.41Z" transform="translate(-2.25 -2.47)"/><path class="cls-11" d="M84.39,81.47a2.8,2.8,0,1,1-2.82,2.8A2.81,2.81,0,0,1,84.39,81.47Z" transform="translate(-2.25 -2.47)"/><path class="cls-3" d="M134.63,17.71a4,4,0,1,1-4,4A4,4,0,0,1,134.63,17.71Z" transform="translate(-2.25 -2.47)"/><path class="cls-6" d="M134.63,17.71a4,4,0,1,1-4,4A4,4,0,0,1,134.63,17.71Z" transform="translate(-2.25 -2.47)"/><path class="cls-3" d="M162.21,72a2.81,2.81,0,1,1-2.81,2.81A2.81,2.81,0,0,1,162.21,72Z" transform="translate(-2.25 -2.47)"/><path class="cls-6" d="M162.21,72a2.81,2.81,0,1,1-2.81,2.81A2.81,2.81,0,0,1,162.21,72Z" transform="translate(-2.25 -2.47)"/><path class="cls-3" d="M267.22,61.82a3.75,3.75,0,1,1-3.75,3.75A3.75,3.75,0,0,1,267.22,61.82Z" transform="translate(-2.25 -2.47)"/><path class="cls-6" d="M267.22,61.82a3.75,3.75,0,1,1-3.75,3.75A3.75,3.75,0,0,1,267.22,61.82Z" transform="translate(-2.25 -2.47)"/><path class="cls-3" d="M252.39,124.64a2.87,2.87,0,1,1-2.86,2.87A2.87,2.87,0,0,1,252.39,124.64Z" transform="translate(-2.25 -2.47)"/><path class="cls-6" d="M252.39,124.64a2.87,2.87,0,1,1-2.86,2.87A2.87,2.87,0,0,1,252.39,124.64Z" transform="translate(-2.25 -2.47)"/><path class="cls-3" d="M182,173.87a2.42,2.42,0,1,1-2.41,2.42A2.42,2.42,0,0,1,182,173.87Z" transform="translate(-2.25 -2.47)"/><path class="cls-6" d="M182,173.87a2.42,2.42,0,1,1-2.41,2.42A2.42,2.42,0,0,1,182,173.87Z" transform="translate(-2.25 -2.47)"/><path class="cls-3" d="M226.34,153.4a3.16,3.16,0,1,1-3.16,3.15A3.16,3.16,0,0,1,226.34,153.4Z" transform="translate(-2.25 -2.47)"/><path class="cls-6" d="M226.34,153.4a3.16,3.16,0,1,1-3.16,3.15A3.16,3.16,0,0,1,226.34,153.4Z" transform="translate(-2.25 -2.47)"/><path class="cls-3" d="M103.68,100.44a1.88,1.88,0,1,1-1.87,1.88A1.88,1.88,0,0,1,103.68,100.44Z" transform="translate(-2.25 -2.47)"/><path class="cls-6" d="M103.68,100.44a1.88,1.88,0,1,1-1.87,1.88A1.88,1.88,0,0,1,103.68,100.44Z" transform="translate(-2.25 -2.47)"/><path class="cls-3" d="M167.93,128.71a1.88,1.88,0,1,1-1.88,1.88A1.88,1.88,0,0,1,167.93,128.71Z" transform="translate(-2.25 -2.47)"/><path class="cls-6" d="M167.93,128.71a1.88,1.88,0,1,1-1.88,1.88A1.88,1.88,0,0,1,167.93,128.71Z" transform="translate(-2.25 -2.47)"/><path class="cls-3" d="M104.25,156.93a1.88,1.88,0,1,1-1.88,1.88A1.88,1.88,0,0,1,104.25,156.93Z" transform="translate(-2.25 -2.47)"/><path class="cls-6" d="M104.25,156.93a1.88,1.88,0,1,1-1.88,1.88A1.88,1.88,0,0,1,104.25,156.93Z" transform="translate(-2.25 -2.47)"/><path class="cls-3" d="M239.57,189.44a4.27,4.27,0,1,1-4.26,4.27A4.27,4.27,0,0,1,239.57,189.44Z" transform="translate(-2.25 -2.47)"/><path class="cls-6" d="M239.57,189.44a4.27,4.27,0,1,1-4.26,4.27A4.27,4.27,0,0,1,239.57,189.44Z" transform="translate(-2.25 -2.47)"/><path class="cls-3" d="M82.27,143.66a4.66,4.66,0,1,1-4.75,4.66A4.71,4.71,0,0,1,82.27,143.66Z" transform="translate(-2.25 -2.47)"/><path class="cls-6" d="M82.27,143.66a4.66,4.66,0,1,1-4.75,4.66A4.71,4.71,0,0,1,82.27,143.66Z" transform="translate(-2.25 -2.47)"/><path class="cls-2" d="M186,149.39l10.4,10.4" transform="translate(-2.25 -2.47)"/><path class="cls-11" d="M199.48,158.87a4.65,4.65,0,1,1-4.69,4.65,4.67,4.67,0,0,1,4.69-4.65Z" transform="translate(-2.25 -2.47)"/><path class="cls-17" d="M232.56,125.24a3.5,3.5,0,1,1-3.53,3.5A3.52,3.52,0,0,1,232.56,125.24Z" transform="translate(-2.25 -2.47)"/><path class="cls-17" d="M239.88,61.29a4.92,4.92,0,1,1-5,4.92A5,5,0,0,1,239.88,61.29Z" transform="translate(-2.25 -2.47)"/><path class="cls-2" d="M246,160.69a6.23,6.23,0,1,1-6.3,6.23A6.26,6.26,0,0,1,246,160.69Z" transform="translate(-2.25 -2.47)"/><path class="cls-18" d="M266.79,97.81a5.43,5.43,0,1,1-5.49,5.42A5.46,5.46,0,0,1,266.79,97.81Z" transform="translate(-2.25 -2.47)"/><path class="cls-3" d="M189.66,30.31a1.94,1.94,0,1,1-1.94,1.94A1.94,1.94,0,0,1,189.66,30.31Z" transform="translate(-2.25 -2.47)"/><path class="cls-6" d="M189.66,30.31a1.94,1.94,0,1,1-1.94,1.94A1.94,1.94,0,0,1,189.66,30.31Z" transform="translate(-2.25 -2.47)"/><path class="cls-3" d="M215,82.16a1.95,1.95,0,1,1-1.94,2A2,2,0,0,1,215,82.16Z" transform="translate(-2.25 -2.47)"/><path class="cls-6" d="M215,82.16a1.95,1.95,0,1,1-1.94,2A2,2,0,0,1,215,82.16Z" transform="translate(-2.25 -2.47)"/><path class="cls-5" d="M87.11,84.53H97l8.49-7.93V63.24" transform="translate(-2.25 -2.47)"/><path class="cls-15" d="M122.75,102.45H106.18" transform="translate(-2.25 -2.47)"/><path class="cls-3" d="M47.45,106.38a5.09,5.09,0,1,1-4.92,5.09A5,5,0,0,1,47.45,106.38Z" transform="translate(-2.25 -2.47)"/><path class="cls-6" d="M47.45,106.38a5.09,5.09,0,1,1-4.92,5.09A5,5,0,0,1,47.45,106.38Z" transform="translate(-2.25 -2.47)"/><path class="cls-3" d="M7.92,141.61a5.09,5.09,0,0,1,0,10.17,5.09,5.09,0,0,1,0-10.17Z" transform="translate(-2.25 -2.47)"/><path class="cls-6" d="M7.92,141.61a5.09,5.09,0,0,1,0,10.17,5.09,5.09,0,0,1,0-10.17Z" transform="translate(-2.25 -2.47)"/><path class="cls-3" d="M105.43,57.6a2.49,2.49,0,1,1-2.49,2.49A2.49,2.49,0,0,1,105.43,57.6Z" transform="translate(-2.25 -2.47)"/><path class="cls-6" d="M105.43,57.6a2.49,2.49,0,1,1-2.49,2.49A2.49,2.49,0,0,1,105.43,57.6Z" transform="translate(-2.25 -2.47)"/><path class="cls-15" d="M244,117.45l8.07,8.07" transform="translate(-2.25 -2.47)"/><path class="cls-19" d="M130.56,293.24c0-2.78-.23-4.53-.62-5.36a4.87,4.87,0,0,0-.68-1.27,9.42,9.42,0,0,0-8.11-4h-6.29V272.37H105v37.11h9.86v-20h2.78c2,0,3,1.07,3,3.22v16.82h10Z" transform="translate(-2.25 -2.47)"/><rect class="cls-19" x="127.02" y="280.15" width="5.3" height="6.86"/><path class="cls-19" d="M144.63,301.2c-.17-.15-.23-1.07-.23-2.78V289.5H150v-6.87H144.4v-7.76h-9.86v7.76h-4.19v6.87h4.19V301a7.5,7.5,0,0,0,1.47,4.49,9.6,9.6,0,0,0,8.16,4H150v-7.56h-3.12a3,3,0,0,1-1.92-.44l-.34-.29Z" transform="translate(-2.25 -2.47)"/><path class="cls-19" d="M160,298.37l-3.49-15.75H146.05l8.64,26.87h10.56l8.64-26.87H163.54L160,298.37Z" transform="translate(-2.25 -2.47)"/><path class="cls-3" d="M167.07,254.26a.49.49,0,0,1,0,.19.47.47,0,0,1-.14.14.45.45,0,0,1-.19,0,.41.41,0,0,1-.19,0,.38.38,0,0,1-.14-.14.39.39,0,0,1,0-.38.32.32,0,0,1,.14-.14.41.41,0,0,1,.19-.05.45.45,0,0,1,.19.05.47.47,0,0,1,.14.14.45.45,0,0,1,0,.19Zm-.07,0a.34.34,0,0,0,0-.16.23.23,0,0,0-.11-.11.33.33,0,0,0-.16-.05.3.3,0,0,0-.16.05.25.25,0,0,0-.12.11.47.47,0,0,0,0,.16.42.42,0,0,0,0,.16.25.25,0,0,0,.12.11.3.3,0,0,0,.16.05.33.33,0,0,0,.16-.05.29.29,0,0,0,.11-.11.34.34,0,0,0,0-.16Zm-.37.12,0,.06a.17.17,0,0,1-.1-.06.16.16,0,0,1,0-.12.17.17,0,0,1,.06-.14.21.21,0,0,1,.16-.06.2.2,0,0,1,.11,0,.12.12,0,0,1,.07.07.19.19,0,0,1,0,.1.16.16,0,0,1,0,.11.13.13,0,0,1-.09.07v-.06l0,0a.08.08,0,0,0,0-.07.1.1,0,0,0,0-.09.15.15,0,0,0-.12,0,.12.12,0,0,0-.11,0,.1.1,0,0,0,0,.09.13.13,0,0,0,0,.08s0,0,.07,0Z" transform="translate(-2.25 -2.47)"/><path class="cls-3" d="M166.32,254.86l.73.29v.1l-.73.3v-.11l.22-.08v-.31l-.22-.08Zm.3.22v.25l.2-.08.16-.05-.14,0Z" transform="translate(-2.25 -2.47)"/><path class="cls-3" d="M166.32,255.62h.53v.08h-.07l.06.07a.24.24,0,0,1,0,.09.3.3,0,0,1,0,.1.18.18,0,0,1-.07,0,.2.2,0,0,1,.09.17.16.16,0,0,1,0,.12.18.18,0,0,1-.14,0h-.36v-.09h.41s0,0,0,0a.07.07,0,0,0,0,0,.17.17,0,0,0,0-.1.21.21,0,0,0-.12,0h-.31v-.09h.34s.08,0,.09,0a.08.08,0,0,0,0-.07.1.1,0,0,0,0-.07.12.12,0,0,0,0-.05h-.39v-.09Z" transform="translate(-2.25 -2.47)"/><path class="cls-3" d="M167,256.48h.1v.09H167v-.09Zm-.63,0h.53v.09h-.53Z" transform="translate(-2.25 -2.47)"/><path class="cls-3" d="M166.32,256.7h.53v.08h-.08l.08.06a.13.13,0,0,1,0,.06.16.16,0,0,1,0,.09l-.08,0a.14.14,0,0,0,0-.07l0-.05a.09.09,0,0,0-.05,0l-.1,0h-.28v-.09Z" transform="translate(-2.25 -2.47)"/><path class="cls-3" d="M166.32,257.4h.08a.21.21,0,0,1-.09-.17.25.25,0,0,1,0-.09s0-.05.05-.06,0,0,.07,0h.41v.09h-.39a.1.1,0,0,0-.05,0s0,0,0,.06a.11.11,0,0,0,0,.08l.05.05.11,0h.28v.09h-.53v-.08Z" transform="translate(-2.25 -2.47)"/><path class="cls-3" d="M166.4,257.82h-.08a.2.2,0,0,1,0-.07.19.19,0,0,1,0-.08s0,0,0,0a.23.23,0,0,1,.11,0h.3v-.06h.07v.06H167l.06.09h-.19v.1h-.07v-.1h-.38v.08Z" transform="translate(-2.25 -2.47)"/><path class="cls-3" d="M166.32,257.9h.74V258h-.27a.25.25,0,0,1,.05.27l-.06.06-.12,0h-.34v-.09h.34a.15.15,0,0,0,.1,0,.12.12,0,0,0,0-.09.19.19,0,0,0,0-.07.13.13,0,0,0-.06-.05l-.1,0h-.29v-.09Z" transform="translate(-2.25 -2.47)"/><path class="cls-3" d="M166.39,258.82a.24.24,0,0,1-.06-.09.2.2,0,0,1,0-.1.2.2,0,0,1,0-.14.16.16,0,0,1,.11-.05l.07,0,.05.05a.09.09,0,0,1,0,.06s0,.05,0,.08a.91.91,0,0,0,0,.16h0s.06,0,.08,0a.15.15,0,0,0,0-.1.22.22,0,0,0,0-.1l-.08,0v-.09a.19.19,0,0,1,.09,0,.17.17,0,0,1,.06.08.41.41,0,0,1,0,.12.34.34,0,0,1,0,.11.15.15,0,0,1,0,.06l-.06,0h-.37l-.06,0v-.1l.07,0Zm.2,0a.54.54,0,0,1,0-.15.13.13,0,0,0,0-.08.05.05,0,0,0,0,0h0l-.06,0a.15.15,0,0,0,0,.08.29.29,0,0,0,0,.09.17.17,0,0,0,.06.06l.09,0Z" transform="translate(-2.25 -2.47)"/><path class="cls-3" d="M166.56,259.31v.09l-.09,0a.16.16,0,0,0-.05.08.2.2,0,0,0,0,.11.3.3,0,0,0,0,.1.1.1,0,0,0,.05.06.1.1,0,0,0,.12,0,.09.09,0,0,0,0-.06s0-.07,0-.13l0-.15.07-.08.09,0a.2.2,0,0,1,.11,0,.16.16,0,0,1,.07.09.34.34,0,0,1,0,.28.25.25,0,0,1-.08.1.2.2,0,0,1-.11,0v-.09a.14.14,0,0,0,.11,0,.3.3,0,0,0,0-.26.12.12,0,0,0-.08,0,.07.07,0,0,0-.06,0,.37.37,0,0,0-.06.15.71.71,0,0,1,0,.16.27.27,0,0,1-.08.1.17.17,0,0,1-.1,0,.21.21,0,0,1-.11,0,.14.14,0,0,1-.08-.09.37.37,0,0,1,0-.15.38.38,0,0,1,0-.16.31.31,0,0,1,.08-.11.33.33,0,0,1,.14,0Z" transform="translate(-2.25 -2.47)"/><path class="cls-3" d="M166.39,260.37a.37.37,0,0,1-.06-.1.18.18,0,0,1,0-.1.21.21,0,0,1,0-.14.15.15,0,0,1,.11,0h.07l.05.05a.09.09,0,0,1,0,.07s0,0,0,.08a1.57,1.57,0,0,0,0,.16h0a.1.1,0,0,0,.08,0,.13.13,0,0,0,0-.1.2.2,0,0,0,0-.09.16.16,0,0,0-.08-.05V260a.19.19,0,0,1,.09,0,.24.24,0,0,1,.06.08.49.49,0,0,1,0,.12.34.34,0,0,1,0,.11.16.16,0,0,1,0,.07l-.06,0h-.37l-.06,0v-.1Zm.2,0a.46.46,0,0,1,0-.15.15.15,0,0,0,0-.08s0,0,0,0l0,0a.09.09,0,0,0-.06,0,.19.19,0,0,0,0,.08.2.2,0,0,0,0,.09.17.17,0,0,0,.06.06.22.22,0,0,0,.1,0Z" transform="translate(-2.25 -2.47)"/><path class="cls-3" d="M166.48,260.55v.09l-.08,0a.17.17,0,0,0,0,.1.12.12,0,0,0,0,.09.06.06,0,0,0,.06,0l.05,0a.33.33,0,0,1,0-.1.5.5,0,0,1,0-.13.1.1,0,0,1,0-.06.1.1,0,0,1,.07,0h.07a.12.12,0,0,1,.05.05.08.08,0,0,1,0,.06.17.17,0,0,1,0,.07.34.34,0,0,1,0,.11.16.16,0,0,1,0,.08l-.08,0,0-.09.07,0a.15.15,0,0,0,0-.08.2.2,0,0,0,0-.09.05.05,0,0,0-.05,0l0,0s0,0,0,0,0,0,0,.08a.5.5,0,0,1,0,.13s0,0,0,.06a.09.09,0,0,1-.07,0l-.09,0a.12.12,0,0,1-.06-.08.36.36,0,0,1,0-.11.25.25,0,0,1,0-.16.23.23,0,0,1,.13-.07Z" transform="translate(-2.25 -2.47)"/><path class="cls-3" d="M167,261.1h.11v.09H167Zm-.63,0h.53v.09h-.53Z" transform="translate(-2.25 -2.47)"/><path class="cls-3" d="M166.32,261.33h.74v.09h-.27a.21.21,0,0,1,.08.16.15.15,0,0,1,0,.1.13.13,0,0,1-.06.07l-.12,0h-.34v-.1h.34a.15.15,0,0,0,.1,0,.12.12,0,0,0,0-.09.14.14,0,0,0,0-.07.13.13,0,0,0-.06-.05l-.1,0h-.29v-.09Z" transform="translate(-2.25 -2.47)"/><path class="cls-3" d="M166.39,262.25a.27.27,0,0,1-.06-.1.15.15,0,0,1,0-.09.2.2,0,0,1,0-.14.16.16,0,0,1,.11-.05l.07,0,.05.05a.09.09,0,0,1,0,.06s0,.05,0,.08a.91.91,0,0,0,0,.16h0s.07,0,.08,0a.18.18,0,0,0,0-.11.2.2,0,0,0,0-.09l-.08,0v-.09a.19.19,0,0,1,.09,0,.17.17,0,0,1,.06.08.37.37,0,0,1,0,.12.36.36,0,0,1,0,.11.09.09,0,0,1,0,.06l-.06,0h-.36l-.07,0v-.09l.07,0Zm.2,0a.84.84,0,0,1,0-.14.54.54,0,0,0,0-.08l0,0h0l-.06,0a.13.13,0,0,0,0,.08.29.29,0,0,0,0,.09.13.13,0,0,0,.07.06h.12Z" transform="translate(-2.25 -2.47)"/><path class="cls-3" d="M166.32,262.47h.53v.09h-.08s.07,0,.08.05a.14.14,0,0,1,0,.06.16.16,0,0,1,0,.09l-.09,0a.1.1,0,0,0,0-.12l-.05,0-.1,0h-.28v-.09Z" transform="translate(-2.25 -2.47)"/><path class="cls-3" d="M166.39,263.17a.37.37,0,0,1-.06-.1.36.36,0,0,1,0-.1.2.2,0,0,1,0-.14.15.15,0,0,1,.11,0h.07l.06.05a.14.14,0,0,1,0,.07s0,0,0,.08a1.57,1.57,0,0,0,0,.16h0s.07,0,.08,0a.13.13,0,0,0,0-.1.25.25,0,0,0,0-.1l-.08,0v-.09a.19.19,0,0,1,.09,0,.24.24,0,0,1,.06.08.5.5,0,0,1,0,.12.31.31,0,0,1,0,.11.16.16,0,0,1,0,.07l-.06,0h-.36l-.07,0v-.1Zm.2,0a.49.49,0,0,1,0-.15.45.45,0,0,1,0-.08l0,0h0a.09.09,0,0,0-.06,0,.15.15,0,0,0,0,.08.24.24,0,0,0,0,.09.13.13,0,0,0,.07.06l.09,0Z" transform="translate(-2.25 -2.47)"/><path class="cls-3" d="M166.32,263.39h.53v.08h-.07a.19.19,0,0,1,.09.17.29.29,0,0,1,0,.09.1.1,0,0,1,0,.06l-.06,0h-.42v-.09h.41l0,0a.11.11,0,0,0,0-.06.13.13,0,0,0,0-.1s-.07,0-.14,0h-.29v-.09Z" transform="translate(-2.25 -2.47)"/><path class="cls-3" d="M166.41,264.7h-.09v-.49h.07l.09.06.11.12a1.17,1.17,0,0,0,.16.16.17.17,0,0,0,.11,0,.12.12,0,0,0,.09,0,.14.14,0,0,0,0-.2.14.14,0,0,0-.11,0v-.09a.22.22,0,0,1,.16.07.25.25,0,0,1,.05.16.22.22,0,0,1-.06.17.2.2,0,0,1-.14.06h-.09l-.09-.06-.13-.14-.09-.11a.1.1,0,0,1-.05,0v.37Z" transform="translate(-2.25 -2.47)"/><path class="cls-3" d="M166.68,264.79a.69.69,0,0,1,.22,0,.25.25,0,0,1,.12.08.18.18,0,0,1,0,.13.36.36,0,0,1,0,.11.23.23,0,0,1-.07.07l-.11,0a.44.44,0,0,1-.18,0l-.2,0a.32.32,0,0,1-.13-.08.21.21,0,0,1,0-.14.17.17,0,0,1,.08-.16.46.46,0,0,1,.29-.08Zm0,.1a.45.45,0,0,0-.24,0,.12.12,0,0,0-.06.1.14.14,0,0,0,.06.11.57.57,0,0,0,.24,0,.6.6,0,0,0,.25,0A.14.14,0,0,0,167,265a.12.12,0,0,0-.06-.1A.47.47,0,0,0,166.68,264.89Z" transform="translate(-2.25 -2.47)"/><path class="cls-3" d="M166.32,265.7v-.09h.58l-.06-.08-.05-.1h.09a.64.64,0,0,0,.08.14l.1.08v.05Z" transform="translate(-2.25 -2.47)"/><path class="cls-3" d="M166.88,266.4v-.09a.1.1,0,0,0,.08,0,.13.13,0,0,0,0-.09.13.13,0,0,0,0-.08.2.2,0,0,0-.09-.06.37.37,0,0,0-.17,0,.2.2,0,0,1,.08.08.36.36,0,0,1,0,.1.18.18,0,0,1-.07.15.21.21,0,0,1-.17.07.31.31,0,0,1-.13,0,.24.24,0,0,1-.09-.08.27.27,0,0,1,0-.12.26.26,0,0,1,.08-.19.43.43,0,0,1,.28-.07.52.52,0,0,1,.31.08.25.25,0,0,1,.08.18.25.25,0,0,1-.05.15.18.18,0,0,1-.13.06Zm-.32-.37-.09,0a.1.1,0,0,0-.06.05.13.13,0,0,0,0,.08.12.12,0,0,0,.05.09.17.17,0,0,0,.13.05.17.17,0,0,0,.12-.05.15.15,0,0,0,0-.1.18.18,0,0,0,0-.1A.17.17,0,0,0,166.56,266Z" transform="translate(-2.25 -2.47)"/></svg>