<?xml version="1.0" encoding="UTF-8" standalone="no"?><!DOCTYPE svg PUBLIC "-//W3C//DTD SVG 1.1//EN" "http://www.w3.org/Graphics/SVG/1.1/DTD/svg11.dtd"><svg width="100%" height="100%" viewBox="0 0 360 360" version="1.1" xmlns="http://www.w3.org/2000/svg" xmlns:xlink="http://www.w3.org/1999/xlink" xml:space="preserve" xmlns:serif="http://www.serif.com/" style="fill-rule:evenodd;clip-rule:evenodd;stroke-miterlimit:1.41421;"><g><path d="M179.609,208.954c0,0 26.598,12.208 26.621,12.208" style="fill:none;stroke:#a5a3a2;stroke-width:2px;"/><path d="M180.486,209.055c0,0 -26.599,12.208 -26.622,12.208" style="fill:none;stroke:#a5a3a2;stroke-width:2px;"/><path d="M209.817,220.053c2.868,0 5.197,2.353 5.197,5.252c0,2.898 -2.329,5.253 -5.197,5.253c-2.869,0 -5.197,-2.355 -5.197,-5.253c0,-2.899 2.328,-5.252 5.197,-5.252Z" style="fill:none;stroke:#a5a3a2;stroke-width:2px;"/><path d="M229.721,245.755c2.868,0 5.197,2.354 5.197,5.252c0,2.899 -2.329,5.252 -5.197,5.252c-2.868,0 -5.197,-2.353 -5.197,-5.252c0,-2.898 2.329,-5.252 5.197,-5.252Z" style="fill:none;stroke:#a5a3a2;stroke-width:2px;"/><path d="M228.323,245.755c0,0 -14.843,-16.35 -14.856,-16.35" style="fill:none;stroke:#a5a3a2;stroke-width:2px;"/><path d="M209.817,271.286c2.868,0 5.197,2.354 5.197,5.252c0,2.899 -2.329,5.252 -5.197,5.252c-2.869,0 -5.197,-2.353 -5.197,-5.252c0,-2.898 2.328,-5.252 5.197,-5.252Z" style="fill:none;stroke:#a5a3a2;stroke-width:2px;"/><path d="M208.419,271.286c0,0 -14.843,-16.35 -14.856,-16.35" style="fill:none;stroke:#a5a3a2;stroke-width:2px;"/><path d="M190.113,245.654c-2.868,0 -5.197,2.353 -5.197,5.252c0,2.899 2.329,5.252 5.197,5.252c2.868,0 5.197,-2.353 5.197,-5.252c0,-2.899 -2.329,-5.252 -5.197,-5.252Z" style="fill:none;stroke:#a5a3a2;stroke-width:2px;"/><path d="M150.283,271.286c2.868,0 5.197,2.354 5.197,5.252c0,2.899 -2.329,5.252 -5.197,5.252c-2.869,0 -5.197,-2.353 -5.197,-5.252c0,-2.898 2.328,-5.252 5.197,-5.252Z" style="fill:none;stroke:#a5a3a2;stroke-width:2px;"/><path d="M148.885,271.286c0,0 -14.844,-16.35 -14.857,-16.35" style="fill:none;stroke:#a5a3a2;stroke-width:2px;"/><path d="M129.921,245.755c-2.868,0 -5.197,2.354 -5.197,5.252c0,2.899 2.329,5.252 5.197,5.252c2.868,0 5.197,-2.353 5.197,-5.252c0,-2.898 -2.329,-5.252 -5.197,-5.252Z" style="fill:none;stroke:#a5a3a2;stroke-width:2px;"/><path d="M191.126,245.755c0,0 14.843,-16.35 14.856,-16.35" style="fill:none;stroke:#a5a3a2;stroke-width:2px;"/><path d="M150.278,220.154c-2.868,0 -5.197,2.353 -5.197,5.252c0,2.899 2.329,5.253 5.197,5.253c2.868,0 5.197,-2.354 5.197,-5.253c0,-2.899 -2.329,-5.252 -5.197,-5.252Z" style="fill:none;stroke:#a5a3a2;stroke-width:2px;"/><path d="M131.671,245.755c0,0 14.844,-16.35 14.856,-16.35" style="fill:none;stroke:#a5a3a2;stroke-width:2px;"/><path d="M170.26,245.755c2.869,0 5.197,2.354 5.197,5.252c0,2.899 -2.328,5.252 -5.197,5.252c-2.868,0 -5.197,-2.353 -5.197,-5.252c0,-2.898 2.329,-5.252 5.197,-5.252Z" style="fill:none;stroke:#a5a3a2;stroke-width:2px;"/><path d="M168.868,245.755c0,0 -14.843,-16.35 -14.856,-16.35" style="fill:none;stroke:#a5a3a2;stroke-width:2px;"/><path d="M129.821,296.82c-2.869,0 -5.197,2.353 -5.197,5.252c0,2.899 2.328,5.252 5.197,5.252c2.868,0 5.197,-2.353 5.197,-5.252c0,-2.899 -2.329,-5.252 -5.197,-5.252Z" style="fill:none;stroke:#a5a3a2;stroke-width:2px;"/><path d="M131.571,296.82c0,0 14.843,-16.351 14.856,-16.351" style="fill:none;stroke:#a5a3a2;stroke-width:2px;"/><path d="M170.16,296.82c2.868,0 5.197,2.353 5.197,5.252c0,2.899 -2.329,5.252 -5.197,5.252c-2.869,0 -5.197,-2.353 -5.197,-5.252c0,-2.899 2.328,-5.252 5.197,-5.252Z" style="fill:none;stroke:#a5a3a2;stroke-width:2px;"/><path d="M168.768,296.82c0,0 -14.844,-16.351 -14.857,-16.351" style="fill:none;stroke:#a5a3a2;stroke-width:2px;"/><path d="M202.497,78.094l-5.151,-0.135l-3.659,-3.384l0,-3.912" style="fill:none;stroke:#676666;stroke-width:1.2px;"/><rect x="177.996" y="92.565" width="4" height="99.175" style="fill:#676666;"/><rect x="186.787" y="98.408" width="4" height="92.733" style="fill:#676666;"/><rect x="169.173" y="111.617" width="4" height="79.883" style="fill:#676666;"/><rect x="160.594" y="146.386" width="4" height="44.874" style="fill:#676666;"/><path d="M189.048,139.885l8.833,-7.463" style="fill:none;stroke:#676666;stroke-width:2px;"/><path d="M190.348,116.633l6.766,-6.696l0,-7.107" style="fill:none;stroke:#676666;stroke-width:1.4px;"/><path d="M171.294,130.099l-11.024,-11.024" style="fill:none;stroke:#676666;stroke-width:1.5px;"/><rect x="195.403" y="150.766" width="4" height="40.5" style="fill:#676666;"/><path d="M181.944,92.525l-2.038,2.201l-23.167,-21.442l2.037,-2.202l23.168,21.443Z" style="fill:#676666;"/><path d="M204.522,59.199l-0.017,25.722l-15.595,15.595l-2.121,-2.121l14.717,-14.717l0.016,-24.481l3,0.002Z" style="fill:#676666;"/><path d="M121.216,128.264l24.577,0l0,3l-25.82,0l-16.889,-16.89l2.121,-2.121l16.011,16.011Z" style="fill:#676666;"/><path d="M112.457,119.873l11.053,-14.58l10.026,0" style="fill:none;stroke:#676666;stroke-width:1.5px;"/><path d="M173.125,111.601l-2.121,2.122l-16.609,-16.61l2.121,-2.121l16.609,16.609Z" style="fill:#676666;"/><rect x="149.396" y="95.01" width="7.14" height="3.001" style="fill:#676666;"/><rect x="102.215" y="181.974" width="156.528" height="28" style="fill:#b2d34e;"/><path d="M102.212,202.608l156.534,0.006" style="fill:#f5f3f4;"/><path d="M102.212,202.608l156.534,0.006" style="fill:none;stroke:#fff;stroke-width:0.6px;"/><path d="M102.212,206.688l156.534,0.006" style="fill:#f5f3f4;"/><path d="M102.212,206.688l156.534,0.006" style="fill:none;stroke:#fff;stroke-width:0.2px;"/><path d="M148.05,114.521l-0.175,14.532l16.699,17.321l-2.16,2.083l-17.554,-18.209l0.19,-15.763l3,0.036Z" style="fill:#676666;"/><path d="M231.08,119.16l-33.635,33.635l-2.051,-2.05l33.636,-33.635l2.05,2.05Z" style="fill:#676666;"/><path d="M224.244,122.903l0,-11.862" style="fill:none;stroke:#676666;stroke-width:1.5px;"/><path d="M224.024,111.57l9.835,-9.834" style="fill:none;stroke:#676666;stroke-width:1.5px;"/><path d="M216.638,132.076l16.791,0l4.87,4.869" style="fill:none;stroke:#676666;stroke-width:2px;"/><path d="M233.836,131.751l6.768,-6.654" style="fill:none;stroke:#676666;stroke-width:1px;"/><path d="M197.524,133.19l0,-11.25l13.802,-13.801l0,-7.8" style="fill:none;stroke:#676666;stroke-width:2px;"/><path d="M211.047,101.047l13.724,-13.724l0,-11.837" style="fill:none;stroke:#676666;stroke-width:2px;"/><path d="M174.343,86.264l11.398,-11.398l0,-22.057" style="fill:none;stroke:#676666;stroke-width:1.8px;"/><path d="M181.055,79.24l-5.367,-5.367l0,-11.72l-5.21,-5.21l0,-5.145" style="fill:none;stroke:#676666;stroke-width:2px;"/><path d="M172.904,59.864l4.644,-4.644l0,-14.979" style="fill:none;stroke:#676666;stroke-width:1px;"/><path d="M150.293,97.13l-1.375,-1.376l-5.661,-5.661l-7.648,0l-6.389,0" style="fill:none;stroke:#676666;stroke-width:2.5px;"/><path d="M142.956,89.106l0,-5.321l-9.221,-6.581l-11.735,0" style="fill:none;stroke:#676666;stroke-width:1.5px;"/><path d="M198.217,52.895l6.302,6.303l-2.121,2.121l-7.181,-7.181l0,-18.923l3,0l0,17.68Z" style="fill:#676666;"/><path d="M204.203,69.554l5.599,-5.599l0,-18.62" style="fill:none;stroke:#676666;stroke-width:1px;"/><path d="M218.48,93.668l12.591,0l8.625,-8.625" style="fill:none;stroke:#676666;stroke-width:2px;"/><path d="M231.494,93.669l16.222,0l6.138,-5.418" style="fill:none;stroke:#676666;stroke-width:2px;"/><path d="M239.403,85.745l0,-19.471" style="fill:none;stroke:#676666;stroke-width:2px;"/><path d="M239.398,79.87l15.718,-15.717" style="fill:none;stroke:#676666;stroke-width:1.5px;"/><path d="M205.235,142.952l0,-12.729" style="fill:none;stroke:#676666;stroke-width:1.3px;"/><path d="M146.53,140.248l-4.183,4.183" style="fill:none;stroke:#676666;stroke-width:1.2px;"/><path d="M146.15,140.402l9.991,0" style="fill:none;stroke:#676666;stroke-width:1.2px;"/><path d="M196.641,26.6c2.397,0 4.343,1.926 4.343,4.298c0,2.372 -1.946,4.298 -4.343,4.298c-2.396,0 -4.342,-1.926 -4.342,-4.298c0,-2.372 1.946,-4.298 4.342,-4.298Z" style="fill:none;stroke:#676666;stroke-width:1.5px;"/><path d="M186.043,48.984c1.103,0.163 1.867,1.182 1.706,2.274c-0.162,1.091 -1.188,1.845 -2.291,1.682c-1.103,-0.164 -1.867,-1.182 -1.706,-2.274c0.161,-1.091 1.188,-1.845 2.291,-1.682Z" style="fill:none;stroke:#676666;stroke-width:0.9px;"/><path d="M170.806,45.761c1.656,0.245 2.803,1.774 2.561,3.412c-0.242,1.638 -1.783,2.77 -3.439,2.525c-1.656,-0.245 -2.803,-1.774 -2.561,-3.412c0.243,-1.639 1.784,-2.77 3.439,-2.525Z" style="fill:none;stroke:#676666;stroke-width:0.8px;"/><path d="M141.452,143.668c1.279,0 2.317,1.028 2.317,2.293c0,1.265 -1.038,2.292 -2.317,2.292c-1.278,0 -2.316,-1.027 -2.316,-2.292c0,-1.265 1.038,-2.293 2.316,-2.293Z" style="fill:none;stroke:#676666;stroke-width:1px;"/><path d="M135.712,102.896c1.278,0 2.316,1.027 2.316,2.292c0,1.266 -1.038,2.293 -2.316,2.293c-1.279,0 -2.317,-1.027 -2.317,-2.293c0,-1.265 1.038,-2.292 2.317,-2.292Z" style="fill:none;stroke:#676666;stroke-width:1px;"/><path d="M120.316,75.538c0.918,0 1.664,0.738 1.664,1.646c0,0.909 -0.746,1.647 -1.664,1.647c-0.918,0 -1.663,-0.738 -1.663,-1.647c0,-0.908 0.745,-1.646 1.663,-1.646Z" style="fill:none;stroke:#676666;stroke-width:0.6px;"/><path d="M147.879,72.629c0.918,0 1.663,0.738 1.663,1.646c0,0.909 -0.745,1.647 -1.663,1.647c-0.918,0 -1.664,-0.738 -1.664,-1.647c0,-0.908 0.746,-1.646 1.664,-1.646Z" style="fill:none;stroke:#676666;stroke-width:1px;"/><path d="M177.427,35.125c1.308,0 2.369,1.062 2.369,2.37c0,1.308 -1.061,2.37 -2.369,2.37c-1.308,0 -2.37,-1.062 -2.37,-2.37c0,-1.308 1.062,-2.37 2.37,-2.37Z" style="fill:#676666;"/><path d="M177.427,35.125c1.308,0 2.369,1.062 2.369,2.37c0,1.308 -1.061,2.37 -2.369,2.37c-1.308,0 -2.37,-1.062 -2.37,-2.37c0,-1.308 1.062,-2.37 2.37,-2.37Z" style="fill:none;stroke:#676666;stroke-width:1.5px;"/><path d="M193.655,67.04c0.912,0 1.653,0.741 1.653,1.653c0,0.912 -0.741,1.653 -1.653,1.653c-0.912,0 -1.653,-0.741 -1.653,-1.653c0,-0.912 0.741,-1.653 1.653,-1.653Z" style="fill:#676666;"/><path d="M193.655,67.04c0.912,0 1.653,0.741 1.653,1.653c0,0.912 -0.741,1.653 -1.653,1.653c-0.912,0 -1.653,-0.741 -1.653,-1.653c0,-0.912 0.741,-1.653 1.653,-1.653Z" style="fill:none;stroke:#676666;stroke-width:1.5px;"/><path d="M255.423,61.069c1.217,0 2.207,0.989 2.207,2.207c0,1.219 -0.99,2.208 -2.207,2.208c-1.218,0 -2.208,-0.989 -2.208,-2.208c0,-1.218 0.99,-2.207 2.208,-2.207Z" style="fill:#676666;"/><path d="M255.423,61.069c1.217,0 2.207,0.989 2.207,2.207c0,1.219 -0.99,2.208 -2.207,2.208c-1.218,0 -2.208,-0.989 -2.208,-2.208c0,-1.218 0.99,-2.207 2.208,-2.207Z" style="fill:none;stroke:#676666;stroke-width:1.5px;"/><path d="M246.7,98.024c0.93,0 1.686,0.755 1.686,1.686c0,0.929 -0.756,1.685 -1.686,1.685c-0.93,0 -1.685,-0.756 -1.685,-1.685c0,-0.931 0.755,-1.686 1.685,-1.686Z" style="fill:#676666;"/><path d="M246.7,98.024c0.93,0 1.686,0.755 1.686,1.686c0,0.929 -0.756,1.685 -1.686,1.685c-0.93,0 -1.685,-0.756 -1.685,-1.685c0,-0.931 0.755,-1.686 1.685,-1.686Z" style="fill:none;stroke:#676666;stroke-width:1.5px;"/><path d="M205.285,126.985c0.783,0 1.418,0.635 1.418,1.418c0,0.782 -0.635,1.418 -1.418,1.418c-0.783,0 -1.418,-0.636 -1.418,-1.418c0,-0.783 0.635,-1.418 1.418,-1.418Z" style="fill:#676666;"/><path d="M205.285,126.985c0.783,0 1.418,0.635 1.418,1.418c0,0.782 -0.635,1.418 -1.418,1.418c-0.783,0 -1.418,-0.636 -1.418,-1.418c0,-0.783 0.635,-1.418 1.418,-1.418Z" style="fill:none;stroke:#676666;stroke-width:1.5px;"/><path d="M231.375,114.94c1.025,0 1.858,0.832 1.858,1.857c0,1.025 -0.833,1.858 -1.858,1.858c-1.025,0 -1.857,-0.833 -1.857,-1.858c0,-1.025 0.832,-1.857 1.857,-1.857Z" style="fill:#676666;"/><path d="M231.375,114.94c1.025,0 1.858,0.832 1.858,1.857c0,1.025 -0.833,1.858 -1.858,1.858c-1.025,0 -1.857,-0.833 -1.857,-1.858c0,-1.025 0.832,-1.857 1.857,-1.857Z" style="fill:none;stroke:#676666;stroke-width:1.5px;"/><path d="M159.226,83.788c0.61,0 1.105,0.495 1.105,1.105c0,0.61 -0.495,1.105 -1.105,1.105c-0.61,0 -1.105,-0.495 -1.105,-1.105c0,-0.61 0.495,-1.105 1.105,-1.105Z" style="fill:#676666;"/><path d="M159.226,83.788c0.61,0 1.105,0.495 1.105,1.105c0,0.61 -0.495,1.105 -1.105,1.105c-0.61,0 -1.105,-0.495 -1.105,-1.105c0,-0.61 0.495,-1.105 1.105,-1.105Z" style="fill:none;stroke:#676666;stroke-width:1.5px;"/><path d="M197.016,100.416c0.609,0 1.105,0.496 1.105,1.105c0,0.611 -0.496,1.105 -1.105,1.105c-0.61,0 -1.106,-0.494 -1.106,-1.105c0,-0.609 0.496,-1.105 1.106,-1.105Z" style="fill:#676666;"/><path d="M197.016,100.416c0.609,0 1.105,0.496 1.105,1.105c0,0.611 -0.496,1.105 -1.105,1.105c-0.61,0 -1.106,-0.494 -1.106,-1.105c0,-0.609 0.496,-1.105 1.106,-1.105Z" style="fill:none;stroke:#676666;stroke-width:1.5px;"/><path d="M159.559,117.019c0.61,0 1.105,0.495 1.105,1.105c0,0.61 -0.495,1.106 -1.105,1.106c-0.61,0 -1.105,-0.496 -1.105,-1.106c0,-0.61 0.495,-1.105 1.105,-1.105Z" style="fill:#676666;"/><path d="M159.559,117.019c0.61,0 1.105,0.495 1.105,1.105c0,0.61 -0.495,1.106 -1.105,1.106c-0.61,0 -1.105,-0.496 -1.105,-1.106c0,-0.61 0.495,-1.105 1.105,-1.105Z" style="fill:none;stroke:#676666;stroke-width:1.5px;"/><path d="M239.161,136.142c1.386,0 2.511,1.125 2.511,2.511c0,1.385 -1.125,2.51 -2.511,2.51c-1.386,0 -2.511,-1.125 -2.511,-2.51c0,-1.386 1.125,-2.511 2.511,-2.511Z" style="fill:#676666;"/><path d="M239.161,136.142c1.386,0 2.511,1.125 2.511,2.511c0,1.385 -1.125,2.51 -2.511,2.51c-1.386,0 -2.511,-1.125 -2.511,-2.51c0,-1.386 1.125,-2.511 2.511,-2.511Z" style="fill:none;stroke:#676666;stroke-width:1.5px;"/><path d="M146.632,109.21c1.543,0 2.796,1.228 2.796,2.741c0,1.513 -1.253,2.741 -2.796,2.741c-1.543,0 -2.796,-1.228 -2.796,-2.741c0,-1.513 1.253,-2.741 2.796,-2.741Z" style="fill:#676666;"/><path d="M146.632,109.21c1.543,0 2.796,1.228 2.796,2.741c0,1.513 -1.253,2.741 -2.796,2.741c-1.543,0 -2.796,-1.228 -2.796,-2.741c0,-1.513 1.253,-2.741 2.796,-2.741Z" style="fill:none;stroke:#676666;stroke-width:1.5px;"/><path d="M207.666,112.581l6.118,6.119" style="fill:none;stroke:#676666;stroke-width:1.2px;"/><path d="M215.579,118.16c1.526,0 2.765,1.225 2.765,2.735c0,1.51 -1.239,2.736 -2.765,2.736c-1.525,0 -2.764,-1.226 -2.764,-2.736c0,-1.51 1.239,-2.735 2.764,-2.735Z" style="fill:none;stroke:#676666;stroke-width:1px;"/><path d="M235.036,98.375c1.148,0 2.08,0.922 2.08,2.059c0,1.136 -0.932,2.058 -2.08,2.058c-1.148,0 -2.08,-0.922 -2.08,-2.058c0,-1.137 0.932,-2.059 2.08,-2.059Z" style="fill:none;stroke:#676666;stroke-width:0.6px;"/><path d="M239.34,60.76c1.615,0 2.926,1.297 2.926,2.895c0,1.598 -1.311,2.895 -2.926,2.895c-1.615,0 -2.926,-1.297 -2.926,-2.895c0,-1.598 1.311,-2.895 2.926,-2.895Z" style="fill:none;stroke:#676666;stroke-width:0.6px;"/><path d="M242.962,119.231c2.043,0 3.702,1.642 3.702,3.664c0,2.022 -1.659,3.664 -3.702,3.664c-2.043,0 -3.702,-1.642 -3.702,-3.664c0,-2.022 1.659,-3.664 3.702,-3.664Z" style="fill:none;stroke:#676666;stroke-width:1.2px;"/><path d="M255.168,82.239c1.78,0 3.225,1.43 3.225,3.192c0,1.762 -1.445,3.192 -3.225,3.192c-1.78,0 -3.226,-1.43 -3.226,-3.192c0,-1.762 1.446,-3.192 3.226,-3.192Z" style="fill:none;stroke:#676666;stroke-width:1.9px;"/><path d="M209.802,42.533c0.631,0 1.144,0.513 1.144,1.144c0,0.631 -0.513,1.143 -1.144,1.143c-0.631,0 -1.143,-0.512 -1.143,-1.143c0,-0.631 0.512,-1.144 1.143,-1.144Z" style="fill:#676666;"/><path d="M209.802,42.533c0.631,0 1.144,0.513 1.144,1.144c0,0.631 -0.513,1.143 -1.144,1.143c-0.631,0 -1.143,-0.512 -1.143,-1.143c0,-0.631 0.512,-1.144 1.143,-1.144Z" style="fill:none;stroke:#676666;stroke-width:1.5px;"/><path d="M224.713,73.036c0.631,0 1.144,0.513 1.144,1.144c0,0.631 -0.513,1.143 -1.144,1.143c-0.631,0 -1.144,-0.512 -1.144,-1.143c0,-0.631 0.513,-1.144 1.144,-1.144Z" style="fill:#676666;"/><path d="M224.713,73.036c0.631,0 1.144,0.513 1.144,1.144c0,0.631 -0.513,1.143 -1.144,1.143c-0.631,0 -1.144,-0.512 -1.144,-1.143c0,-0.631 0.513,-1.144 1.144,-1.144Z" style="fill:none;stroke:#676666;stroke-width:1.5px;"/><path d="M149.475,74.428l5.844,0l4.991,-4.663l0,-7.858" style="fill:none;stroke:#676666;stroke-width:1.4px;"/><path d="M170.441,84.968l-9.745,0" style="fill:none;stroke:#676666;stroke-width:0.9px;"/><path d="M126.147,87.282c1.596,0 2.892,1.34 2.892,2.992c0,1.651 -1.296,2.991 -2.892,2.991c-1.596,0 -2.892,-1.34 -2.892,-2.991c0,-1.652 1.296,-2.992 2.892,-2.992Z" style="fill:#676666;"/><path d="M126.147,87.282c1.596,0 2.892,1.34 2.892,2.992c0,1.651 -1.296,2.991 -2.892,2.991c-1.596,0 -2.892,-1.34 -2.892,-2.991c0,-1.652 1.296,-2.992 2.892,-2.992Z" style="fill:none;stroke:#676666;stroke-width:1.5px;"/><path d="M102.893,108.006c1.596,0 2.892,1.34 2.892,2.992c0,1.651 -1.296,2.991 -2.892,2.991c-1.596,0 -2.892,-1.34 -2.892,-2.991c0,-1.652 1.296,-2.992 2.892,-2.992Z" style="fill:#676666;"/><path d="M102.893,108.006c1.596,0 2.892,1.34 2.892,2.992c0,1.651 -1.296,2.991 -2.892,2.991c-1.596,0 -2.892,-1.34 -2.892,-2.991c0,-1.652 1.296,-2.992 2.892,-2.992Z" style="fill:none;stroke:#676666;stroke-width:1.5px;"/><path d="M160.25,58.591c0.805,0 1.459,0.654 1.459,1.46c0,0.806 -0.654,1.46 -1.459,1.46c-0.806,0 -1.46,-0.654 -1.46,-1.46c0,-0.806 0.654,-1.46 1.46,-1.46Z" style="fill:#676666;"/><path d="M160.25,58.591c0.805,0 1.459,0.654 1.459,1.46c0,0.806 -0.654,1.46 -1.459,1.46c-0.806,0 -1.46,-0.654 -1.46,-1.46c0,-0.806 0.654,-1.46 1.46,-1.46Z" style="fill:none;stroke:#676666;stroke-width:1.5px;"/><path d="M241.736,93.796l4.748,4.748" style="fill:none;stroke:#676666;stroke-width:0.9px;"/><path d="M175.035,197.2c0,-1.634 -0.133,-2.667 -0.366,-3.154c-0.034,-0.144 -0.167,-0.402 -0.4,-0.746c-1.134,-1.577 -2.734,-2.351 -4.768,-2.351l-3.7,0l0,-6.023l-5.801,0l0,21.824l5.801,0l0,-11.787l1.633,0c1.167,0 1.734,0.631 1.734,1.893l0,9.894l5.867,0l0,-9.55Z" style="fill:#fff;fill-rule:nonzero;"/><rect x="174.277" y="190.955" width="3.115" height="4.038" style="fill:#fff;"/><path d="M183.31,201.882c-0.1,-0.086 -0.134,-0.631 -0.134,-1.635l0,-5.248l3.301,0l0,-4.043l-3.301,0l0,-4.56l-5.8,0l0,4.56l-2.467,0l0,4.043l2.467,0l0,6.768c0,0.975 0.3,1.864 0.866,2.638c1.167,1.578 2.767,2.352 4.801,2.352l3.434,0l0,-4.445l-1.834,0c-0.567,0 -0.933,-0.086 -1.133,-0.258l-0.2,-0.172Z" style="fill:#fff;fill-rule:nonzero;"/><path d="M192.321,200.218l-2.05,-9.263l-6.121,0l5.08,15.801l6.213,0l5.081,-15.801l-6.091,0l-2.112,9.263Z" style="fill:#fff;fill-rule:nonzero;"/><path d="M196.509,174.27c0,0.038 -0.009,0.074 -0.028,0.11c-0.02,0.036 -0.047,0.063 -0.083,0.083c-0.035,0.02 -0.073,0.03 -0.111,0.03c-0.039,0 -0.076,-0.01 -0.111,-0.029c-0.036,-0.02 -0.063,-0.047 -0.083,-0.082c-0.019,-0.036 -0.029,-0.073 -0.029,-0.111c0,-0.039 0.01,-0.076 0.029,-0.111c0.02,-0.036 0.047,-0.063 0.083,-0.083c0.035,-0.019 0.072,-0.029 0.11,-0.029c0.039,0 0.076,0.01 0.112,0.03c0.036,0.02 0.063,0.047 0.082,0.083c0.02,0.036 0.029,0.072 0.029,0.109Zm-0.037,0c0,-0.031 -0.008,-0.061 -0.024,-0.091c-0.016,-0.029 -0.039,-0.053 -0.068,-0.069c-0.03,-0.017 -0.061,-0.025 -0.094,-0.025c-0.032,0 -0.062,0.008 -0.092,0.024c-0.029,0.017 -0.052,0.04 -0.069,0.069c-0.016,0.03 -0.024,0.061 -0.024,0.093c0,0.032 0.008,0.063 0.024,0.092c0.017,0.03 0.04,0.052 0.069,0.069c0.03,0.016 0.06,0.024 0.093,0.024c0.032,0 0.063,-0.008 0.093,-0.025c0.029,-0.016 0.052,-0.04 0.068,-0.069c0.016,-0.03 0.024,-0.06 0.024,-0.092Zm-0.222,0.072l-0.01,0.036c-0.025,-0.006 -0.044,-0.018 -0.059,-0.037c-0.015,-0.019 -0.022,-0.043 -0.022,-0.07c0,-0.035 0.011,-0.063 0.034,-0.085c0.022,-0.021 0.053,-0.032 0.093,-0.032c0.026,0 0.048,0.005 0.068,0.015c0.019,0.01 0.033,0.024 0.043,0.042c0.01,0.018 0.015,0.039 0.015,0.062c0,0.026 -0.007,0.048 -0.019,0.065c-0.013,0.018 -0.03,0.03 -0.051,0.036l-0.009,-0.035c0.015,-0.006 0.026,-0.015 0.034,-0.026c0.008,-0.012 0.012,-0.025 0.012,-0.041c0,-0.023 -0.009,-0.041 -0.025,-0.056c-0.016,-0.015 -0.039,-0.022 -0.069,-0.022c-0.03,0 -0.053,0.007 -0.068,0.021c-0.016,0.014 -0.024,0.032 -0.024,0.054c0,0.018 0.006,0.033 0.016,0.046c0.01,0.014 0.024,0.023 0.041,0.027Z" style="fill:#676666;fill-rule:nonzero;"/><path d="M196.069,174.626l0.433,0.166l0,0.062l-0.433,0.177l0,-0.065l0.132,-0.051l-0.001,-0.181l-0.131,-0.047l0,-0.061Zm0.178,0.125l0,0.147l0.12,-0.046c0.036,-0.013 0.066,-0.024 0.09,-0.03c-0.028,-0.006 -0.056,-0.014 -0.083,-0.024l-0.127,-0.047Z" style="fill:#676666;fill-rule:nonzero;"/><path d="M196.069,175.07l0.314,0l0,0.048l-0.044,0c0.015,0.009 0.028,0.022 0.037,0.039c0.009,0.016 0.014,0.035 0.014,0.056c0,0.023 -0.005,0.042 -0.014,0.057c-0.01,0.015 -0.023,0.025 -0.041,0.031c0.037,0.025 0.055,0.057 0.055,0.097c0,0.031 -0.008,0.055 -0.026,0.072c-0.017,0.016 -0.043,0.025 -0.079,0.025l-0.215,0l0,-0.053l0.197,0c0.021,0 0.037,-0.002 0.046,-0.005c0.009,-0.004 0.017,-0.01 0.023,-0.019c0.005,-0.009 0.008,-0.02 0.008,-0.032c0,-0.022 -0.007,-0.04 -0.022,-0.055c-0.015,-0.014 -0.038,-0.022 -0.07,-0.022l-0.182,0.001l0,-0.054l0.203,0c0.024,0 0.042,-0.004 0.053,-0.013c0.012,-0.008 0.018,-0.023 0.018,-0.042c0,-0.015 -0.004,-0.029 -0.012,-0.042c-0.008,-0.012 -0.019,-0.022 -0.034,-0.027c-0.015,-0.006 -0.037,-0.009 -0.066,-0.009l-0.162,0l-0.001,-0.053Z" style="fill:#676666;fill-rule:nonzero;"/><path d="M196.441,175.574l0.061,0l0.001,0.053l-0.062,0l0,-0.053Zm-0.371,0l0.313,0l0,0.053l-0.313,0l0,-0.053Z" style="fill:#676666;fill-rule:nonzero;"/><path d="M196.07,175.707l0.313,0l0,0.048l-0.047,0c0.022,0.012 0.037,0.024 0.044,0.034c0.007,0.01 0.01,0.022 0.01,0.034c0,0.018 -0.005,0.036 -0.017,0.055l-0.049,-0.019c0.008,-0.013 0.012,-0.026 0.012,-0.039c0,-0.011 -0.004,-0.022 -0.011,-0.031c-0.007,-0.009 -0.017,-0.016 -0.029,-0.02c-0.019,-0.006 -0.04,-0.008 -0.062,-0.008l-0.164,0l0,-0.054Z" style="fill:#676666;fill-rule:nonzero;"/><path d="M196.07,176.115l0.046,0c-0.035,-0.025 -0.053,-0.058 -0.053,-0.1c0,-0.018 0.003,-0.035 0.01,-0.051c0.007,-0.016 0.016,-0.028 0.027,-0.036c0.011,-0.008 0.024,-0.013 0.04,-0.017c0.01,-0.002 0.026,-0.003 0.049,-0.003l0.194,0l0,0.053l-0.173,0c-0.028,0 -0.047,0.001 -0.057,0.004c-0.014,0.003 -0.025,0.01 -0.032,0.021c-0.008,0.011 -0.012,0.024 -0.012,0.04c0,0.016 0.004,0.031 0.012,0.045c0.008,0.014 0.019,0.024 0.033,0.03c0.014,0.005 0.035,0.008 0.061,0.008l0.168,0l0,0.053l-0.313,0l0,-0.047Z" style="fill:#676666;fill-rule:nonzero;"/><path d="M196.118,176.362l-0.047,0.007c-0.004,-0.015 -0.005,-0.028 -0.005,-0.04c0,-0.019 0.003,-0.034 0.009,-0.045c0.006,-0.01 0.014,-0.018 0.024,-0.022c0.01,-0.004 0.031,-0.007 0.063,-0.007l0.18,0l0,-0.039l0.042,0l0,0.039l0.077,0l0.032,0.053l-0.109,0l0,0.054l-0.042,0l0,-0.054l-0.183,0c-0.015,0 -0.025,0.001 -0.029,0.003c-0.005,0.002 -0.008,0.005 -0.011,0.009c-0.002,0.004 -0.004,0.01 -0.004,0.018c0,0.006 0.001,0.014 0.003,0.024Z" style="fill:#676666;fill-rule:nonzero;"/><path d="M196.07,176.414l0.433,-0.001l0,0.054l-0.155,0c0.028,0.024 0.043,0.056 0.043,0.094c0,0.023 -0.005,0.043 -0.014,0.06c-0.009,0.017 -0.022,0.029 -0.038,0.037c-0.016,0.007 -0.039,0.011 -0.07,0.011l-0.199,0l0,-0.053l0.199,0c0.026,0 0.046,-0.006 0.058,-0.018c0.012,-0.011 0.018,-0.027 0.018,-0.048c0,-0.016 -0.004,-0.031 -0.012,-0.045c-0.008,-0.014 -0.02,-0.024 -0.034,-0.029c-0.014,-0.006 -0.033,-0.009 -0.057,-0.009l-0.172,0l0,-0.053Z" style="fill:#676666;fill-rule:nonzero;"/><path d="M196.109,176.954c-0.017,-0.019 -0.029,-0.038 -0.035,-0.056c-0.007,-0.019 -0.011,-0.038 -0.011,-0.059c0,-0.034 0.009,-0.061 0.025,-0.079c0.017,-0.019 0.039,-0.028 0.065,-0.028c0.015,0 0.029,0.003 0.042,0.01c0.013,0.007 0.023,0.016 0.03,0.028c0.008,0.011 0.014,0.024 0.018,0.038c0.003,0.01 0.005,0.026 0.008,0.047c0.005,0.043 0.011,0.075 0.018,0.095c0.008,0 0.012,0 0.014,0c0.022,0 0.037,-0.005 0.046,-0.015c0.012,-0.013 0.018,-0.034 0.018,-0.06c0,-0.025 -0.005,-0.044 -0.013,-0.056c-0.009,-0.012 -0.025,-0.02 -0.047,-0.026l0.007,-0.052c0.023,0.005 0.04,0.012 0.054,0.023c0.014,0.011 0.024,0.027 0.032,0.047c0.007,0.021 0.011,0.044 0.011,0.071c0,0.027 -0.003,0.049 -0.01,0.066c-0.006,0.016 -0.014,0.029 -0.023,0.036c-0.01,0.008 -0.022,0.014 -0.036,0.017c-0.01,0.002 -0.026,0.003 -0.049,0.003l-0.071,0c-0.05,0 -0.081,0.001 -0.094,0.003c-0.013,0.002 -0.026,0.007 -0.038,0.014l0,-0.056c0.011,-0.005 0.024,-0.009 0.039,-0.011Zm0.119,-0.004c-0.008,-0.019 -0.015,-0.048 -0.02,-0.087c-0.004,-0.022 -0.007,-0.037 -0.011,-0.046c-0.004,-0.009 -0.01,-0.016 -0.017,-0.021c-0.008,-0.005 -0.016,-0.007 -0.026,-0.007c-0.014,0 -0.026,0.005 -0.035,0.016c-0.01,0.01 -0.014,0.026 -0.014,0.047c0,0.02 0.004,0.038 0.013,0.054c0.009,0.016 0.021,0.028 0.037,0.035c0.012,0.006 0.03,0.009 0.053,0.009l0.02,0Z" style="fill:#676666;fill-rule:nonzero;"/><path d="M196.209,177.241l0.005,0.054c-0.021,0.003 -0.039,0.009 -0.053,0.018c-0.014,0.01 -0.025,0.024 -0.034,0.044c-0.008,0.019 -0.013,0.042 -0.013,0.066c0,0.022 0.004,0.041 0.01,0.058c0.007,0.017 0.016,0.029 0.027,0.037c0.011,0.009 0.024,0.013 0.037,0.013c0.014,0 0.025,-0.004 0.036,-0.012c0.01,-0.008 0.018,-0.021 0.025,-0.039c0.005,-0.012 0.012,-0.037 0.021,-0.077c0.01,-0.04 0.019,-0.068 0.027,-0.084c0.011,-0.02 0.024,-0.036 0.04,-0.046c0.016,-0.01 0.034,-0.015 0.054,-0.015c0.022,0 0.043,0.006 0.062,0.018c0.019,0.013 0.033,0.031 0.043,0.055c0.01,0.023 0.015,0.05 0.015,0.079c0,0.032 -0.005,0.06 -0.016,0.085c-0.01,0.024 -0.025,0.043 -0.045,0.057c-0.02,0.013 -0.043,0.02 -0.069,0.021l-0.004,-0.055c0.028,-0.003 0.048,-0.013 0.062,-0.03c0.014,-0.017 0.021,-0.042 0.021,-0.076c0,-0.034 -0.006,-0.059 -0.019,-0.075c-0.013,-0.016 -0.028,-0.024 -0.046,-0.024c-0.015,0 -0.028,0.006 -0.038,0.017c-0.01,0.011 -0.02,0.04 -0.031,0.086c-0.011,0.047 -0.02,0.079 -0.028,0.096c-0.011,0.025 -0.026,0.044 -0.044,0.056c-0.017,0.012 -0.038,0.018 -0.061,0.018c-0.023,0 -0.045,-0.007 -0.065,-0.02c-0.021,-0.013 -0.037,-0.032 -0.048,-0.057c-0.011,-0.024 -0.017,-0.052 -0.017,-0.083c0,-0.039 0.006,-0.072 0.017,-0.099c0.012,-0.026 0.029,-0.047 0.052,-0.062c0.023,-0.015 0.049,-0.023 0.077,-0.024Z" style="fill:#676666;fill-rule:nonzero;"/><path d="M196.109,177.862c-0.016,-0.02 -0.028,-0.039 -0.035,-0.057c-0.007,-0.018 -0.01,-0.038 -0.01,-0.058c0,-0.035 0.008,-0.061 0.025,-0.08c0.017,-0.018 0.038,-0.028 0.064,-0.028c0.016,0 0.03,0.004 0.042,0.011c0.013,0.007 0.023,0.016 0.031,0.027c0.008,0.012 0.013,0.024 0.017,0.038c0.003,0.011 0.006,0.027 0.008,0.048c0.005,0.043 0.012,0.074 0.019,0.094c0.007,0.001 0.012,0.001 0.014,0.001c0.021,0 0.036,-0.005 0.045,-0.015c0.012,-0.014 0.018,-0.034 0.018,-0.061c0,-0.025 -0.004,-0.043 -0.013,-0.055c-0.009,-0.012 -0.024,-0.021 -0.046,-0.027l0.007,-0.052c0.022,0.005 0.04,0.013 0.054,0.024c0.013,0.011 0.024,0.026 0.031,0.047c0.008,0.02 0.011,0.044 0.011,0.071c0,0.027 -0.003,0.048 -0.009,0.065c-0.006,0.017 -0.014,0.029 -0.024,0.037c-0.009,0.008 -0.022,0.013 -0.036,0.016c-0.009,0.002 -0.025,0.003 -0.049,0.003l-0.071,0c-0.049,0 -0.081,0.001 -0.094,0.004c-0.013,0.002 -0.025,0.006 -0.037,0.013l0,-0.055c0.011,-0.006 0.024,-0.009 0.038,-0.011Zm0.119,-0.005c-0.008,-0.019 -0.015,-0.048 -0.02,-0.086c-0.003,-0.022 -0.007,-0.038 -0.011,-0.047c-0.004,-0.009 -0.009,-0.016 -0.017,-0.021c-0.008,-0.005 -0.016,-0.007 -0.025,-0.007c-0.014,0 -0.026,0.005 -0.036,0.016c-0.009,0.011 -0.014,0.027 -0.014,0.047c0,0.021 0.005,0.039 0.014,0.055c0.009,0.016 0.021,0.027 0.036,0.035c0.012,0.006 0.03,0.008 0.054,0.008l0.019,0Z" style="fill:#676666;fill-rule:nonzero;"/><path d="M196.164,177.972l0.009,0.053c-0.021,0.003 -0.038,0.011 -0.049,0.025c-0.011,0.013 -0.017,0.032 -0.017,0.056c0,0.024 0.005,0.043 0.015,0.054c0.01,0.012 0.022,0.018 0.035,0.018c0.012,0 0.022,-0.005 0.029,-0.016c0.004,-0.007 0.01,-0.025 0.018,-0.054c0.009,-0.039 0.018,-0.066 0.025,-0.081c0.007,-0.015 0.017,-0.026 0.03,-0.034c0.013,-0.008 0.027,-0.012 0.042,-0.012c0.014,0 0.027,0.003 0.039,0.01c0.012,0.006 0.022,0.015 0.03,0.026c0.006,0.008 0.011,0.019 0.015,0.034c0.004,0.014 0.006,0.029 0.006,0.046c0,0.024 -0.003,0.046 -0.01,0.064c-0.007,0.019 -0.017,0.033 -0.029,0.042c-0.012,0.008 -0.028,0.014 -0.049,0.018l-0.007,-0.052c0.016,-0.002 0.029,-0.009 0.038,-0.021c0.009,-0.011 0.014,-0.027 0.014,-0.048c0,-0.024 -0.004,-0.041 -0.012,-0.052c-0.009,-0.01 -0.018,-0.016 -0.029,-0.016c-0.007,0 -0.013,0.003 -0.018,0.007c-0.006,0.004 -0.011,0.011 -0.015,0.02c-0.002,0.006 -0.006,0.021 -0.013,0.047c-0.01,0.038 -0.018,0.064 -0.025,0.079c-0.006,0.015 -0.015,0.027 -0.028,0.035c-0.012,0.008 -0.027,0.013 -0.045,0.013c-0.018,0 -0.034,-0.005 -0.05,-0.016c-0.016,-0.01 -0.028,-0.025 -0.036,-0.044c-0.009,-0.02 -0.013,-0.042 -0.013,-0.067c0,-0.04 0.008,-0.071 0.025,-0.093c0.017,-0.021 0.042,-0.035 0.075,-0.041Z" style="fill:#676666;fill-rule:nonzero;"/><path d="M196.443,178.296l0.061,0l0,0.053l-0.061,0l0,-0.053Zm-0.372,0l0.313,0l0,0.053l-0.313,0l0,-0.053Z" style="fill:#676666;fill-rule:nonzero;"/><path d="M196.071,178.43l0.433,0l0,0.053l-0.156,0c0.029,0.025 0.044,0.056 0.044,0.094c0,0.023 -0.005,0.044 -0.014,0.061c-0.009,0.017 -0.022,0.029 -0.038,0.036c-0.016,0.008 -0.04,0.012 -0.07,0.012l-0.199,0l0,-0.054l0.199,0c0.026,0 0.046,-0.005 0.058,-0.017c0.012,-0.011 0.018,-0.028 0.018,-0.049c0,-0.016 -0.004,-0.03 -0.012,-0.044c-0.009,-0.014 -0.02,-0.024 -0.034,-0.03c-0.014,-0.006 -0.033,-0.009 -0.058,-0.009l-0.171,0l0,-0.053Z" style="fill:#676666;fill-rule:nonzero;"/><path d="M196.11,178.971c-0.017,-0.02 -0.029,-0.039 -0.036,-0.057c-0.007,-0.018 -0.01,-0.037 -0.01,-0.058c0,-0.035 0.008,-0.061 0.025,-0.08c0.017,-0.018 0.039,-0.028 0.065,-0.028c0.015,0 0.029,0.004 0.042,0.011c0.012,0.007 0.023,0.016 0.03,0.027c0.008,0.012 0.014,0.024 0.018,0.039c0.003,0.01 0.005,0.026 0.008,0.047c0.005,0.043 0.011,0.074 0.018,0.095c0.007,0 0.012,0 0.014,0c0.022,0 0.037,-0.005 0.046,-0.015c0.012,-0.014 0.018,-0.034 0.018,-0.061c0,-0.025 -0.005,-0.043 -0.013,-0.055c-0.009,-0.012 -0.025,-0.021 -0.047,-0.027l0.007,-0.051c0.022,0.004 0.04,0.012 0.054,0.023c0.014,0.011 0.024,0.026 0.032,0.047c0.007,0.02 0.011,0.044 0.011,0.071c0,0.027 -0.003,0.048 -0.01,0.065c-0.006,0.017 -0.014,0.029 -0.023,0.037c-0.01,0.008 -0.022,0.013 -0.037,0.017c-0.009,0.001 -0.025,0.002 -0.049,0.002l-0.07,0c-0.05,0 -0.081,0.001 -0.094,0.004c-0.013,0.002 -0.026,0.007 -0.038,0.013l0,-0.055c0.011,-0.006 0.024,-0.009 0.039,-0.011Zm0.118,-0.004c-0.007,-0.02 -0.014,-0.049 -0.02,-0.087c-0.003,-0.022 -0.006,-0.038 -0.01,-0.047c-0.004,-0.009 -0.01,-0.016 -0.018,-0.021c-0.007,-0.004 -0.016,-0.007 -0.025,-0.007c-0.014,0 -0.026,0.005 -0.035,0.016c-0.01,0.011 -0.014,0.027 -0.014,0.047c0,0.021 0.004,0.039 0.013,0.055c0.009,0.016 0.021,0.028 0.037,0.035c0.012,0.006 0.03,0.009 0.053,0.009l0.019,0Z" style="fill:#676666;fill-rule:nonzero;"/><path d="M196.071,179.102l0.314,0l0,0.048l-0.048,0c0.022,0.012 0.037,0.023 0.044,0.034c0.007,0.01 0.011,0.021 0.011,0.034c0,0.018 -0.006,0.036 -0.017,0.054l-0.05,-0.018c0.008,-0.013 0.012,-0.026 0.012,-0.039c0,-0.012 -0.004,-0.022 -0.011,-0.031c-0.007,-0.009 -0.016,-0.016 -0.029,-0.02c-0.019,-0.006 -0.039,-0.009 -0.062,-0.009l-0.164,0l0,-0.053Z" style="fill:#676666;fill-rule:nonzero;"/><path d="M196.11,179.509c-0.017,-0.02 -0.029,-0.039 -0.035,-0.057c-0.007,-0.018 -0.011,-0.038 -0.011,-0.059c0,-0.034 0.009,-0.061 0.025,-0.079c0.017,-0.019 0.039,-0.028 0.065,-0.028c0.015,0 0.029,0.004 0.042,0.01c0.013,0.007 0.023,0.017 0.031,0.028c0.007,0.011 0.013,0.024 0.017,0.038c0.003,0.011 0.005,0.026 0.008,0.047c0.005,0.043 0.011,0.075 0.018,0.095c0.008,0 0.012,0 0.014,0c0.022,0 0.037,-0.005 0.046,-0.015c0.012,-0.013 0.018,-0.033 0.018,-0.06c0,-0.025 -0.004,-0.044 -0.013,-0.056c-0.009,-0.011 -0.024,-0.02 -0.047,-0.026l0.007,-0.052c0.023,0.005 0.041,0.013 0.054,0.023c0.014,0.011 0.024,0.027 0.032,0.047c0.007,0.021 0.011,0.045 0.011,0.071c0,0.027 -0.003,0.049 -0.009,0.066c-0.007,0.016 -0.015,0.029 -0.024,0.037c-0.01,0.008 -0.022,0.013 -0.036,0.016c-0.009,0.002 -0.026,0.003 -0.049,0.003l-0.071,0c-0.05,0 -0.081,0.001 -0.094,0.003c-0.013,0.003 -0.026,0.007 -0.038,0.014l0,-0.056c0.011,-0.005 0.024,-0.009 0.039,-0.01Zm0.119,-0.005c-0.008,-0.019 -0.015,-0.048 -0.02,-0.087c-0.004,-0.021 -0.007,-0.037 -0.011,-0.046c-0.004,-0.009 -0.01,-0.016 -0.017,-0.021c-0.008,-0.005 -0.016,-0.007 -0.026,-0.007c-0.014,0 -0.026,0.005 -0.035,0.016c-0.009,0.011 -0.014,0.026 -0.014,0.047c0,0.02 0.004,0.039 0.013,0.055c0.009,0.015 0.022,0.027 0.037,0.035c0.012,0.005 0.03,0.008 0.053,0.008l0.02,0Z" style="fill:#676666;fill-rule:nonzero;"/><path d="M196.071,179.64l0.314,0l0,0.048l-0.045,0c0.035,0.023 0.052,0.056 0.052,0.1c0,0.019 -0.003,0.036 -0.01,0.052c-0.007,0.016 -0.016,0.028 -0.027,0.035c-0.011,0.008 -0.024,0.014 -0.039,0.017c-0.01,0.002 -0.027,0.003 -0.052,0.003l-0.192,0l0,-0.053l0.19,0c0.022,0 0.038,-0.002 0.049,-0.006c0.011,-0.004 0.019,-0.012 0.025,-0.022c0.007,-0.011 0.01,-0.023 0.01,-0.037c0,-0.023 -0.007,-0.043 -0.022,-0.059c-0.014,-0.016 -0.041,-0.025 -0.081,-0.025l-0.172,0l0,-0.053Z" style="fill:#676666;fill-rule:nonzero;"/><path d="M196.123,180.409l-0.051,0l0,-0.286c0.012,0 0.025,0.002 0.037,0.006c0.019,0.007 0.038,0.019 0.057,0.035c0.019,0.016 0.041,0.039 0.066,0.07c0.038,0.047 0.069,0.078 0.091,0.095c0.023,0.016 0.044,0.025 0.064,0.025c0.021,0 0.039,-0.008 0.054,-0.023c0.014,-0.015 0.021,-0.035 0.021,-0.059c0,-0.025 -0.007,-0.046 -0.023,-0.061c-0.015,-0.016 -0.036,-0.023 -0.064,-0.023l0.006,-0.055c0.041,0.004 0.072,0.018 0.093,0.042c0.022,0.024 0.032,0.057 0.032,0.098c0,0.042 -0.011,0.075 -0.034,0.099c-0.023,0.024 -0.052,0.036 -0.086,0.036c-0.017,0 -0.034,-0.003 -0.051,-0.01c-0.017,-0.007 -0.034,-0.019 -0.053,-0.036c-0.018,-0.016 -0.044,-0.043 -0.076,-0.081c-0.027,-0.032 -0.045,-0.053 -0.054,-0.062c-0.01,-0.009 -0.02,-0.016 -0.029,-0.022l0,0.212Z" style="fill:#676666;fill-rule:nonzero;"/><path d="M196.285,180.466c0.051,0 0.093,0.005 0.124,0.016c0.031,0.01 0.055,0.026 0.072,0.047c0.017,0.02 0.025,0.046 0.025,0.078c0,0.023 -0.004,0.044 -0.014,0.061c-0.009,0.018 -0.022,0.032 -0.04,0.043c-0.018,0.012 -0.039,0.021 -0.064,0.027c-0.026,0.007 -0.06,0.01 -0.103,0.01c-0.05,0 -0.091,-0.005 -0.123,-0.015c-0.031,-0.011 -0.055,-0.026 -0.072,-0.047c-0.017,-0.021 -0.026,-0.047 -0.026,-0.079c0,-0.042 0.015,-0.074 0.045,-0.098c0.036,-0.029 0.095,-0.043 0.176,-0.043Zm0,0.055c-0.071,0 -0.118,0.008 -0.142,0.025c-0.023,0.016 -0.035,0.037 -0.035,0.061c0,0.025 0.012,0.045 0.036,0.062c0.023,0.016 0.07,0.025 0.141,0.025c0.072,0 0.119,-0.009 0.142,-0.025c0.024,-0.017 0.035,-0.038 0.035,-0.063c0,-0.024 -0.01,-0.043 -0.031,-0.058c-0.026,-0.018 -0.075,-0.027 -0.146,-0.027Z" style="fill:#676666;fill-rule:nonzero;"/><path d="M196.072,181.002l0,-0.053l0.339,0c-0.013,-0.013 -0.025,-0.029 -0.037,-0.05c-0.012,-0.021 -0.021,-0.04 -0.028,-0.056l0.052,0c0.014,0.03 0.031,0.056 0.051,0.078c0.02,0.022 0.039,0.038 0.058,0.047l0,0.034l-0.435,0Z" style="fill:#676666;fill-rule:nonzero;"/><path d="M196.399,181.414l-0.004,-0.053c0.021,-0.004 0.036,-0.011 0.045,-0.02c0.015,-0.014 0.023,-0.032 0.023,-0.053c0,-0.017 -0.005,-0.032 -0.014,-0.045c-0.012,-0.016 -0.03,-0.029 -0.054,-0.039c-0.023,-0.01 -0.056,-0.015 -0.1,-0.015c0.02,0.013 0.034,0.028 0.044,0.047c0.009,0.018 0.014,0.038 0.014,0.058c0,0.035 -0.013,0.066 -0.039,0.09c-0.026,0.025 -0.06,0.038 -0.101,0.038c-0.027,0 -0.053,-0.006 -0.076,-0.018c-0.023,-0.011 -0.041,-0.027 -0.054,-0.048c-0.012,-0.02 -0.018,-0.044 -0.018,-0.07c0,-0.044 0.016,-0.08 0.049,-0.108c0.032,-0.028 0.086,-0.042 0.161,-0.042c0.083,0 0.144,0.015 0.182,0.046c0.033,0.027 0.05,0.064 0.05,0.109c0,0.034 -0.01,0.062 -0.029,0.084c-0.019,0.022 -0.045,0.035 -0.079,0.039Zm-0.187,-0.217c-0.018,0 -0.035,0.004 -0.052,0.012c-0.017,0.008 -0.03,0.019 -0.038,0.033c-0.009,0.014 -0.014,0.028 -0.014,0.044c0,0.022 0.01,0.041 0.028,0.057c0.018,0.017 0.042,0.025 0.073,0.025c0.03,0 0.054,-0.008 0.071,-0.024c0.017,-0.016 0.026,-0.036 0.026,-0.061c0,-0.024 -0.009,-0.044 -0.026,-0.061c-0.017,-0.016 -0.04,-0.025 -0.068,-0.025Z" style="fill:#676666;fill-rule:nonzero;"/></g></svg>