<?xml version="1.0" encoding="utf-8"?>
<!-- Generator: Adobe Illustrator 13.0.0, SVG Export Plug-In . SVG Version: 6.00 Build 14948)  -->
<!DOCTYPE svg PUBLIC "-//W3C//DTD SVG 1.0//EN" "http://www.w3.org/TR/2001/REC-SVG-20010904/DTD/svg10.dtd">
<svg version="1.0" id="Layer_1" xmlns="http://www.w3.org/2000/svg" xmlns:xlink="http://www.w3.org/1999/xlink" x="0px" y="0px"
	 width="300px" height="65px" viewBox="0 0 300 65" enable-background="new 0 0 300 65" xml:space="preserve">
<path fill="#DD0F2D" d="M65.86,5.921c1.098,1.539,0.988,3.516,1.534,5.27l-0.878,0.772c-13.066,0.325-24.71,0.988-37.779,1.974
	c0.659,2.526,4.175,4.394,3.183,7.581c-6.368,13.068-11.64,26.686-17.241,40.199c-0.876,0.767-2.087,0.323-2.855-0.336
	c-1.648-1.867-5.711-3.072-4.394-6.149c5.823-13.729,11.644-27.347,18.674-40.522c-7.359,0.219-14.28,1.207-21.749,1.754
	l-0.327-0.215l2.636-5.933C25.994,7.46,45.538,5.702,65.86,5.921"/>
<path fill="#DD0F2D" d="M50.92,20.858c0.441,1.427,0.331,3.406-0.437,4.723c-1.098,1.539-2.746,2.746-4.614,2.856
	c-2.085,0.327-4.063-0.661-4.94-2.634c-0.661-1.648-1.098-4.065-0.11-5.823c0.656-1.427,2.305-2.199,3.733-2.636
	C47.186,17.234,49.822,18.222,50.92,20.858"/>
<path fill="#DD0F2D" d="M39.17,30.412c1.429,1.978,4.941,3.624,4.285,6.37c-3.078,5.931-6.152,11.749-8.238,18.007
	c3.512-1.752,6.809-5.156,9.886-8.126c4.829-4.94,9.333-9.989,13.617-15.149c2.195,0.546,4.173,2.522,5.492,4.063
	c-2.415,4.94-5.16,9.881-7.359,14.934l17.243-16.914c1.976,1.21,5.053,3.077,5.162,5.492c-2.855,3.95-5.05,8.237-6.809,12.523
	l17.129-15.27c2.199-0.22,3.953,2.526,5.382,4.287c-3.073,5.379-7.687,10.208-7.355,16.802c0.546,1.425,2.083,1.425,3.075,1.316
	c-0.77,1.532-2.309,2.858-3.957,3.186c-2.085,0.551-3.843-0.327-5.492-1.317c-4.278-5.604,1.429-11.095,3.738-16.036
	c-6.152,3.951-11.534,10.32-16.473,15.597c-2.199-0.989-3.956-2.857-5.823-4.174l0.11-1.756c2.305-3.844,4.394-7.799,6.809-11.534
	l-0.661,0.111c-5.602,5.156-11.418,10.54-16.144,16.583c-2.415,0.438-4.172-1.537-6.036-2.639l-0.332-0.654
	c1.864-4.502,4.285-8.788,6.039-13.183c-6.148,5.712-11.971,12.301-18.89,16.144c-2.636,0.332-3.953-2.526-5.933-3.95l-0.435-0.878
	c2.965-8.238,5.821-16.695,10.981-23.947L39.17,30.412"/>
<path fill="#DD0F2D" d="M223.678,42.273c-3.516,3.735-6.92,7.91-5.271,13.179c0.546,1.54,2.083,2.634,3.735,2.525
	c5.268-0.766,7.687-6.7,8.78-10.982c-1.43,0.219-2.635-0.22-3.84-0.659C225.43,45.57,224.337,43.702,223.678,42.273 M158.438,39.743
	c-3.289,2.53-5.819,5.827-6.585,9.563c-0.332,1.972,0,3.839,1.316,5.268c0.878,0.99,2.195,1.317,3.624,1.21
	c5.276-0.994,8.345-6.809,9.228-11.534l-2.199-0.107C161.406,44.36,159.212,41.615,158.438,39.743z M123.409,36.016
	c3.953,2.41,6.036,6.697,7.684,10.32c1.539-3.735,3.077-7.687,4.285-11.422C131.424,35.245,127.14,35.245,123.409,36.016z
	 M131.971,8.446L121.648,32.28c4.94,0.219,10.217-0.332,15.377-0.551c3.843-8.237,7.245-16.694,11.859-24.71
	c2.305-1.754,3.953,1.758,5.713,2.855l0.327,0.882c-3.404,6.809-6.806,13.617-9.773,20.641c8.345,0.992,20.869-3.071,24.932,6.042
	c0.327,0.663-0.112,1.536,0.327,2.087c5.711-3.072,10.217-8.896,13.621-13.946c2.415,0.656,0.436,2.856,1.21,4.719
	c0.107,1.319,1.205,2.526,2.303,3.078c0.985,0.331,2.526-0.22,2.853,0.985c-1.975,4.949-5.268,9.339-7.247,14.168
	c-0.985,2.419-2.746,4.94-1.648,7.695c0.882,1.205,2.53,0.766,3.628,0.322c9.555-7.14,12.301-18.123,17.354-27.675
	c0.107-0.215-0.225-0.325-0.225-0.437l-6.477,0.327c-0.443-1.207,0.766-2.195,1.648-2.961l6.589-0.663
	c2.19-4.063,3.731-8.347,6.258-12.41c2.311,0.772,4.613,3.297,5.271,5.602c-0.551,2.199-2.194,4.063-2.638,6.042
	c7.363-0.22,15.05-1.102,22.736-0.771c0.767,1.098,0.879,2.415,1.098,3.626c-8.784,0.327-17.133,0.547-25.81,0.878
	c-4.39,8.786-8.564,17.79-11.965,27.018c-0.224,1.102,0,2.418,1.317,2.745c4.063-0.327,7.351-3.623,9.877-6.92
	c2.423-6.921,6.486-15.924,14.831-17.792c3.404-0.547,6.365,0.663,8.672,3.072c1.761,2.088,2.746,4.399,2.531,7.252
	c4.828-1.429,8.672-5.271,12.627-8.788c2.307,0.443,3.517,3.077,4.94,4.618l-0.438,1.971c-1.979,3.186-3.624,6.697-5.16,10.105
	c5.599-4.726,11.642-10.433,17.133-15.373c2.088,0.767,3.736,3.185,3.736,5.268c-2.858,4.614-5.165,9.443-6.155,14.831
	c0,1.317-0.438,2.742,0.879,3.624l1.325-0.331c7.463-9.116,12.516-19.44,21.519-27.678c1.541,1.98,3.512,4.614,3.082,7.248
	c-6.267,7.145,5.595,14.495-2.204,21.2c-2.745,2.746-6.92,2.746-10.432,1.645c-1.317-0.547-2.854-1.098-3.624-2.414
	c0.663-1.761,1.429-3.731,2.965-4.941c0.332,2.083,0.443,4.609,2.746,5.711c1.425,0.547,2.966-0.219,3.628-1.54
	c1.752-4.722-3.297-7.468-2.311-12.408c0.219-2.087,1.102-4.175,1.536-6.042c-5.927,6.477-9.993,13.729-14.935,20.645
	c-1.648,1.653-3.843,2.195-6.042,1.872c-1.863-0.219-3.512-1.321-4.278-2.965c-1.648-4.613-0.551-10.217,2.195-14.28l-0.878,0.22
	c-5.165,4.945-10.437,10.105-15.158,15.153c-2.195-0.327-3.951-2.521-5.272-4.282c1.868-5.271,4.614-10.101,7.468-14.934
	c-2.961,1.536-6.146,3.185-9.443,4.394c-1.867,6.921-7.032,14.822-14.606,16.583c-2.961,0.771-6.701,0-8.896-2.746
	c-1.316-1.425-1.647-3.297-2.414-4.945c-4.175,4.063-9.335,7.803-15.158,5.492c-2.521-1.536-2.745-4.502-2.521-7.136
	c-3.297,4.502-7.91,7.574-13.51,7.247c-2.087-0.224-4.395-0.878-5.272-3.072c-1.429-8.022,4.063-14.5,8.346-20.758
	c-0.327-0.882-0.547-1.76-0.986-2.526c-3.404,2.962-6.7,6.59-10.656,8.453c-1.093,7.91-6.257,17.245-14.822,19.117
	c-2.969,0.104-5.603-0.443-7.802-2.203c-3.512-2.966-4.172-7.902-2.965-12.301c1.429-4.94,5.053-9.554,9.451-12.739l-0.336-0.327
	l-9.771,0.216c-4.175,8.9-8.347,17.792-11.534,27.019c-0.325,0.771-1.208,0.771-1.754,0.552c-5.711-1.541-1.211-7.248-2.965-10.983
	c-0.882-4.941-3.297-9.886-8.127-12.524l-0.441,0.224c-3.294,7.579-6.477,15.373-9.993,22.732h-0.878
	c-2.09-1.975-6.368-4.063-4.835-7.578l7.581-17.349c-0.988-0.663-3.622,0.111-3.187-2.092c1.319-1.752,4.394-0.216,5.163-2.303
	l12.41-28.334c0.661-0.661,1.537-0.661,2.199,0C128.898,5.265,131.203,6.253,131.971,8.446z"/>
<path fill-rule="evenodd" clip-rule="evenodd" fill="#DD0F2D" d="M292.178,59.738c0-1.36,1.105-2.466,2.475-2.466
	c1.359,0,2.47,1.105,2.47,2.466c0,1.368-1.11,2.475-2.47,2.475C293.283,62.213,292.178,61.106,292.178,59.738 M291.644,59.738
	c0,1.661,1.347,3.009,3.009,3.009c1.652,0,3.004-1.348,3.004-3.009c0-1.652-1.352-3-3.004-3
	C292.99,56.738,291.644,58.086,291.644,59.738z M294.127,58.537h0.456c0.388-0.008,0.817,0.018,0.817,0.479
	c0,0.46-0.43,0.481-0.817,0.481h-0.456V58.537z M293.494,61.438h0.633v-1.407h0.456l0.853,1.407h0.667l-0.899-1.455
	c0.473-0.056,0.826-0.344,0.826-0.942c0-0.663-0.388-1.037-1.214-1.037h-1.321V61.438z"/>
</svg>
