<?xml version="1.0" encoding="UTF-8" standalone="no"?>
<!DOCTYPE svg PUBLIC "-//W3C//DTD SVG 1.1//EN" "http://www.w3.org/Graphics/SVG/1.1/DTD/svg11.dtd">
<svg version="1.1" xmlns="http://www.w3.org/2000/svg" xmlns:xlink="http://www.w3.org/1999/xlink" preserveAspectRatio="xMidYMid meet" viewBox="0 0 640 640" width="640" height="640"><defs><path d="M214 525.6L89.04 525.6L89.04 104.88L214 104.88L214 525.6" id="fmwjZ9bVf"></path><path d="M89.04 104.88L89.04 104.88L89.04 525.6L214 525.6L214 386.24L89.04 104.88" id="cbGZ3mz6O"></path><linearGradient id="gradientbNBWDiab" gradientUnits="userSpaceOnUse" x1="151.48" y1="104.86" x2="151.48" y2="525.6"><stop style="stop-color: #35b3d1;stop-opacity: 1" offset="0%"></stop><stop style="stop-color: #013d74;stop-opacity: 1" offset="100%"></stop></linearGradient><path d="M389.52 464.24L264.56 464.24L89.04 104.88L214 104.88L389.52 464.24" id="aGqiizRXU"></path><path d="M440.08 525.6L565.04 525.6L565.04 104.88L440.08 104.88L440.08 525.6" id="aj7pvtgAo"></path><path d="M565.04 104.88L565.04 104.88L440.08 386.24L440.08 360.72L565.04 104.88L440.08 360.72L440.08 525.6L565.04 525.6L565.04 104.88" id="elRvlw2xR"></path><linearGradient id="gradientb1pCx3EPS" gradientUnits="userSpaceOnUse" x1="502.59" y1="104.86" x2="502.59" y2="525.6"><stop style="stop-color: #54daea;stop-opacity: 1" offset="0%"></stop><stop style="stop-color: #0389b5;stop-opacity: 1" offset="100%"></stop></linearGradient><path d="M214 104.88L89.04 104.88L214 360.72L264.56 464.24L389.52 464.24L264.56 464.24L327.04 336.4L327.04 336.4L264.56 464.24L323.84 329.92L325.68 333.52L214 104.88" id="b31ksB060"></path><linearGradient id="gradientb2SDhPrCxn" gradientUnits="userSpaceOnUse" x1="167.76" y1="408.35" x2="310.73" y2="160.73"><stop style="stop-color: #48c6e8;stop-opacity: 1" offset="0%"></stop><stop style="stop-color: #025dae;stop-opacity: 1" offset="100%"></stop></linearGradient><path d="M264.56 464.24L389.52 464.24L565.04 104.88L440.08 104.88L264.56 464.24" id="aGwN2NuGs"></path><path d="M89.04 104.88L214 386.24L214 360.72L89.04 104.88" id="b37BiWkOuY"></path><linearGradient id="gradientasczbG3j1" gradientUnits="userSpaceOnUse" x1="151.48" y1="104.86" x2="151.48" y2="525.6"><stop style="stop-color: #24788c;stop-opacity: 1" offset="0%"></stop><stop style="stop-color: #01294e;stop-opacity: 1" offset="100%"></stop></linearGradient><path d="M89.04 104.88L89.04 104.88L214 360.72L214 360.72L89.04 104.88" id="c1EwDfIuLy"></path><path d="M89.04 104.88L89.04 104.88L214 360.72L214 360.72L89.04 104.88" id="bJGfyom5u"></path><linearGradient id="gradientdvSbvNyfk" gradientUnits="userSpaceOnUse" x1="79.53" y1="357.41" x2="222.5" y2="109.79"><stop style="stop-color: #30859c;stop-opacity: 1" offset="0%"></stop><stop style="stop-color: #013e75;stop-opacity: 1" offset="100%"></stop></linearGradient><path d="M565.04 104.88L565.04 104.88L440.08 360.72L440.08 386.24L565.04 104.88" id="a5fCitiDx"></path><linearGradient id="gradientcuxeOkPyT" gradientUnits="userSpaceOnUse" x1="502.59" y1="104.86" x2="502.59" y2="525.6"><stop style="stop-color: #38929d;stop-opacity: 1" offset="0%"></stop><stop style="stop-color: #025c79;stop-opacity: 1" offset="100%"></stop></linearGradient><path d="M325.68 333.52L327.04 336.4L327.04 336.4L325.68 333.52" id="arEY03oqR"></path><path d="M323.84 329.92L264.56 464.24L327.04 336.4L325.68 333.52L323.84 329.92" id="dSjL9joR6"></path><linearGradient id="gradienta1Mww5B2aN" gradientUnits="userSpaceOnUse" x1="257.74" y1="460.27" x2="400.71" y2="212.64"><stop style="stop-color: #30859c;stop-opacity: 1" offset="0%"></stop><stop style="stop-color: #013e75;stop-opacity: 1" offset="100%"></stop></linearGradient><path d="M565.04 104.88L440.08 104.88L327.04 336.4L264.56 464.24L389.52 464.24L565.04 104.88" id="c3IXxfRvsR"></path><linearGradient id="gradientd3Oh51PIE" gradientUnits="userSpaceOnUse" x1="299.46" y1="484.36" x2="530.19" y2="84.72"><stop style="stop-color: #48c6e8;stop-opacity: 1" offset="0%"></stop><stop style="stop-color: #025dae;stop-opacity: 1" offset="100%"></stop></linearGradient></defs><g><g><use xlink:href="#fmwjZ9bVf" opacity="1" fill="#107dac" fill-opacity="1"></use><g><use xlink:href="#fmwjZ9bVf" opacity="1" fill-opacity="0" stroke="#000000" stroke-width="1" stroke-opacity="0"></use></g></g><g><use xlink:href="#cbGZ3mz6O" opacity="1" fill="url(#gradientbNBWDiab)"></use><g><use xlink:href="#cbGZ3mz6O" opacity="1" fill-opacity="0" stroke="#000000" stroke-width="1" stroke-opacity="0"></use></g></g><g><use xlink:href="#aGqiizRXU" opacity="1" fill="#189ad3" fill-opacity="1"></use><g><use xlink:href="#aGqiizRXU" opacity="1" fill-opacity="0" stroke="#000000" stroke-width="1" stroke-opacity="0"></use></g></g><g><use xlink:href="#aj7pvtgAo" opacity="1" fill="#1ebbd7" fill-opacity="1"></use><g><use xlink:href="#aj7pvtgAo" opacity="1" fill-opacity="0" stroke="#000000" stroke-width="1" stroke-opacity="0"></use></g></g><g><use xlink:href="#elRvlw2xR" opacity="1" fill="url(#gradientb1pCx3EPS)"></use><g><use xlink:href="#elRvlw2xR" opacity="1" fill-opacity="0" stroke="#000000" stroke-width="1" stroke-opacity="0"></use></g></g><g><use xlink:href="#b31ksB060" opacity="1" fill="url(#gradientb2SDhPrCxn)"></use><g><use xlink:href="#b31ksB060" opacity="1" fill-opacity="0" stroke="#000000" stroke-width="1" stroke-opacity="0"></use></g></g><g><use xlink:href="#aGwN2NuGs" opacity="1" fill="#189ad3" fill-opacity="1"></use><g><use xlink:href="#aGwN2NuGs" opacity="1" fill-opacity="0" stroke="#000000" stroke-width="1" stroke-opacity="0"></use></g></g><g><use xlink:href="#b37BiWkOuY" opacity="1" fill="url(#gradientasczbG3j1)"></use><g><use xlink:href="#b37BiWkOuY" opacity="1" fill-opacity="0" stroke="#000000" stroke-width="1" stroke-opacity="0"></use></g></g><g><use xlink:href="#c1EwDfIuLy" opacity="1" fill="#10678d" fill-opacity="1"></use><g><use xlink:href="#c1EwDfIuLy" opacity="1" fill-opacity="0" stroke="#000000" stroke-width="1" stroke-opacity="0"></use></g></g><g><use xlink:href="#bJGfyom5u" opacity="1" fill="url(#gradientdvSbvNyfk)"></use><g><use xlink:href="#bJGfyom5u" opacity="1" fill-opacity="0" stroke="#000000" stroke-width="1" stroke-opacity="0"></use></g></g><g><use xlink:href="#a5fCitiDx" opacity="1" fill="url(#gradientcuxeOkPyT)"></use><g><use xlink:href="#a5fCitiDx" opacity="1" fill-opacity="0" stroke="#000000" stroke-width="1" stroke-opacity="0"></use></g></g><g><use xlink:href="#arEY03oqR" opacity="1" fill="#ababab" fill-opacity="1"></use><g><use xlink:href="#arEY03oqR" opacity="1" fill-opacity="0" stroke="#000000" stroke-width="1" stroke-opacity="0"></use></g></g><g><use xlink:href="#dSjL9joR6" opacity="1" fill="url(#gradienta1Mww5B2aN)"></use><g><use xlink:href="#dSjL9joR6" opacity="1" fill-opacity="0" stroke="#000000" stroke-width="1" stroke-opacity="0"></use></g></g><g><use xlink:href="#c3IXxfRvsR" opacity="1" fill="url(#gradientd3Oh51PIE)"></use><g><use xlink:href="#c3IXxfRvsR" opacity="1" fill-opacity="0" stroke="#000000" stroke-width="1" stroke-opacity="0"></use></g></g></g></svg>