<?xml version="1.0" encoding="utf-8"?>
<!-- Generator: Adobe Illustrator 22.0.1, SVG Export Plug-In . SVG Version: 6.00 Build 0)  -->
<svg version="1.1" id="Layer_2_1_" xmlns="http://www.w3.org/2000/svg" xmlns:xlink="http://www.w3.org/1999/xlink" x="0px" y="0px"
	 viewBox="0 0 800 800" enable-background="new 0 0 800 800" xml:space="preserve">
<linearGradient id="triangle36_1_" gradientUnits="userSpaceOnUse" x1="171.602" y1="-48.2667" x2="172.1264" y2="-47.7422" gradientTransform="matrix(345 0 0 599 -59016.3281 28805.25)">
	<stop  offset="0" style="stop-color:#ABAEDC"/>
	<stop  offset="1" style="stop-color:#8592DC"/>
</linearGradient>
<polygon id="triangle36_344_" fill="url(#triangle36_1_)" points="370.4,0 371.7,200 125,0 "/>
<linearGradient id="SVGID_1_" gradientUnits="userSpaceOnUse" x1="175.1644" y1="-52.518" x2="175.807" y2="-51.8754" gradientTransform="matrix(2082 0 0 349 -365304.2813 18924.3281)">
	<stop  offset="0" style="stop-color:#C0CCDC"/>
	<stop  offset="1" style="stop-color:#8493DC"/>
</linearGradient>
<polygon fill="url(#SVGID_1_)" points="0,596.3 0,800 478.5,800 "/>
<linearGradient id="SVGID_2_" gradientUnits="userSpaceOnUse" x1="171.0316" y1="-50.6678" x2="171.6889" y2="-50.0105" gradientTransform="matrix(473 0 0 461 -80332.1094 23979.125)">
	<stop  offset="0" style="stop-color:#B8BBDC"/>
	<stop  offset="1" style="stop-color:#8593DC"/>
</linearGradient>
<polyline fill="url(#SVGID_2_)" points="777.4,800 768,711.1 639.2,800 "/>
<linearGradient id="triangle36_2_" gradientUnits="userSpaceOnUse" x1="168.7273" y1="-47.9633" x2="169.0785" y2="-47.6121" gradientTransform="matrix(224 0 0 610 -37442.5547 29306.75)">
	<stop  offset="0" style="stop-color:#8393DC"/>
	<stop  offset="1" style="stop-color:#617BDC"/>
</linearGradient>
<polygon id="triangle36_316_" fill="url(#triangle36_2_)" points="370.4,0 371.7,200 443.2,230.2 "/>
<linearGradient id="triangle36_3_" gradientUnits="userSpaceOnUse" x1="173.5917" y1="-46.7849" x2="173.9552" y2="-46.4214" gradientTransform="matrix(806 0 0 796 -139585.2969 37213.2813)">
	<stop  offset="0" style="stop-color:#8C92DC"/>
	<stop  offset="1" style="stop-color:#8A93DC"/>
</linearGradient>
<polygon id="triangle36_315_" fill="url(#triangle36_3_)" points="370.4,0 504.8,0 443.2,230.2 "/>
<linearGradient id="triangle36_4_" gradientUnits="userSpaceOnUse" x1="168.4127" y1="-53.9815" x2="169.2283" y2="-53.1659" gradientTransform="matrix(217 0 0 296 -36207.0547 16223.8125)">
	<stop  offset="0" style="stop-color:#7B95DC"/>
	<stop  offset="1" style="stop-color:#8C96DC"/>
</linearGradient>
<polygon id="triangle36_314_" fill="url(#triangle36_4_)" points="371.7,200 382.6,463.3 443.2,230.2 "/>
<linearGradient id="triangle36_5_" gradientUnits="userSpaceOnUse" x1="166.9516" y1="-52.1704" x2="167.845" y2="-51.277" gradientTransform="matrix(184 0 0 366 -30382.5391 19302.8438)">
	<stop  offset="0" style="stop-color:#8C9BDC"/>
	<stop  offset="1" style="stop-color:#787EDC"/>
</linearGradient>
<polygon id="triangle36_313_" fill="url(#triangle36_5_)" points="382.6,463.3 415.5,555.9 443.2,230.2 "/>
<linearGradient id="triangle36_6_" gradientUnits="userSpaceOnUse" x1="172.9465" y1="-46.8465" x2="173.2973" y2="-46.4956" gradientTransform="matrix(676 0 0 796 -116546.2656 37213.2813)">
	<stop  offset="0" style="stop-color:#ABAEDC"/>
	<stop  offset="1" style="stop-color:#8592DC"/>
</linearGradient>
<polygon id="triangle36_312_" fill="url(#triangle36_6_)" points="504.8,0 666,62 443.2,230.2 "/>
<linearGradient id="triangle36_7_" gradientUnits="userSpaceOnUse" x1="172.64" y1="-60.205" x2="173.5323" y2="-59.3126" gradientTransform="matrix(676 0 0 189 -116546.2656 11414.0469)">
	<stop  offset="0" style="stop-color:#ABA5DC"/>
	<stop  offset="1" style="stop-color:#8181DC"/>
</linearGradient>
<polygon id="triangle36_311_" fill="url(#triangle36_7_)" points="443.2,230.2 666,62 665,224.9 "/>
<linearGradient id="triangle36_8_" gradientUnits="userSpaceOnUse" x1="170.6415" y1="-58.3773" x2="171.8358" y2="-57.1831" gradientTransform="matrix(463 0 0 210 -78490.1016 12300.5547)">
	<stop  offset="0" style="stop-color:#8393DC"/>
	<stop  offset="1" style="stop-color:#617BDC"/>
</linearGradient>
<polygon id="triangle36_310_" fill="url(#triangle36_8_)" points="666,62 682.5,0 665,224.9 "/>
<linearGradient id="triangle36_9_" gradientUnits="userSpaceOnUse" x1="170.6997" y1="-47.5914" x2="171.5115" y2="-46.7797" gradientTransform="matrix(463 0 0 760 -78490.1016 36227.2813)">
	<stop  offset="0" style="stop-color:#8C9BDC"/>
	<stop  offset="1" style="stop-color:#787EDC"/>
</linearGradient>
<polygon id="triangle36_309_" fill="url(#triangle36_9_)" points="768,711.1 682.5,0 665,224.9 "/>
<linearGradient id="triangle36_10_" gradientUnits="userSpaceOnUse" x1="168.4993" y1="-62.9717" x2="168.8181" y2="-62.653" gradientTransform="matrix(335 0 0 164 -55722.3203 11059.5391)">
	<stop  offset="0" style="stop-color:#8393DC"/>
	<stop  offset="1" style="stop-color:#617BDC"/>
</linearGradient>
<polygon id="triangle36_308_" fill="url(#triangle36_10_)" points="768,711.1 777.4,800 800,800 "/>
<linearGradient id="triangle36_11_" gradientUnits="userSpaceOnUse" x1="168.3719" y1="-46.8464" x2="168.9395" y2="-46.2787" gradientTransform="matrix(335 0 0 924 -55722.3203 43361.3125)">
	<stop  offset="0" style="stop-color:#C0CCDC"/>
	<stop  offset="1" style="stop-color:#8493DC"/>
</linearGradient>
<polygon id="triangle36_307_" fill="url(#triangle36_11_)" points="768,711.1 800,0 800,800 "/>
<linearGradient id="SVGID_3_" gradientUnits="userSpaceOnUse" x1="174.7688" y1="-46.9097" x2="175.208" y2="-46.4705" gradientTransform="matrix(1223 0 0 811 -213983.4844 38029.3125)">
	<stop  offset="0" style="stop-color:#7B95DC"/>
	<stop  offset="1" style="stop-color:#8C96DC"/>
</linearGradient>
<polygon fill="url(#SVGID_3_)" points="0,373.9 371.7,200 125,0 0,310.6 "/>
<linearGradient id="SVGID_4_" gradientUnits="userSpaceOnUse" x1="174.7747" y1="-54.1598" x2="175.4852" y2="-53.4493" gradientTransform="matrix(1256 0 0 296 -219774.9844 16223.8125)">
	<stop  offset="0" style="stop-color:#8C92DC"/>
	<stop  offset="1" style="stop-color:#8A93DC"/>
</linearGradient>
<polygon fill="url(#SVGID_4_)" points="0,394.2 382.6,463.3 371.7,200 0,373.9 "/>
<linearGradient id="SVGID_5_" gradientUnits="userSpaceOnUse" x1="174.8472" y1="-60.2313" x2="175.4624" y2="-59.6161" gradientTransform="matrix(1356 0 0 188 -237324.9063 11737.5469)">
	<stop  offset="0" style="stop-color:#7884DC"/>
	<stop  offset="1" style="stop-color:#818DDC"/>
</linearGradient>
<polygon fill="url(#SVGID_5_)" points="0,400.3 415.5,555.9 382.6,463.3 0,394.2 "/>
<linearGradient id="SVGID_6_" gradientUnits="userSpaceOnUse" x1="174.959" y1="-50.666" x2="175.6047" y2="-50.0203" gradientTransform="matrix(1529 0 0 435 -267789.5625 22492.9375)">
	<stop  offset="0" style="stop-color:#7B95DC"/>
	<stop  offset="1" style="stop-color:#8C96DC"/>
</linearGradient>
<polygon fill="url(#SVGID_6_)" points="0,412.6 478.5,800 415.5,555.9 0,400.3 "/>
<linearGradient id="SVGID_7_" gradientUnits="userSpaceOnUse" x1="175.0393" y1="-50.6931" x2="175.7053" y2="-50.0269" gradientTransform="matrix(1793 0 0 435 -314285.625 22492.9375)">
	<stop  offset="0" style="stop-color:#B8BBDC"/>
	<stop  offset="1" style="stop-color:#8593DC"/>
</linearGradient>
<polygon fill="url(#SVGID_7_)" points="0,412.6 0,596.3 478.5,800 "/>
<linearGradient id="SVGID_8_" gradientUnits="userSpaceOnUse" x1="174.6438" y1="-46.8855" x2="175.1319" y2="-46.3974" gradientTransform="matrix(878 0 0 811 -153437.2969 38029.3125)">
	<stop  offset="0" style="stop-color:#8393DC"/>
	<stop  offset="1" style="stop-color:#617BDC"/>
</linearGradient>
<polyline fill="url(#SVGID_8_)" points="0,0 0,310.6 125,0 "/>
<linearGradient id="triangle36_12_" gradientUnits="userSpaceOnUse" x1="172.9451" y1="-51.9168" x2="173.5687" y2="-51.2932" gradientTransform="matrix(685 0 0 366 -118209.7656 19302.8438)">
	<stop  offset="0" style="stop-color:#B8BBDC"/>
	<stop  offset="1" style="stop-color:#8593DC"/>
</linearGradient>
<polygon id="triangle36_293_" fill="url(#triangle36_12_)" points="415.5,555.9 443.2,230.2 641.3,546.1 "/>
<linearGradient id="triangle36_13_" gradientUnits="userSpaceOnUse" x1="173.0352" y1="-55.7252" x2="173.8932" y2="-54.8672" gradientTransform="matrix(685 0 0 258 -118209.7656 14959.5625)">
	<stop  offset="0" style="stop-color:#7884DC"/>
	<stop  offset="1" style="stop-color:#818DDC"/>
</linearGradient>
<polygon id="triangle36_292_" fill="url(#triangle36_13_)" points="415.5,555.9 478.5,800 641.3,546.1 "/>
<linearGradient id="triangle36_14_" gradientUnits="userSpaceOnUse" x1="172.9837" y1="-52.16" x2="173.6068" y2="-51.5368" gradientTransform="matrix(673 0 0 361 -116018.25 19079.3438)">
	<stop  offset="0" style="stop-color:#7B95DC"/>
	<stop  offset="1" style="stop-color:#8C96DC"/>
</linearGradient>
<polygon id="triangle36_291_" fill="url(#triangle36_14_)" points="443.2,230.2 665,224.9 641.3,546.1 "/>
<linearGradient id="SVGID_9_" gradientUnits="userSpaceOnUse" x1="478.5" y1="125.95" x2="641.3" y2="125.95" gradientTransform="matrix(1 0 0 -1 0 799)">
	<stop  offset="0" style="stop-color:#7B95DC"/>
	<stop  offset="1" style="stop-color:#8C96DC"/>
</linearGradient>
<polyline fill="url(#SVGID_9_)" points="639.2,800 641.3,546.1 478.5,800 "/>
<linearGradient id="SVGID_10_" gradientUnits="userSpaceOnUse" x1="170.1982" y1="-48.338" x2="170.6598" y2="-47.8764" gradientTransform="matrix(391 0 0 650 -65941.3438 32013.25)">
	<stop  offset="0" style="stop-color:#7892DC"/>
	<stop  offset="1" style="stop-color:#7B8FDC"/>
</linearGradient>
<polyline fill="url(#SVGID_10_)" points="768,711.1 641.3,546.1 639.2,800 "/>
<linearGradient id="triangle36_15_" gradientUnits="userSpaceOnUse" x1="169.88" y1="-49.1285" x2="170.5204" y2="-48.4881" gradientTransform="matrix(376 0 0 550 -63293.8281 27300.7188)">
	<stop  offset="0" style="stop-color:#8393DC"/>
	<stop  offset="1" style="stop-color:#617BDC"/>
</linearGradient>
<polygon id="triangle36_290_" fill="url(#triangle36_15_)" points="665,224.9 768,711.1 641.3,546.1 "/>
<linearGradient id="triangle36_16_" gradientUnits="userSpaceOnUse" x1="167.9611" y1="-47.9174" x2="168.3893" y2="-47.4893" gradientTransform="matrix(282 0 0 607 -46815.8086 28990.25)">
	<stop  offset="0" style="stop-color:#B8AFDC"/>
	<stop  offset="1" style="stop-color:#968EDC"/>
</linearGradient>
<polygon id="triangle36_289_" fill="url(#triangle36_16_)" points="504.8,0 666,62 682.5,0 "/>
<linearGradient id="SVGID_11_" gradientUnits="userSpaceOnUse" x1="453.0591" y1="171.2592" x2="940.2108" y2="658.4107" gradientTransform="matrix(1 0 0 -1 0 799)">
	<stop  offset="0" style="stop-color:#7884DC"/>
	<stop  offset="1" style="stop-color:#818DDC"/>
</linearGradient>
<polygon fill="url(#SVGID_11_)" points="682.5,0 768,711.1 800,0 "/>
<linearGradient id="SVGID_12_" gradientUnits="userSpaceOnUse" x1="0" y1="-1" x2="800" y2="799" gradientTransform="matrix(1 0 0 -1 0 799)">
	<stop  offset="0" style="stop-color:#0097FF"/>
	<stop  offset="0.2231" style="stop-color:#0066D4"/>
	<stop  offset="0.5923" style="stop-color:#003755"/>
	<stop  offset="0.7769" style="stop-color:#004794"/>
	<stop  offset="1" style="stop-color:#0087BF"/>
</linearGradient>
<rect opacity="0.55" fill="url(#SVGID_12_)" enable-background="new    " width="800" height="800"/>
</svg>
