<svg xmlns="http://www.w3.org/2000/svg" width="2000" height="2000"><path d="M1036,991L839,941L1034,1020Z" fill="#fdfdfd" stroke="#fdfdfd" stroke-width="1.51"/><path d="M839,941L873,1189L1034,1020Z" fill="#fafafa" stroke="#fafafa" stroke-width="1.51"/><path d="M839,941L711,1178L873,1189Z" fill="#f4f4f4" stroke="#f4f4f4" stroke-width="1.51"/><path d="M1036,991L810,688L839,941Z" fill="#f8f8f8" stroke="#f8f8f8" stroke-width="1.51"/><path d="M839,941L562,979L711,1178Z" fill="#f5f5f5" stroke="#f5f5f5" stroke-width="1.51"/><path d="M810,688L562,979L839,941Z" fill="#f4f4f4" stroke="#f4f4f4" stroke-width="1.51"/><path d="M711,1178L783,1365L873,1189Z" fill="#ededed" stroke="#ededed" stroke-width="1.51"/><path d="M376,1099L689,1305L711,1178Z" fill="#eaeaea" stroke="#eaeaea" stroke-width="1.51"/><path d="M1176,1354L1309,1148L1034,1020Z" fill="#eeeeee" stroke="#eeeeee" stroke-width="1.51"/><path d="M689,1305L783,1365L711,1178Z" fill="#eaeaea" stroke="#eaeaea" stroke-width="1.51"/><path d="M1034,1020L1309,1148L1036,991Z" fill="#f6f6f6" stroke="#f6f6f6" stroke-width="1.51"/><path d="M1036,991L1137,627L810,688Z" fill="#f8f8f8" stroke="#f8f8f8" stroke-width="1.51"/><path d="M1176,1354L1034,1020L873,1189Z" fill="#f4f4f4" stroke="#f4f4f4" stroke-width="1.51"/><path d="M1375,989L1137,627L1036,991Z" fill="#f2f2f2" stroke="#f2f2f2" stroke-width="1.51"/><path d="M1062,1513L1176,1354L873,1189Z" fill="#ececec" stroke="#ececec" stroke-width="1.51"/><path d="M1309,1148L1375,989L1036,991Z" fill="#f1f1f1" stroke="#f1f1f1" stroke-width="1.51"/><path d="M783,1365L1062,1513L873,1189Z" fill="#ebebeb" stroke="#ebebeb" stroke-width="1.51"/><path d="M1137,627L1111,495L810,688Z" fill="#f3f3f3" stroke="#f3f3f3" stroke-width="1.51"/><path d="M1411,599L1111,495L1137,627Z" fill="#e9e9e9" stroke="#e9e9e9" stroke-width="1.51"/><path d="M562,979L376,1099L711,1178Z" fill="#eeeeee" stroke="#eeeeee" stroke-width="1.51"/><path d="M320,986L376,1099L562,979Z" fill="#eeeeee" stroke="#eeeeee" stroke-width="1.51"/><path d="M810,688L543,584L562,979Z" fill="#eeeeee" stroke="#eeeeee" stroke-width="1.51"/><path d="M554,418L543,584L810,688Z" fill="#e9e9e9" stroke="#e9e9e9" stroke-width="1.51"/><path d="M669,1553L783,1365L689,1305Z" fill="#e3e3e3" stroke="#e3e3e3" stroke-width="1.51"/><path d="M669,1553L933,1569L783,1365Z" fill="#e2e2e2" stroke="#e2e2e2" stroke-width="1.51"/><path d="M783,1365L933,1569L1062,1513Z" fill="#e6e6e6" stroke="#e6e6e6" stroke-width="1.51"/><path d="M1176,1354L1364,1403L1309,1148Z" fill="#e3e3e3" stroke="#e3e3e3" stroke-width="1.51"/><path d="M1309,1148L1559,1048L1375,989Z" fill="#e8e8e8" stroke="#e8e8e8" stroke-width="1.51"/><path d="M1062,1513L1364,1403L1176,1354Z" fill="#e1e1e1" stroke="#e1e1e1" stroke-width="1.51"/><path d="M1156,1742L1364,1403L1062,1513Z" fill="#dbdbdb" stroke="#dbdbdb" stroke-width="1.51"/><path d="M301,737L320,986L562,979Z" fill="#ececec" stroke="#ececec" stroke-width="1.51"/><path d="M381,1356L669,1553L689,1305Z" fill="#e0e0e0" stroke="#e0e0e0" stroke-width="1.51"/><path d="M1375,989L1411,599L1137,627Z" fill="#e9e9e9" stroke="#e9e9e9" stroke-width="1.51"/><path d="M1634,882L1411,599L1375,989Z" fill="#e3e3e3" stroke="#e3e3e3" stroke-width="1.51"/><path d="M1545,1291L1559,1048L1309,1148Z" fill="#e0e0e0" stroke="#e0e0e0" stroke-width="1.51"/><path d="M376,1099L381,1356L689,1305Z" fill="#e5e5e5" stroke="#e5e5e5" stroke-width="1.51"/><path d="M258,1316L381,1356L376,1099Z" fill="#e0e0e0" stroke="#e0e0e0" stroke-width="1.51"/><path d="M543,584L301,737L562,979Z" fill="#eaeaea" stroke="#eaeaea" stroke-width="1.51"/><path d="M1364,1403L1545,1291L1309,1148Z" fill="#dedede" stroke="#dedede" stroke-width="1.51"/><path d="M1111,495L916,316L810,688Z" fill="#f0f0f0" stroke="#f0f0f0" stroke-width="1.51"/><path d="M543,584L364,417L301,737Z" fill="#e3e3e3" stroke="#e3e3e3" stroke-width="1.51"/><path d="M945,121L916,316L1129,72Z" fill="#e7e7e7" stroke="#e7e7e7" stroke-width="1.51"/><path d="M916,316L554,418L810,688Z" fill="#eaeaea" stroke="#eaeaea" stroke-width="1.51"/><path d="M1721,983L1634,882L1559,1048Z" fill="#e0e0e0" stroke="#e0e0e0" stroke-width="1.51"/><path d="M1559,1048L1634,882L1375,989Z" fill="#e5e5e5" stroke="#e5e5e5" stroke-width="1.51"/><path d="M86,1059L376,1099L320,986Z" fill="#e8e8e8" stroke="#e8e8e8" stroke-width="1.51"/><path d="M86,1059L258,1316L376,1099Z" fill="#e2e2e2" stroke="#e2e2e2" stroke-width="1.51"/><path d="M381,1356L422,1618L669,1553Z" fill="#d9d9d9" stroke="#d9d9d9" stroke-width="1.51"/><path d="M1411,599L1397,386L1111,495Z" fill="#e2e2e2" stroke="#e2e2e2" stroke-width="1.51"/><path d="M1615,396L1397,386L1411,599Z" fill="#dadada" stroke="#dadada" stroke-width="1.51"/><path d="M933,1569L1156,1742L1062,1513Z" fill="#dfdfdf" stroke="#dfdfdf" stroke-width="1.51"/><path d="M1364,1403L1623,1563L1545,1291Z" fill="#d2d2d2" stroke="#d2d2d2" stroke-width="1.51"/><path d="M849,1827L1156,1742L933,1569Z" fill="#dddddd" stroke="#dddddd" stroke-width="1.51"/><path d="M1634,882L1629,593L1411,599Z" fill="#dcdcdc" stroke="#dcdcdc" stroke-width="1.51"/><path d="M1545,1291L1721,983L1559,1048Z" fill="#dddddd" stroke="#dddddd" stroke-width="1.51"/><path d="M301,737L169,774L320,986Z" fill="#e6e6e6" stroke="#e6e6e6" stroke-width="1.51"/><path d="M214,530L169,774L301,737Z" fill="#e1e1e1" stroke="#e1e1e1" stroke-width="1.51"/><path d="M258,1316L422,1618L381,1356Z" fill="#d9d9d9" stroke="#d9d9d9" stroke-width="1.51"/><path d="M669,1553L849,1827L933,1569Z" fill="#dbdbdb" stroke="#dbdbdb" stroke-width="1.51"/><path d="M1744,677L1629,593L1634,882Z" fill="#d8d8d8" stroke="#d8d8d8" stroke-width="1.51"/><path d="M1156,1742L1466,1605L1364,1403Z" fill="#d3d3d3" stroke="#d3d3d3" stroke-width="1.51"/><path d="M1545,1291L1721,1419L1721,983Z" fill="#d4d4d4" stroke="#d4d4d4" stroke-width="1.51"/><path d="M554,418L364,417L543,584Z" fill="#e2e2e2" stroke="#e2e2e2" stroke-width="1.51"/><path d="M427,139L364,417L554,418Z" fill="#dddddd" stroke="#dddddd" stroke-width="1.51"/><path d="M585,1810L849,1827L669,1553Z" fill="#d5d5d5" stroke="#d5d5d5" stroke-width="1.51"/><path d="M158,1716L367,1730L422,1618Z" fill="#cccccc" stroke="#cccccc" stroke-width="1.51"/><path d="M169,774L86,1059L320,986Z" fill="#e6e6e6" stroke="#e6e6e6" stroke-width="1.51"/><path d="M364,417L214,530L301,737Z" fill="#e0e0e0" stroke="#e0e0e0" stroke-width="1.51"/><path d="M-90,780L-37,1085L86,1059Z" fill="#dedede" stroke="#dedede" stroke-width="1.51"/><path d="M916,316L627,183L554,418Z" fill="#e4e4e4" stroke="#e4e4e4" stroke-width="1.51"/><path d="M364,417L218,343L214,530Z" fill="#dbdbdb" stroke="#dbdbdb" stroke-width="1.51"/><path d="M945,121L627,183L916,316Z" fill="#e4e4e4" stroke="#e4e4e4" stroke-width="1.51"/><path d="M1721,983L1744,677L1634,882Z" fill="#dadada" stroke="#dadada" stroke-width="1.51"/><path d="M1629,593L1615,396L1411,599Z" fill="#d8d8d8" stroke="#d8d8d8" stroke-width="1.51"/><path d="M1129,72L916,316L1111,495Z" fill="#e9e9e9" stroke="#e9e9e9" stroke-width="1.51"/><path d="M422,1618L585,1810L669,1553Z" fill="#d3d3d3" stroke="#d3d3d3" stroke-width="1.51"/><path d="M1466,1605L1623,1563L1364,1403Z" fill="#cfcfcf" stroke="#cfcfcf" stroke-width="1.51"/><path d="M1613,1791L1623,1563L1466,1605Z" fill="#c5c5c5" stroke="#c5c5c5" stroke-width="1.51"/><path d="M1623,1563L1721,1419L1545,1291Z" fill="#cccccc" stroke="#cccccc" stroke-width="1.51"/><path d="M1721,983L1882,1009L1744,677Z" fill="#d9d9d9" stroke="#d9d9d9" stroke-width="1.51"/><path d="M1298,93L1129,72L1111,495Z" fill="#e0e0e0" stroke="#e0e0e0" stroke-width="1.51"/><path d="M1886,407L1615,396L1629,593Z" fill="#cfcfcf" stroke="#cfcfcf" stroke-width="1.51"/><path d="M422,1618L367,1730L585,1810Z" fill="#cecece" stroke="#cecece" stroke-width="1.51"/><path d="M158,1716L422,1618L258,1316Z" fill="#d1d1d1" stroke="#d1d1d1" stroke-width="1.51"/><path d="M752,18L427,139L627,183Z" fill="#d9d9d9" stroke="#d9d9d9" stroke-width="1.51"/><path d="M1298,93L1111,495L1397,386Z" fill="#dfdfdf" stroke="#dfdfdf" stroke-width="1.51"/><path d="M1052,2087L1357,1845L1156,1742Z" fill="#d1d1d1" stroke="#d1d1d1" stroke-width="1.51"/><path d="M1156,1742L1357,1845L1466,1605Z" fill="#cdcdcd" stroke="#cdcdcd" stroke-width="1.51"/><path d="M1721,1419L1882,1009L1721,983Z" fill="#d5d5d5" stroke="#d5d5d5" stroke-width="1.51"/><path d="M427,139L218,343L364,417Z" fill="#dadada" stroke="#dadada" stroke-width="1.51"/><path d="M-90,780L86,1059L169,774Z" fill="#dedede" stroke="#dedede" stroke-width="1.51"/><path d="M86,1059L-37,1085L258,1316Z" fill="#dcdcdc" stroke="#dcdcdc" stroke-width="1.51"/><path d="M-90,780L169,774L-59,614Z" fill="#d8d8d8" stroke="#d8d8d8" stroke-width="1.51"/><path d="M1660,248L1298,93L1397,386Z" fill="#d4d4d4" stroke="#d4d4d4" stroke-width="1.51"/><path d="M849,1827L1052,2087L1156,1742Z" fill="#d8d8d8" stroke="#d8d8d8" stroke-width="1.51"/><path d="M585,1810L789,1973L849,1827Z" fill="#d3d3d3" stroke="#d3d3d3" stroke-width="1.51"/><path d="M541,2194L789,1973L585,1810Z" fill="#cecece" stroke="#cecece" stroke-width="1.51"/><path d="M752,18L627,183L945,121Z" fill="#dedede" stroke="#dedede" stroke-width="1.51"/><path d="M627,183L427,139L554,418Z" fill="#dddddd" stroke="#dddddd" stroke-width="1.51"/><path d="M796,-111L752,18L945,121Z" fill="#dbdbdb" stroke="#dbdbdb" stroke-width="1.51"/><path d="M796,-111L945,121L1070,-187Z" fill="#dbdbdb" stroke="#dbdbdb" stroke-width="1.51"/><path d="M-59,614L169,774L214,530Z" fill="#dadada" stroke="#dadada" stroke-width="1.51"/><path d="M2165,1359L2146,1120L1882,1009Z" fill="#cecece" stroke="#cecece" stroke-width="1.51"/><path d="M1623,1563L1760,1695L1721,1419Z" fill="#c3c3c3" stroke="#c3c3c3" stroke-width="1.51"/><path d="M1357,1845L1613,1791L1466,1605Z" fill="#c5c5c5" stroke="#c5c5c5" stroke-width="1.51"/><path d="M1453,1994L1613,1791L1357,1845Z" fill="#c3c3c3" stroke="#c3c3c3" stroke-width="1.51"/><path d="M1615,396L1660,248L1397,386Z" fill="#d2d2d2" stroke="#d2d2d2" stroke-width="1.51"/><path d="M1721,200L1660,248L1886,407Z" fill="#c9c9c9" stroke="#c9c9c9" stroke-width="1.51"/><path d="M1660,248L1615,396L1886,407Z" fill="#cbcbcb" stroke="#cbcbcb" stroke-width="1.51"/><path d="M367,1730L342,2054L585,1810Z" fill="#cbcbcb" stroke="#cbcbcb" stroke-width="1.51"/><path d="M-33,1576L158,1716L258,1316Z" fill="#cbcbcb" stroke="#cbcbcb" stroke-width="1.51"/><path d="M-75,407L-59,614L214,530Z" fill="#d3d3d3" stroke="#d3d3d3" stroke-width="1.51"/><path d="M1613,1791L1760,1695L1623,1563Z" fill="#bfbfbf" stroke="#bfbfbf" stroke-width="1.51"/><path d="M789,1973L1052,2087L849,1827Z" fill="#d5d5d5" stroke="#d5d5d5" stroke-width="1.51"/><path d="M904,2266L1052,2087L789,1973Z" fill="#d2d2d2" stroke="#d2d2d2" stroke-width="1.51"/><path d="M442,-223L335,-9L427,139Z" fill="#cecece" stroke="#cecece" stroke-width="1.51"/><path d="M1070,-187L945,121L1129,72Z" fill="#dddddd" stroke="#dddddd" stroke-width="1.51"/><path d="M-194,1297L258,1316L-37,1085Z" fill="#d5d5d5" stroke="#d5d5d5" stroke-width="1.51"/><path d="M-194,1297L-33,1576L258,1316Z" fill="#cdcdcd" stroke="#cdcdcd" stroke-width="1.51"/><path d="M1882,1009L2036,806L1744,677Z" fill="#d5d5d5" stroke="#d5d5d5" stroke-width="1.51"/><path d="M2146,1120L2036,806L1882,1009Z" fill="#d6d6d6" stroke="#d6d6d6" stroke-width="1.51"/><path d="M1660,248L1451,-26L1298,93Z" fill="#cdcdcd" stroke="#cdcdcd" stroke-width="1.51"/><path d="M1298,93L1070,-187L1129,72Z" fill="#d7d7d7" stroke="#d7d7d7" stroke-width="1.51"/><path d="M1886,407L1629,593L1744,677Z" fill="#d0d0d0" stroke="#d0d0d0" stroke-width="1.51"/><path d="M2036,806L1886,407L1744,677Z" fill="#d0d0d0" stroke="#d0d0d0" stroke-width="1.51"/><path d="M1052,2087L1453,1994L1357,1845Z" fill="#cacaca" stroke="#cacaca" stroke-width="1.51"/><path d="M1613,1791L1886,1900L1760,1695Z" fill="#b9b9b9" stroke="#b9b9b9" stroke-width="1.51"/><path d="M218,343L-75,407L214,530Z" fill="#d5d5d5" stroke="#d5d5d5" stroke-width="1.51"/><path d="M427,139L221,119L218,343Z" fill="#d4d4d4" stroke="#d4d4d4" stroke-width="1.51"/><path d="M335,-9L221,119L427,139Z" fill="#d1d1d1" stroke="#d1d1d1" stroke-width="1.51"/><path d="M1721,200L1451,-26L1660,248Z" fill="#c8c8c8" stroke="#c8c8c8" stroke-width="1.51"/><path d="M-240,995L-194,1297L-37,1085Z" fill="#d3d3d3" stroke="#d3d3d3" stroke-width="1.51"/><path d="M-240,995L-37,1085L-90,780Z" fill="#d8d8d8" stroke="#d8d8d8" stroke-width="1.51"/><path d="M-21,178L-75,407L218,343Z" fill="#cfcfcf" stroke="#cfcfcf" stroke-width="1.51"/><path d="M-254,669L-240,995L-90,780Z" fill="#d2d2d2" stroke="#d2d2d2" stroke-width="1.51"/><path d="M-254,669L-90,780L-59,614Z" fill="#d1d1d1" stroke="#d1d1d1" stroke-width="1.51"/><path d="M442,-223L427,139L752,18Z" fill="#d2d2d2" stroke="#d2d2d2" stroke-width="1.51"/><path d="M221,119L-21,178L218,343Z" fill="#cfcfcf" stroke="#cfcfcf" stroke-width="1.51"/><path d="M1213,-298L1070,-187L1298,93Z" fill="#d0d0d0" stroke="#d0d0d0" stroke-width="1.51"/><path d="M796,-111L442,-223L752,18Z" fill="#d2d2d2" stroke="#d2d2d2" stroke-width="1.51"/><path d="M1453,1994L1541,2030L1613,1791Z" fill="#bfbfbf" stroke="#bfbfbf" stroke-width="1.51"/><path d="M1293,2353L1541,2030L1453,1994Z" fill="#c1c1c1" stroke="#c1c1c1" stroke-width="1.51"/><path d="M122,1964L367,1730L158,1716Z" fill="#c5c5c5" stroke="#c5c5c5" stroke-width="1.51"/><path d="M122,1964L342,2054L367,1730Z" fill="#c6c6c6" stroke="#c6c6c6" stroke-width="1.51"/><path d="M2165,1359L1721,1419L2091,1678Z" fill="#c1c1c1" stroke="#c1c1c1" stroke-width="1.51"/><path d="M2165,1359L1882,1009L1721,1419Z" fill="#cccccc" stroke="#cccccc" stroke-width="1.51"/><path d="M-194,1297L-260,1301L-33,1576Z" fill="#c6c6c6" stroke="#c6c6c6" stroke-width="1.51"/><path d="M-17,1853L52,1864L158,1716Z" fill="#bfbfbf" stroke="#bfbfbf" stroke-width="1.51"/><path d="M-240,995L-260,1301L-194,1297Z" fill="#cccccc" stroke="#cccccc" stroke-width="1.51"/><path d="M-240,995L-406,1114L-260,1301Z" fill="#cccccc" stroke="#cccccc" stroke-width="1.51"/><path d="M-308,424L-254,669L-59,614Z" fill="#cbcbcb" stroke="#cbcbcb" stroke-width="1.51"/><path d="M1070,-187L807,-224L796,-111Z" fill="#d5d5d5" stroke="#d5d5d5" stroke-width="1.51"/><path d="M-17,1853L158,1716L-33,1576Z" fill="#bfbfbf" stroke="#bfbfbf" stroke-width="1.51"/><path d="M-75,407L-308,424L-59,614Z" fill="#cbcbcb" stroke="#cbcbcb" stroke-width="1.51"/><path d="M50,-58L-21,178L221,119Z" fill="#c7c7c7" stroke="#c7c7c7" stroke-width="1.51"/><path d="M560,2302L541,2194L350,2310Z" fill="#c4c4c4" stroke="#c4c4c4" stroke-width="1.51"/><path d="M342,2054L541,2194L585,1810Z" fill="#c9c9c9" stroke="#c9c9c9" stroke-width="1.51"/><path d="M1052,2087L1293,2353L1453,1994Z" fill="#c8c8c8" stroke="#c8c8c8" stroke-width="1.51"/><path d="M52,1864L122,1964L158,1716Z" fill="#c0c0c0" stroke="#c0c0c0" stroke-width="1.51"/><path d="M541,2194L904,2266L789,1973Z" fill="#cdcdcd" stroke="#cdcdcd" stroke-width="1.51"/><path d="M52,1864L-17,1853L122,1964Z" fill="#bcbcbc" stroke="#bcbcbc" stroke-width="1.51"/><path d="M-331,1861L-17,1853L-33,1576Z" fill="#b7b7b7" stroke="#b7b7b7" stroke-width="1.51"/><path d="M1451,-26L1213,-298L1298,93Z" fill="#cdcdcd" stroke="#cdcdcd" stroke-width="1.51"/><path d="M1070,-187L1213,-298L807,-224Z" fill="#d4d4d4" stroke="#d4d4d4" stroke-width="1.51"/><path d="M1737,-137L1521,-134L1451,-26Z" fill="#c0c0c0" stroke="#c0c0c0" stroke-width="1.51"/><path d="M1737,-137L1451,-26L1721,200Z" fill="#c2c2c2" stroke="#c2c2c2" stroke-width="1.51"/><path d="M1886,407L1983,167L1721,200Z" fill="#c6c6c6" stroke="#c6c6c6" stroke-width="1.51"/><path d="M2181,533L2041,354L1886,407Z" fill="#c7c7c7" stroke="#c7c7c7" stroke-width="1.51"/><path d="M2181,533L1886,407L2036,806Z" fill="#cbcbcb" stroke="#cbcbcb" stroke-width="1.51"/><path d="M2091,1678L1721,1419L1760,1695Z" fill="#bebebe" stroke="#bebebe" stroke-width="1.51"/><path d="M2422,1291L2234,1060L2146,1120Z" fill="#cacaca" stroke="#cacaca" stroke-width="1.51"/><path d="M2146,1120L2234,1060L2036,806Z" fill="#d4d4d4" stroke="#d4d4d4" stroke-width="1.51"/><path d="M1541,2030L1886,1900L1613,1791Z" fill="#b9b9b9" stroke="#b9b9b9" stroke-width="1.51"/><path d="M574,-355L442,-223L796,-111Z" fill="#cbcbcb" stroke="#cbcbcb" stroke-width="1.51"/><path d="M335,-9L50,-58L221,119Z" fill="#c9c9c9" stroke="#c9c9c9" stroke-width="1.51"/><path d="M1521,-134L1213,-298L1451,-26Z" fill="#c6c6c6" stroke="#c6c6c6" stroke-width="1.51"/><path d="M807,-224L574,-355L796,-111Z" fill="#cecece" stroke="#cecece" stroke-width="1.51"/><path d="M2307,669L2181,533L2036,806Z" fill="#cbcbcb" stroke="#cbcbcb" stroke-width="1.51"/><path d="M-329,2148L7,2136L-17,1853Z" fill="#b3b3b3" stroke="#b3b3b3" stroke-width="1.51"/><path d="M-254,669L-406,1114L-240,995Z" fill="#d0d0d0" stroke="#d0d0d0" stroke-width="1.51"/><path d="M560,2302L1083,2331L904,2266Z" fill="#cdcdcd" stroke="#cdcdcd" stroke-width="1.51"/><path d="M904,2266L1083,2331L1052,2087Z" fill="#d2d2d2" stroke="#d2d2d2" stroke-width="1.51"/><path d="M1541,2030L1910,2005L1886,1900Z" fill="#b5b5b5" stroke="#b5b5b5" stroke-width="1.51"/><path d="M2234,1060L2268,909L2036,806Z" fill="#d2d2d2" stroke="#d2d2d2" stroke-width="1.51"/><path d="M2219,298L1983,167L2041,354Z" fill="#c2c2c2" stroke="#c2c2c2" stroke-width="1.51"/><path d="M2041,354L1983,167L1886,407Z" fill="#c6c6c6" stroke="#c6c6c6" stroke-width="1.51"/><path d="M1886,1900L2091,1678L1760,1695Z" fill="#b7b7b7" stroke="#b7b7b7" stroke-width="1.51"/><path d="M541,2194L560,2302L904,2266Z" fill="#c9c9c9" stroke="#c9c9c9" stroke-width="1.51"/><path d="M350,2310L541,2194L342,2054Z" fill="#c4c4c4" stroke="#c4c4c4" stroke-width="1.51"/><path d="M-254,669L-308,424L-406,1114Z" fill="#cbcbcb" stroke="#cbcbcb" stroke-width="1.51"/><path d="M-251,158L-308,424L-75,407Z" fill="#c5c5c5" stroke="#c5c5c5" stroke-width="1.51"/><path d="M-251,158L-75,407L-21,178Z" fill="#c6c6c6" stroke="#c6c6c6" stroke-width="1.51"/><path d="M95,-376L50,-58L335,-9Z" fill="#c1c1c1" stroke="#c1c1c1" stroke-width="1.51"/><path d="M1983,167L1737,-137L1721,200Z" fill="#bfbfbf" stroke="#bfbfbf" stroke-width="1.51"/><path d="M1521,-134L1322,-365L1213,-298Z" fill="#c3c3c3" stroke="#c3c3c3" stroke-width="1.51"/><path d="M442,-223L95,-376L335,-9Z" fill="#c4c4c4" stroke="#c4c4c4" stroke-width="1.51"/><path d="M1213,-298L574,-355L807,-224Z" fill="#cfcfcf" stroke="#cfcfcf" stroke-width="1.51"/><path d="M1083,2331L1293,2353L1052,2087Z" fill="#cbcbcb" stroke="#cbcbcb" stroke-width="1.51"/><path d="M350,2310L1293,2353L1083,2331Z" fill="#cecece" stroke="#cecece" stroke-width="1.51"/><path d="M1886,1900L2132,1898L2091,1678Z" fill="#b3b3b3" stroke="#b3b3b3" stroke-width="1.51"/><path d="M1636,2269L1910,2005L1541,2030Z" fill="#b5b5b5" stroke="#b5b5b5" stroke-width="1.51"/><path d="M2181,533L2219,298L2041,354Z" fill="#c4c4c4" stroke="#c4c4c4" stroke-width="1.51"/><path d="M2268,909L2307,669L2036,806Z" fill="#cecece" stroke="#cecece" stroke-width="1.51"/><path d="M1213,-298L1322,-365L574,-355Z" fill="#cfcfcf" stroke="#cfcfcf" stroke-width="1.51"/><path d="M1639,-418L1322,-365L1521,-134Z" fill="#bbbbbb" stroke="#bbbbbb" stroke-width="1.51"/><path d="M560,2302L350,2310L1083,2331Z" fill="#c8c8c8" stroke="#c8c8c8" stroke-width="1.51"/><path d="M227,2263L350,2310L342,2054Z" fill="#c1c1c1" stroke="#c1c1c1" stroke-width="1.51"/><path d="M227,2263L342,2054L122,1964Z" fill="#c0c0c0" stroke="#c0c0c0" stroke-width="1.51"/><path d="M7,2136L227,2263L122,1964Z" fill="#bbbbbb" stroke="#bbbbbb" stroke-width="1.51"/><path d="M-161,-29L-251,158L-21,178Z" fill="#bebebe" stroke="#bebebe" stroke-width="1.51"/><path d="M1293,2353L1636,2269L1541,2030Z" fill="#bcbcbc" stroke="#bcbcbc" stroke-width="1.51"/><path d="M-17,1853L7,2136L122,1964Z" fill="#bababa" stroke="#bababa" stroke-width="1.51"/><path d="M-433,1567L-33,1576L-260,1301Z" fill="#bebebe" stroke="#bebebe" stroke-width="1.51"/><path d="M2307,669L2219,298L2181,533Z" fill="#c6c6c6" stroke="#c6c6c6" stroke-width="1.51"/><path d="M2030,-191L1724,-341L1737,-137Z" fill="#b2b2b2" stroke="#b2b2b2" stroke-width="1.51"/><path d="M-406,1114L-433,1567L-260,1301Z" fill="#c1c1c1" stroke="#c1c1c1" stroke-width="1.51"/><path d="M50,-58L-161,-29L-21,178Z" fill="#c0c0c0" stroke="#c0c0c0" stroke-width="1.51"/><path d="M-20,-421L-161,-29L50,-58Z" fill="#b7b7b7" stroke="#b7b7b7" stroke-width="1.51"/><path d="M2024,2123L2132,1898L1910,2005Z" fill="#b0b0b0" stroke="#b0b0b0" stroke-width="1.51"/><path d="M1910,2005L2132,1898L1886,1900Z" fill="#b2b2b2" stroke="#b2b2b2" stroke-width="1.51"/><path d="M2091,1678L2297,1627L2165,1359Z" fill="#b9b9b9" stroke="#b9b9b9" stroke-width="1.51"/><path d="M2165,1359L2422,1291L2146,1120Z" fill="#c6c6c6" stroke="#c6c6c6" stroke-width="1.51"/><path d="M2234,1060L2422,1291L2268,909Z" fill="#cdcdcd" stroke="#cdcdcd" stroke-width="1.51"/><path d="M2268,909L2422,1291L2307,669Z" fill="#d0d0d0" stroke="#d0d0d0" stroke-width="1.51"/><path d="M2132,1898L2297,1627L2091,1678Z" fill="#b2b2b2" stroke="#b2b2b2" stroke-width="1.51"/><path d="M2297,1627L2422,1291L2165,1359Z" fill="#bdbdbd" stroke="#bdbdbd" stroke-width="1.51"/><path d="M-161,-29L-224,0L-251,158Z" fill="#b9b9b9" stroke="#b9b9b9" stroke-width="1.51"/><path d="M-251,158L-309,-362L-308,424Z" fill="#b7b7b7" stroke="#b7b7b7" stroke-width="1.51"/><path d="M-433,1567L-331,1861L-33,1576Z" fill="#b5b5b5" stroke="#b5b5b5" stroke-width="1.51"/><path d="M2219,298L2273,231L1983,167Z" fill="#bfbfbf" stroke="#bfbfbf" stroke-width="1.51"/><path d="M2307,669L2273,231L2219,298Z" fill="#c2c2c2" stroke="#c2c2c2" stroke-width="1.51"/><path d="M2422,1291L2273,231L2307,669Z" fill="#c9c9c9" stroke="#c9c9c9" stroke-width="1.51"/><path d="M2030,-191L1737,-137L1983,167Z" fill="#b8b8b8" stroke="#b8b8b8" stroke-width="1.51"/><path d="M1737,-137L1724,-341L1521,-134Z" fill="#b7b7b7" stroke="#b7b7b7" stroke-width="1.51"/><path d="M2132,1898L2420,1744L2297,1627Z" fill="#b0b0b0" stroke="#b0b0b0" stroke-width="1.51"/><path d="M1790,2332L2024,2123L1910,2005Z" fill="#afafaf" stroke="#afafaf" stroke-width="1.51"/><path d="M1724,-341L1639,-418L1521,-134Z" fill="#b5b5b5" stroke="#b5b5b5" stroke-width="1.51"/><path d="M1322,-365L1639,-418L574,-355Z" fill="#c7c7c7" stroke="#c7c7c7" stroke-width="1.51"/><path d="M1636,2269L1790,2332L1910,2005Z" fill="#b1b1b1" stroke="#b1b1b1" stroke-width="1.51"/><path d="M1293,2353L1790,2332L1636,2269Z" fill="#b7b7b7" stroke="#b7b7b7" stroke-width="1.51"/><path d="M-161,-29L-309,-362L-224,0Z" fill="#b1b1b1" stroke="#b1b1b1" stroke-width="1.51"/><path d="M574,-355L95,-376L442,-223Z" fill="#c1c1c1" stroke="#c1c1c1" stroke-width="1.51"/><path d="M-20,-421L95,-376L574,-355Z" fill="#bababa" stroke="#bababa" stroke-width="1.51"/><path d="M2256,-149L2030,-191L1983,167Z" fill="#b4b4b4" stroke="#b4b4b4" stroke-width="1.51"/><path d="M1724,-341L2166,-351L1639,-418Z" fill="#acacac" stroke="#acacac" stroke-width="1.51"/><path d="M-329,2148L-104,2283L7,2136Z" fill="#aeaeae" stroke="#aeaeae" stroke-width="1.51"/><path d="M7,2136L-104,2283L227,2263Z" fill="#b6b6b6" stroke="#b6b6b6" stroke-width="1.51"/><path d="M227,2263L-104,2283L350,2310Z" fill="#bababa" stroke="#bababa" stroke-width="1.51"/><path d="M2314,2115L2420,1744L2132,1898Z" fill="#acacac" stroke="#acacac" stroke-width="1.51"/><path d="M2297,1627L2420,1744L2422,1291Z" fill="#b6b6b6" stroke="#b6b6b6" stroke-width="1.51"/><path d="M2024,2123L2314,2115L2132,1898Z" fill="#adadad" stroke="#adadad" stroke-width="1.51"/><path d="M1790,2332L2052,2263L2024,2123Z" fill="#acacac" stroke="#acacac" stroke-width="1.51"/><path d="M-331,1861L-329,2148L-17,1853Z" fill="#afafaf" stroke="#afafaf" stroke-width="1.51"/><path d="M-415,2347L-329,2148L-331,1861Z" fill="#a7a7a7" stroke="#a7a7a7" stroke-width="1.51"/><path d="M95,-376L-20,-421L50,-58Z" fill="#b6b6b6" stroke="#b6b6b6" stroke-width="1.51"/><path d="M1639,-418L-20,-421L574,-355Z" fill="#c7c7c7" stroke="#c7c7c7" stroke-width="1.51"/><path d="M2268,-345L2256,-149L2273,231Z" fill="#afafaf" stroke="#afafaf" stroke-width="1.51"/><path d="M2273,231L2256,-149L1983,167Z" fill="#b8b8b8" stroke="#b8b8b8" stroke-width="1.51"/><path d="M2030,-191L2166,-351L1724,-341Z" fill="#acacac" stroke="#acacac" stroke-width="1.51"/><path d="M2052,2263L2314,2115L2024,2123Z" fill="#ababab" stroke="#ababab" stroke-width="1.51"/><path d="M2256,-149L2166,-351L2030,-191Z" fill="#acacac" stroke="#acacac" stroke-width="1.51"/><path d="M-20,-421L-309,-362L-161,-29Z" fill="#aeaeae" stroke="#aeaeae" stroke-width="1.51"/><path d="M-224,0L-309,-362L-251,158Z" fill="#b3b3b3" stroke="#b3b3b3" stroke-width="1.51"/><path d="M-308,424L-309,-362L-406,1114Z" fill="#c1c1c1" stroke="#c1c1c1" stroke-width="1.51"/><path d="M2052,2263L2257,2296L2314,2115Z" fill="#a8a8a8" stroke="#a8a8a8" stroke-width="1.51"/><path d="M1790,2332L2257,2296L2052,2263Z" fill="#aaaaaa" stroke="#aaaaaa" stroke-width="1.51"/><path d="M2256,-149L2268,-345L2166,-351Z" fill="#a8a8a8" stroke="#a8a8a8" stroke-width="1.51"/><path d="M2166,-351L2268,-345L1639,-418Z" fill="#a8a8a8" stroke="#a8a8a8" stroke-width="1.51"/><path d="M2422,1291L2268,-345L2273,231Z" fill="#c1c1c1" stroke="#c1c1c1" stroke-width="1.51"/><path d="M-329,2148L-415,2347L-104,2283Z" fill="#a8a8a8" stroke="#a8a8a8" stroke-width="1.51"/><path d="M-104,2283L-415,2347L350,2310Z" fill="#b0b0b0" stroke="#b0b0b0" stroke-width="1.51"/><path d="M350,2310L-415,2347L1293,2353Z" fill="#c1c1c1" stroke="#c1c1c1" stroke-width="1.51"/><path d="M-433,1567L-415,2347L-331,1861Z" fill="#a9a9a9" stroke="#a9a9a9" stroke-width="1.51"/></svg>