<svg xmlns="http://www.w3.org/2000/svg" width="1440" height="900"><path d="M846,321L918,-54L677,267Z" fill="#e2e2e2" stroke="#e2e2e2" stroke-width="1.51"/><path d="M846,321L1144,35L918,-54Z" fill="#e6e6e6" stroke="#e6e6e6" stroke-width="1.51"/><path d="M918,-54L444,-119L677,267Z" fill="#e4e4e4" stroke="#e4e4e4" stroke-width="1.51"/><path d="M1100,-265L850,-245L918,-54Z" fill="#ececec" stroke="#ececec" stroke-width="1.51"/><path d="M595,-291L444,-119L918,-54Z" fill="#e8e8e8" stroke="#e8e8e8" stroke-width="1.51"/><path d="M846,321L1255,230L1144,35Z" fill="#e6e6e6" stroke="#e6e6e6" stroke-width="1.51"/><path d="M677,267L910,562L846,321Z" fill="#dfdfdf" stroke="#dfdfdf" stroke-width="1.51"/><path d="M910,562L1255,230L846,321Z" fill="#e1e1e1" stroke="#e1e1e1" stroke-width="1.51"/><path d="M850,-245L595,-291L918,-54Z" fill="#e9e9e9" stroke="#e9e9e9" stroke-width="1.51"/><path d="M1391,17L1100,-265L1144,35Z" fill="#ededed" stroke="#ededed" stroke-width="1.51"/><path d="M1144,35L1100,-265L918,-54Z" fill="#ebebeb" stroke="#ebebeb" stroke-width="1.51"/><path d="M850,-245L1100,-265L595,-291Z" fill="#ececec" stroke="#ececec" stroke-width="1.51"/><path d="M1255,230L1391,17L1144,35Z" fill="#ebebeb" stroke="#ebebeb" stroke-width="1.51"/><path d="M677,267L522,672L910,562Z" fill="#dddddd" stroke="#dddddd" stroke-width="1.51"/><path d="M244,496L522,672L677,267Z" fill="#e0e0e0" stroke="#e0e0e0" stroke-width="1.51"/><path d="M444,-119L190,92L677,267Z" fill="#e7e7e7" stroke="#e7e7e7" stroke-width="1.51"/><path d="M282,-333L190,92L444,-119Z" fill="#ededed" stroke="#ededed" stroke-width="1.51"/><path d="M1255,230L1445,278L1391,17Z" fill="#ebebeb" stroke="#ebebeb" stroke-width="1.51"/><path d="M1362,617L1445,278L1255,230Z" fill="#e6e6e6" stroke="#e6e6e6" stroke-width="1.51"/><path d="M190,92L172,253L677,267Z" fill="#e6e6e6" stroke="#e6e6e6" stroke-width="1.51"/><path d="M910,562L1145,704L1255,230Z" fill="#e2e2e2" stroke="#e2e2e2" stroke-width="1.51"/><path d="M945,852L1145,704L910,562Z" fill="#e5e5e5" stroke="#e5e5e5" stroke-width="1.51"/><path d="M172,253L244,496L677,267Z" fill="#e3e3e3" stroke="#e3e3e3" stroke-width="1.51"/><path d="M1789,-407L282,-333L595,-291Z" fill="#eeeeee" stroke="#eeeeee" stroke-width="1.51"/><path d="M595,-291L282,-333L444,-119Z" fill="#ededed" stroke="#ededed" stroke-width="1.51"/><path d="M1145,704L1362,617L1255,230Z" fill="#e5e5e5" stroke="#e5e5e5" stroke-width="1.51"/><path d="M1100,-265L1789,-407L595,-291Z" fill="#f1f1f1" stroke="#f1f1f1" stroke-width="1.51"/><path d="M1391,17L1434,-291L1100,-265Z" fill="#f0f0f0" stroke="#f0f0f0" stroke-width="1.51"/><path d="M1764,-104L1434,-291L1391,17Z" fill="#f2f2f2" stroke="#f2f2f2" stroke-width="1.51"/><path d="M1145,704L1568,903L1362,617Z" fill="#eaeaea" stroke="#eaeaea" stroke-width="1.51"/><path d="M522,672L945,852L910,562Z" fill="#e1e1e1" stroke="#e1e1e1" stroke-width="1.51"/><path d="M522,672L520,838L945,852Z" fill="#e3e3e3" stroke="#e3e3e3" stroke-width="1.51"/><path d="M235,942L520,838L522,672Z" fill="#e7e7e7" stroke="#e7e7e7" stroke-width="1.51"/><path d="M-65,-356L-44,86L190,92Z" fill="#f0f0f0" stroke="#f0f0f0" stroke-width="1.51"/><path d="M190,92L-44,86L172,253Z" fill="#ebebeb" stroke="#ebebeb" stroke-width="1.51"/><path d="M172,253L-77,365L244,496Z" fill="#e6e6e6" stroke="#e6e6e6" stroke-width="1.51"/><path d="M945,852L1076,988L1145,704Z" fill="#e8e8e8" stroke="#e8e8e8" stroke-width="1.51"/><path d="M1079,1101L1076,988L820,1168Z" fill="#ececec" stroke="#ececec" stroke-width="1.51"/><path d="M244,496L235,942L522,672Z" fill="#e6e6e6" stroke="#e6e6e6" stroke-width="1.51"/><path d="M-44,86L-77,365L172,253Z" fill="#eaeaea" stroke="#eaeaea" stroke-width="1.51"/><path d="M-77,365L43,640L244,496Z" fill="#e6e6e6" stroke="#e6e6e6" stroke-width="1.51"/><path d="M1445,278L1764,-104L1391,17Z" fill="#efefef" stroke="#efefef" stroke-width="1.51"/><path d="M1900,176L1764,-104L1445,278Z" fill="#f0f0f0" stroke="#f0f0f0" stroke-width="1.51"/><path d="M-44,86L-326,313L-77,365Z" fill="#ececec" stroke="#ececec" stroke-width="1.51"/><path d="M282,-333L-65,-356L190,92Z" fill="#f1f1f1" stroke="#f1f1f1" stroke-width="1.51"/><path d="M1789,-407L-65,-356L282,-333Z" fill="#ececec" stroke="#ececec" stroke-width="1.51"/><path d="M520,838L626,1106L945,852Z" fill="#e5e5e5" stroke="#e5e5e5" stroke-width="1.51"/><path d="M235,942L626,1106L520,838Z" fill="#e9e9e9" stroke="#e9e9e9" stroke-width="1.51"/><path d="M43,640L235,942L244,496Z" fill="#e8e8e8" stroke="#e8e8e8" stroke-width="1.51"/><path d="M820,1168L1076,988L945,852Z" fill="#e9e9e9" stroke="#e9e9e9" stroke-width="1.51"/><path d="M1076,988L1568,903L1145,704Z" fill="#ececec" stroke="#ececec" stroke-width="1.51"/><path d="M626,1106L820,1168L945,852Z" fill="#e8e8e8" stroke="#e8e8e8" stroke-width="1.51"/><path d="M-65,-356L-226,11L-44,86Z" fill="#f2f2f2" stroke="#f2f2f2" stroke-width="1.51"/><path d="M1568,903L1825,517L1362,617Z" fill="#ededed" stroke="#ededed" stroke-width="1.51"/><path d="M1362,617L1825,517L1445,278Z" fill="#e8e8e8" stroke="#e8e8e8" stroke-width="1.51"/><path d="M1362,1191L1568,903L1076,988Z" fill="#f0f0f0" stroke="#f0f0f0" stroke-width="1.51"/><path d="M1825,517L1900,176L1445,278Z" fill="#ededed" stroke="#ededed" stroke-width="1.51"/><path d="M1434,-291L1789,-407L1100,-265Z" fill="#f5f5f5" stroke="#f5f5f5" stroke-width="1.51"/><path d="M1764,-104L1789,-407L1434,-291Z" fill="#f7f7f7" stroke="#f7f7f7" stroke-width="1.51"/><path d="M1900,176L1789,-407L1764,-104Z" fill="#f7f7f7" stroke="#f7f7f7" stroke-width="1.51"/><path d="M-73,1181L222,1118L235,942Z" fill="#f0f0f0" stroke="#f0f0f0" stroke-width="1.51"/><path d="M-77,365L-259,549L43,640Z" fill="#e9e9e9" stroke="#e9e9e9" stroke-width="1.51"/><path d="M-326,313L-259,549L-77,365Z" fill="#eaeaea" stroke="#eaeaea" stroke-width="1.51"/><path d="M-226,11L-326,313L-44,86Z" fill="#efefef" stroke="#efefef" stroke-width="1.51"/><path d="M626,1106L222,1118L820,1168Z" fill="#ebebeb" stroke="#ebebeb" stroke-width="1.51"/><path d="M235,942L222,1118L626,1106Z" fill="#ececec" stroke="#ececec" stroke-width="1.51"/><path d="M-137,815L235,942L43,640Z" fill="#ececec" stroke="#ececec" stroke-width="1.51"/><path d="M-259,549L-137,815L43,640Z" fill="#ececec" stroke="#ececec" stroke-width="1.51"/><path d="M1079,1101L1362,1191L1076,988Z" fill="#efefef" stroke="#efefef" stroke-width="1.51"/><path d="M820,1168L1362,1191L1079,1101Z" fill="#efefef" stroke="#efefef" stroke-width="1.51"/><path d="M-226,11L-295,-351L-326,313Z" fill="#f3f3f3" stroke="#f3f3f3" stroke-width="1.51"/><path d="M-65,-356L-295,-351L-226,11Z" fill="#f6f6f6" stroke="#f6f6f6" stroke-width="1.51"/><path d="M1789,-407L-295,-351L-65,-356Z" fill="#efefef" stroke="#efefef" stroke-width="1.51"/><path d="M1362,1191L1706,1107L1568,903Z" fill="#f4f4f4" stroke="#f4f4f4" stroke-width="1.51"/><path d="M1568,903L1868,937L1825,517Z" fill="#f1f1f1" stroke="#f1f1f1" stroke-width="1.51"/><path d="M1825,517L1868,937L1900,176Z" fill="#eeeeee" stroke="#eeeeee" stroke-width="1.51"/><path d="M1706,1107L1868,937L1568,903Z" fill="#f4f4f4" stroke="#f4f4f4" stroke-width="1.51"/><path d="M-459,900L-73,1181L-137,815Z" fill="#f3f3f3" stroke="#f3f3f3" stroke-width="1.51"/><path d="M-137,815L-73,1181L235,942Z" fill="#f0f0f0" stroke="#f0f0f0" stroke-width="1.51"/><path d="M222,1118L-349,1330L820,1168Z" fill="#f1f1f1" stroke="#f1f1f1" stroke-width="1.51"/><path d="M820,1168L-349,1330L1362,1191Z" fill="#ececec" stroke="#ececec" stroke-width="1.51"/><path d="M-259,549L-459,900L-137,815Z" fill="#f0f0f0" stroke="#f0f0f0" stroke-width="1.51"/><path d="M-326,313L-459,900L-259,549Z" fill="#eeeeee" stroke="#eeeeee" stroke-width="1.51"/><path d="M-295,-351L-459,900L-326,313Z" fill="#eeeeee" stroke="#eeeeee" stroke-width="1.51"/><path d="M-459,900L-349,1330L-73,1181Z" fill="#f7f7f7" stroke="#f7f7f7" stroke-width="1.51"/><path d="M-73,1181L-349,1330L222,1118Z" fill="#f6f6f6" stroke="#f6f6f6" stroke-width="1.51"/></svg>