<svg xmlns="http://www.w3.org/2000/svg" width="1440" height="900"><path d="M808,652L836,359L628,382Z" fill="#c6c6c6" stroke="#c6c6c6" stroke-width="1.51"/><path d="M628,382L462,695L808,652Z" fill="#cacaca" stroke="#cacaca" stroke-width="1.51"/><path d="M808,652L1111,497L836,359Z" fill="#c9c9c9" stroke="#c9c9c9" stroke-width="1.51"/><path d="M462,695L565,897L808,652Z" fill="#cecece" stroke="#cecece" stroke-width="1.51"/><path d="M808,652L1148,859L1111,497Z" fill="#cfcfcf" stroke="#cfcfcf" stroke-width="1.51"/><path d="M462,695L149,959L565,897Z" fill="#d5d5d5" stroke="#d5d5d5" stroke-width="1.51"/><path d="M628,382L287,633L462,695Z" fill="#cdcdcd" stroke="#cdcdcd" stroke-width="1.51"/><path d="M836,359L841,15L628,382Z" fill="#cccccc" stroke="#cccccc" stroke-width="1.51"/><path d="M628,382L168,223L287,633Z" fill="#cecece" stroke="#cecece" stroke-width="1.51"/><path d="M1304,398L841,15L836,359Z" fill="#cfcfcf" stroke="#cfcfcf" stroke-width="1.51"/><path d="M565,897L986,978L808,652Z" fill="#cfcfcf" stroke="#cfcfcf" stroke-width="1.51"/><path d="M986,978L1148,859L808,652Z" fill="#d2d2d2" stroke="#d2d2d2" stroke-width="1.51"/><path d="M1111,497L1304,398L836,359Z" fill="#cccccc" stroke="#cccccc" stroke-width="1.51"/><path d="M1415,668L1304,398L1111,497Z" fill="#d0d0d0" stroke="#d0d0d0" stroke-width="1.51"/><path d="M523,-125L168,223L628,382Z" fill="#d4d4d4" stroke="#d4d4d4" stroke-width="1.51"/><path d="M565,897L647,1144L986,978Z" fill="#d2d2d2" stroke="#d2d2d2" stroke-width="1.51"/><path d="M199,1290L647,1144L565,897Z" fill="#d9d9d9" stroke="#d9d9d9" stroke-width="1.51"/><path d="M841,15L523,-125L628,382Z" fill="#d1d1d1" stroke="#d1d1d1" stroke-width="1.51"/><path d="M1148,859L1415,668L1111,497Z" fill="#d2d2d2" stroke="#d2d2d2" stroke-width="1.51"/><path d="M1566,910L1415,668L1148,859Z" fill="#d9d9d9" stroke="#d9d9d9" stroke-width="1.51"/><path d="M1481,1228L1566,910L1148,859Z" fill="#dddddd" stroke="#dddddd" stroke-width="1.51"/><path d="M647,1144L881,1190L986,978Z" fill="#d6d6d6" stroke="#d6d6d6" stroke-width="1.51"/><path d="M1304,398L1190,-103L841,15Z" fill="#d6d6d6" stroke="#d6d6d6" stroke-width="1.51"/><path d="M1415,668L1462,358L1304,398Z" fill="#d1d1d1" stroke="#d1d1d1" stroke-width="1.51"/><path d="M523,-125L219,-23L168,223Z" fill="#dbdbdb" stroke="#dbdbdb" stroke-width="1.51"/><path d="M841,15L625,-435L523,-125Z" fill="#d9d9d9" stroke="#d9d9d9" stroke-width="1.51"/><path d="M1408,-15L1190,-103L1304,398Z" fill="#d9d9d9" stroke="#d9d9d9" stroke-width="1.51"/><path d="M287,633L149,959L462,695Z" fill="#d5d5d5" stroke="#d5d5d5" stroke-width="1.51"/><path d="M-110,895L149,959L287,633Z" fill="#dbdbdb" stroke="#dbdbdb" stroke-width="1.51"/><path d="M1462,358L1408,-15L1304,398Z" fill="#d6d6d6" stroke="#d6d6d6" stroke-width="1.51"/><path d="M1190,-103L978,-424L841,15Z" fill="#dddddd" stroke="#dddddd" stroke-width="1.51"/><path d="M1408,-15L1201,-233L1190,-103Z" fill="#dfdfdf" stroke="#dfdfdf" stroke-width="1.51"/><path d="M-141,381L-145,504L168,223Z" fill="#d8d8d8" stroke="#d8d8d8" stroke-width="1.51"/><path d="M168,223L-145,504L287,633Z" fill="#d3d3d3" stroke="#d3d3d3" stroke-width="1.51"/><path d="M-56,7L-141,381L168,223Z" fill="#dddddd" stroke="#dddddd" stroke-width="1.51"/><path d="M523,-125L331,-297L219,-23Z" fill="#dfdfdf" stroke="#dfdfdf" stroke-width="1.51"/><path d="M219,-23L-56,7L168,223Z" fill="#dedede" stroke="#dedede" stroke-width="1.51"/><path d="M625,-435L331,-297L523,-125Z" fill="#e0e0e0" stroke="#e0e0e0" stroke-width="1.51"/><path d="M1415,668L1733,666L1462,358Z" fill="#d5d5d5" stroke="#d5d5d5" stroke-width="1.51"/><path d="M1462,358L1791,240L1408,-15Z" fill="#dbdbdb" stroke="#dbdbdb" stroke-width="1.51"/><path d="M1269,1335L1148,859L986,978Z" fill="#dadada" stroke="#dadada" stroke-width="1.51"/><path d="M-118,-299L-56,7L219,-23Z" fill="#e6e6e6" stroke="#e6e6e6" stroke-width="1.51"/><path d="M978,-424L625,-435L841,15Z" fill="#dcdcdc" stroke="#dcdcdc" stroke-width="1.51"/><path d="M-145,504L-110,895L287,633Z" fill="#dadada" stroke="#dadada" stroke-width="1.51"/><path d="M149,959L199,1290L565,897Z" fill="#dcdcdc" stroke="#dcdcdc" stroke-width="1.51"/><path d="M1201,-233L978,-424L1190,-103Z" fill="#e1e1e1" stroke="#e1e1e1" stroke-width="1.51"/><path d="M647,1144L934,1466L881,1190Z" fill="#d9d9d9" stroke="#d9d9d9" stroke-width="1.51"/><path d="M-44,1251L199,1290L149,959Z" fill="#e3e3e3" stroke="#e3e3e3" stroke-width="1.51"/><path d="M881,1190L1269,1335L986,978Z" fill="#dbdbdb" stroke="#dbdbdb" stroke-width="1.51"/><path d="M569,1537L934,1466L647,1144Z" fill="#dadada" stroke="#dadada" stroke-width="1.51"/><path d="M934,1466L1269,1335L881,1190Z" fill="#dfdfdf" stroke="#dfdfdf" stroke-width="1.51"/><path d="M1566,910L1733,666L1415,668Z" fill="#dadada" stroke="#dadada" stroke-width="1.51"/><path d="M1566,910L1755,818L1733,666Z" fill="#dddddd" stroke="#dddddd" stroke-width="1.51"/><path d="M1269,1335L1481,1228L1148,859Z" fill="#dfdfdf" stroke="#dfdfdf" stroke-width="1.51"/><path d="M199,1290L569,1537L647,1144Z" fill="#dedede" stroke="#dedede" stroke-width="1.51"/><path d="M1770,1144L1755,818L1566,910Z" fill="#e1e1e1" stroke="#e1e1e1" stroke-width="1.51"/><path d="M1408,-15L1619,-243L1201,-233Z" fill="#e3e3e3" stroke="#e3e3e3" stroke-width="1.51"/><path d="M1201,-233L1619,-243L978,-424Z" fill="#e5e5e5" stroke="#e5e5e5" stroke-width="1.51"/><path d="M1733,666L1791,240L1462,358Z" fill="#d6d6d6" stroke="#d6d6d6" stroke-width="1.51"/><path d="M2077,551L1791,240L1733,666Z" fill="#dadada" stroke="#dadada" stroke-width="1.51"/><path d="M-110,895L-44,1251L149,959Z" fill="#e3e3e3" stroke="#e3e3e3" stroke-width="1.51"/><path d="M199,1290L301,1552L569,1537Z" fill="#e3e3e3" stroke="#e3e3e3" stroke-width="1.51"/><path d="M1269,1335L1541,1458L1481,1228Z" fill="#e5e5e5" stroke="#e5e5e5" stroke-width="1.51"/><path d="M934,1466L1288,1479L1269,1335Z" fill="#e2e2e2" stroke="#e2e2e2" stroke-width="1.51"/><path d="M569,1537L1288,1479L934,1466Z" fill="#dedede" stroke="#dedede" stroke-width="1.51"/><path d="M1791,240L1744,-24L1408,-15Z" fill="#e0e0e0" stroke="#e0e0e0" stroke-width="1.51"/><path d="M4,1496L301,1552L199,1290Z" fill="#e7e7e7" stroke="#e7e7e7" stroke-width="1.51"/><path d="M1744,-24L1619,-243L1408,-15Z" fill="#e4e4e4" stroke="#e4e4e4" stroke-width="1.51"/><path d="M-56,7L-456,282L-141,381Z" fill="#e1e1e1" stroke="#e1e1e1" stroke-width="1.51"/><path d="M331,-297L-118,-299L219,-23Z" fill="#e6e6e6" stroke="#e6e6e6" stroke-width="1.51"/><path d="M625,-435L-118,-299L331,-297Z" fill="#e7e7e7" stroke="#e7e7e7" stroke-width="1.51"/><path d="M-44,1251L4,1496L199,1290Z" fill="#e8e8e8" stroke="#e8e8e8" stroke-width="1.51"/><path d="M-110,895L-328,1011L-44,1251Z" fill="#e7e7e7" stroke="#e7e7e7" stroke-width="1.51"/><path d="M-475,622L-328,1011L-110,895Z" fill="#e5e5e5" stroke="#e5e5e5" stroke-width="1.51"/><path d="M-475,622L-110,895L-145,504Z" fill="#e0e0e0" stroke="#e0e0e0" stroke-width="1.51"/><path d="M-456,282L-145,504L-141,381Z" fill="#dddddd" stroke="#dddddd" stroke-width="1.51"/><path d="M1755,818L2077,551L1733,666Z" fill="#dddddd" stroke="#dddddd" stroke-width="1.51"/><path d="M1481,1228L1770,1144L1566,910Z" fill="#e3e3e3" stroke="#e3e3e3" stroke-width="1.51"/><path d="M1541,1458L1770,1144L1481,1228Z" fill="#e7e7e7" stroke="#e7e7e7" stroke-width="1.51"/><path d="M-395,-112L-456,282L-56,7Z" fill="#e8e8e8" stroke="#e8e8e8" stroke-width="1.51"/><path d="M-456,282L-475,622L-145,504Z" fill="#dedede" stroke="#dedede" stroke-width="1.51"/><path d="M-294,1223L4,1496L-44,1251Z" fill="#ececec" stroke="#ececec" stroke-width="1.51"/><path d="M1288,1479L1541,1458L1269,1335Z" fill="#e6e6e6" stroke="#e6e6e6" stroke-width="1.51"/><path d="M-328,1011L-294,1223L-44,1251Z" fill="#ebebeb" stroke="#ebebeb" stroke-width="1.51"/><path d="M-316,1660L-294,1223L-328,1011Z" fill="#f0f0f0" stroke="#f0f0f0" stroke-width="1.51"/><path d="M-118,-299L-395,-112L-56,7Z" fill="#ebebeb" stroke="#ebebeb" stroke-width="1.51"/><path d="M2219,985L2077,551L1755,818Z" fill="#e2e2e2" stroke="#e2e2e2" stroke-width="1.51"/><path d="M2120,-16L1869,-274L1744,-24Z" fill="#eaeaea" stroke="#eaeaea" stroke-width="1.51"/><path d="M1744,-24L1869,-274L1619,-243Z" fill="#e9e9e9" stroke="#e9e9e9" stroke-width="1.51"/><path d="M2120,-16L1744,-24L1791,240Z" fill="#e4e4e4" stroke="#e4e4e4" stroke-width="1.51"/><path d="M1619,-243L1869,-274L978,-424Z" fill="#e9e9e9" stroke="#e9e9e9" stroke-width="1.51"/><path d="M-118,-299L-389,-268L-395,-112Z" fill="#f0f0f0" stroke="#f0f0f0" stroke-width="1.51"/><path d="M-395,-112L-389,-268L-456,282Z" fill="#ededed" stroke="#ededed" stroke-width="1.51"/><path d="M625,-435L-389,-268L-118,-299Z" fill="#ececec" stroke="#ececec" stroke-width="1.51"/><path d="M1288,1479L1764,1545L1541,1458Z" fill="#e9e9e9" stroke="#e9e9e9" stroke-width="1.51"/><path d="M1541,1458L1764,1545L1770,1144Z" fill="#ebebeb" stroke="#ebebeb" stroke-width="1.51"/><path d="M1770,1144L2219,985L1755,818Z" fill="#e5e5e5" stroke="#e5e5e5" stroke-width="1.51"/><path d="M569,1537L1764,1545L1288,1479Z" fill="#e3e3e3" stroke="#e3e3e3" stroke-width="1.51"/><path d="M-316,1660L1764,1545L569,1537Z" fill="#dcdcdc" stroke="#dcdcdc" stroke-width="1.51"/><path d="M2253,302L2120,-16L1791,240Z" fill="#e3e3e3" stroke="#e3e3e3" stroke-width="1.51"/><path d="M2219,985L2253,302L2077,551Z" fill="#dedede" stroke="#dedede" stroke-width="1.51"/><path d="M2077,551L2253,302L1791,240Z" fill="#dddddd" stroke="#dddddd" stroke-width="1.51"/><path d="M2253,302L2083,-269L2120,-16Z" fill="#e8e8e8" stroke="#e8e8e8" stroke-width="1.51"/><path d="M2120,-16L2083,-269L1869,-274Z" fill="#eeeeee" stroke="#eeeeee" stroke-width="1.51"/><path d="M1869,-274L2083,-269L978,-424Z" fill="#ececec" stroke="#ececec" stroke-width="1.51"/><path d="M2053,1502L2138,1178L1770,1144Z" fill="#eeeeee" stroke="#eeeeee" stroke-width="1.51"/><path d="M2138,1178L2219,985L1770,1144Z" fill="#eaeaea" stroke="#eaeaea" stroke-width="1.51"/><path d="M301,1552L-316,1660L569,1537Z" fill="#e7e7e7" stroke="#e7e7e7" stroke-width="1.51"/><path d="M4,1496L-316,1660L301,1552Z" fill="#ebebeb" stroke="#ebebeb" stroke-width="1.51"/><path d="M-294,1223L-316,1660L4,1496Z" fill="#f0f0f0" stroke="#f0f0f0" stroke-width="1.51"/><path d="M-475,622L-316,1660L-328,1011Z" fill="#ededed" stroke="#ededed" stroke-width="1.51"/><path d="M2138,1178L2053,1502L2219,985Z" fill="#ededed" stroke="#ededed" stroke-width="1.51"/><path d="M1764,1545L2053,1502L1770,1144Z" fill="#efefef" stroke="#efefef" stroke-width="1.51"/></svg>