<?xml version="1.0" encoding="utf-8"?>
<!-- Generator: Adobe Illustrator 22.0.1, SVG Export Plug-In . SVG Version: 6.00 Build 0)  -->
<svg version="1.1" xmlns="http://www.w3.org/2000/svg" xmlns:xlink="http://www.w3.org/1999/xlink" x="0px" y="0px"
	 viewBox="0 0 1920 1080" style="enable-background:new 0 0 1920 1080;" xml:space="preserve">
<style type="text/css">
	.st0{fill:#001840;}
	.st1{fill:#00183F;}
	.st2{fill:#001C45;}
	.st3{fill:#001A43;}
	.st4{fill:#001B43;}
	.st5{fill:#00214C;}
	.st6{fill:#001E48;}
	.st7{fill:#001F49;}
	.st8{fill:#00234E;}
	.st9{fill:#00173E;}
	.st10{fill:#001940;}
	.st11{fill:#001941;}
	.st12{fill:#001D46;}
	.st13{fill:#001D47;}
	.st14{fill:#002B56;}
	.st15{fill:#00214B;}
	.st16{fill:#002652;}
	.st17{fill:#00305A;}
	.st18{fill:#003C65;}
	.st19{fill:#002853;}
	.st20{fill:#002D58;}
	.st21{fill:#003E66;}
	.st22{fill:#00315B;}
	.st23{fill:#003760;}
	.st24{fill:#00214D;}
	.st25{fill:#00224D;}
	.st26{fill:#002C57;}
	.st27{fill:#00345E;}
	.st28{fill:#00204A;}
	.st29{fill:#00305B;}
	.st30{fill:#003861;}
	.st31{fill:#00365F;}
	.st32{fill:#00335D;}
	.st33{fill:#002F59;}
	.st34{fill:#002651;}
	.st35{fill:#002250;}
	.st36{fill:#001F4B;}
	.st37{display:none;}
</style>
<g id="Layer_2">
	<polygon class="st0" points="-0.5,-0.5 247.5,31.5 -0.5,174.5 	"/>
	<polygon class="st1" points="-0.5,-0.5 219.5,-0.5 247.5,31.5 	"/>
	<polygon class="st2" points="219.5,-0.5 407.5,-0.5 247.5,31.5 	"/>
	<polygon class="st3" points="247.5,31.5 257.5,151.5 -0.5,174.5 	"/>
	<polygon class="st4" points="-0.5,174.5 277.5,284.5 257.5,151.5 	"/>
	<polygon class="st3" points="-0.5,174.5 -0.5,539.5 277.5,284.5 	"/>
	<polygon class="st5" points="247.5,31.5 692.5,162.5 407.5,-0.5 	"/>
	<polygon class="st5" points="692.5,162.5 883.5,-0.5 407.5,-0.5 	"/>
	<polygon class="st6" points="277.5,284.5 692.5,162.5 247.5,31.5 254,152 	"/>
	<polygon class="st2" points="-0.5,539.5 253.5,688.5 277.5,284.5 	"/>
	<polygon class="st2" points="-0.5,653.5 253.5,688.5 -0.5,539.5 	"/>
	<polygon class="st7" points="253.5,688.5 444.5,539.5 277.5,284.5 	"/>
	<polygon class="st8" points="444.5,539.5 692.5,162.5 277.5,284.5 	"/>
	<polygon class="st9" points="-0.5,842.5 106.5,740.5 -0.5,740.5 	"/>
	<polygon class="st0" points="106.5,740.5 -0.5,653.5 -0.5,740.5 	"/>
	<polygon class="st3" points="106.5,740.5 253.5,688.5 -0.5,653.5 	"/>
	<polygon class="st4" points="106.5,740.5 216.5,780.5 253.5,688.5 	"/>
	<polygon class="st10" points="-0.5,842.5 216.5,780.5 106.5,740.5 	"/>
	<polygon class="st9" points="-0.5,1079.5 216.5,780.5 -0.5,842.5 	"/>
	<polygon class="st9" points="-0.5,1079.5 94.5,1079.5 216.5,780.5 	"/>
	<polygon class="st11" points="94.5,1079.5 406.5,1079.5 216.5,780.5 	"/>
	<polygon class="st12" points="216.5,780.5 571,872 406.5,1079.5 	"/>
	<polygon class="st13" points="216.5,780.5 253.5,688.5 571,872 	"/>
	<polygon class="st14" points="444.5,539.5 731.5,204.5 692.5,162.5 	"/>
	<polygon class="st5" points="444.5,539.5 253.5,688.5 571,872 	"/>
	<polygon class="st15" points="444.5,539.5 583,714 571,872 	"/>
	<polygon class="st12" points="571,872 406.5,1079.5 484.5,1079.5 	"/>
	<polygon class="st6" points="484.5,1079.5 771,921 571,872 	"/>
	<polygon class="st5" points="570,698 703,792 571,872 	"/>
	<polygon class="st16" points="1085.5,0.5 692.5,162.5 883.5,-0.5 	"/>
	<polygon class="st17" points="731.5,204.5 444.5,539.5 774.5,523.5 	"/>
	<polygon class="st18" points="731.5,204.5 1103.5,408.5 774.5,523.5 	"/>
	<polygon class="st19" points="444.5,539.5 570,699 668.5,601.5 	"/>
	<polygon class="st20" points="668.5,601.5 444.5,539.5 774.5,523.5 	"/>
	<polygon class="st21" points="774.5,523.5 1103.5,562.5 1103.5,408.5 	"/>
	<polygon class="st20" points="668.5,601.5 703,792 570,699 	"/>
	<polygon class="st22" points="774.5,523.5 852,872 668.5,601.5 	"/>
	<polygon class="st20" points="668.5,601.5 703,792 852,872 	"/>
	<polygon class="st23" points="774.5,523.5 1103.5,562.5 852,872 	"/>
	<polygon class="st13" points="771,921 823.5,1079.5 484.5,1079.5 	"/>
	<polygon class="st7" points="771,921 976.5,1079.5 823.5,1079.5 	"/>
	<polygon class="st24" points="852,872 771,921 976.5,1079.5 	"/>
	<polygon class="st25" points="976.5,1079.5 1146.5,902.5 852,872 	"/>
	<polygon class="st26" points="1103.5,562.5 1146.5,902.5 852,872 	"/>
	<polygon class="st14" points="731.5,204.5 1085.5,-0.5 692.5,162.5 	"/>
	<polygon class="st17" points="1085.5,-0.5 1195.5,148.5 731.5,204.5 	"/>
	<polygon class="st27" points="731.5,204.5 1103.5,408.5 1195.5,148.5 	"/>
	<polygon class="st28" points="1146.5,902.5 1061.5,1079.5 976.5,1079.5 	"/>
	<polygon class="st12" points="1146.5,902.5 1430.5,1079.5 1061.5,1079.5 	"/>
	<polygon class="st5" points="1195.5,148.5 1325.5,0.5 1085.5,-0.5 	"/>
	<polygon class="st29" points="1103.5,408.5 1242.5,346.5 1195.5,148.5 	"/>
	<polygon class="st30" points="1103.5,562.5 1152.5,566.5 1103.5,408.5 	"/>
	<polygon class="st31" points="1152.5,566.5 1221.5,435.5 1103.5,408.5 	"/>
	<polygon class="st32" points="1103.5,408.5 1242.5,346.5 1221.5,435.5 	"/>
	<polygon class="st22" points="1152.5,566.5 1297.5,519.5 1221.5,435.5 	"/>
	<polygon class="st33" points="1242.5,346.5 1221.5,435.5 1297.5,519.5 	"/>
	<polygon class="st22" points="1152.5,566.5 1146.5,902.5 1103.5,562.5 	"/>
	<polygon class="st14" points="1146.5,902.5 1281.5,709.5 1152.5,566.5 	"/>
	<polygon class="st14" points="1152.5,566.5 1297.5,519.5 1281.5,709.5 	"/>
	<polygon class="st5" points="1281.5,709.5 1492.5,948.5 1146.5,902.5 	"/>
	<polygon class="st13" points="1146.5,902.5 1430.5,1079.5 1492.5,948.5 	"/>
	<polygon class="st5" points="1492.5,948.5 1690.5,1079.5 1430.5,1079.5 	"/>
	<polygon class="st14" points="1195.5,148.5 1341.5,304.5 1297.5,519.5 1242.5,346.5 	"/>
	<polygon class="st5" points="1195.5,148.5 1325.5,162.5 1325.5,-0.5 	"/>
	<polygon class="st34" points="1195.5,148.5 1341.5,304.5 1325.5,162.5 	"/>
	<polygon class="st6" points="1325.5,162.5 1492.5,80.5 1325.5,-0.5 	"/>
	<polygon class="st6" points="1492.5,80.5 1473.5,-0.5 1325.5,-0.5 	"/>
	<polygon class="st16" points="1281.5,709.5 1477.5,536.5 1297.5,519.5 	"/>
	<polygon class="st16" points="1341.5,304.5 1477.5,536.5 1297.5,519.5 	"/>
	<polygon class="st35" points="1477.5,536.5 1492.5,748.5 1281.5,709.5 	"/>
	<polygon class="st28" points="1281.5,709.5 1492.5,948.5 1492.5,748.5 	"/>
	<polygon class="st15" points="1325.5,162.5 1434.5,222.5 1492.5,80.5 	"/>
	<polygon class="st15" points="1341.5,304.5 1325.5,162.5 1434.5,222.5 	"/>
	<polygon class="st5" points="1434.5,222.5 1341.5,304.5 1477.5,536.5 	"/>
	<polygon class="st8" points="1477.5,536.5 1661.5,802.5 1492.5,948.5 1492.5,748.5 	"/>
	<polygon class="st6" points="1661.5,802.5 1492.5,948.5 1690.5,1079.5 	"/>
	<polygon class="st0" points="1690.5,1079.5 1920.5,948.5 1920.5,1079.5 	"/>
	<polygon class="st4" points="1661.5,802.5 1920.5,948.5 1690.5,1079.5 	"/>
	<polygon class="st7" points="1477.5,536.5 1690.5,371.5 1661.5,802.5 	"/>
	<polygon class="st2" points="1661.5,802.5 1920.5,448.5 1690.5,371.5 	"/>
	<polygon class="st3" points="1661.5,802.5 1920.5,448.5 1920.5,948.5 	"/>
	<polygon class="st36" points="1434.5,222.5 1690.5,371.5 1477.5,536.5 	"/>
	<polygon class="st13" points="1434.5,222.5 1724.5,272.5 1690.5,371.5 	"/>
	<polygon class="st3" points="1690.5,371.5 1724.5,272.5 1920.5,448.5 	"/>
	<polygon class="st0" points="1724.5,272.5 1920.5,181.5 1920.5,448.5 	"/>
	<polygon class="st9" points="1724.5,272.5 1920.5,-0.5 1920.5,181.5 	"/>
	<polygon class="st12" points="1492.5,80.5 1724.5,272.5 1434.5,222.5 	"/>
	<polygon class="st12" points="1492.5,80.5 1707.5,120.5 1724.5,272.5 	"/>
	<polygon class="st12" points="1473.5,-0.5 1707.5,120.5 1492.5,80.5 	"/>
	<polygon class="st9" points="1707.5,120.5 1920.5,-0.5 1724.5,272.5 	"/>
	<polygon class="st11" points="1473.5,-0.5 1920.5,-0.5 1707.5,120.5 	"/>
	<polygon class="st24" points="852,872 703,792 771,921 	"/>
	<polygon class="st24" points="571,872 771,921 703,792 	"/>
</g>
<g id="Layer_1" class="st37">
	
		<image style="display:inline;overflow:visible;" width="1980" height="1080" xlink:href="MasseyHacks/site shit/shitasiohdbsad.png"  transform="matrix(0.9697 0 0 1 0 0)">
	</image>
</g>
</svg>
