<?xml version="1.0" encoding="utf-8"?>
<!-- Generator: Adobe Illustrator 21.1.0, SVG Export Plug-In . SVG Version: 6.00 Build 0)  -->
<svg version="1.1" id="Layer_1" xmlns="http://www.w3.org/2000/svg" xmlns:xlink="http://www.w3.org/1999/xlink" x="0px" y="0px"
	 viewBox="0 0 1080 1080" style="enable-background:new 0 0 1080 1080;" xml:space="preserve">
<style type="text/css">
	.st0{fill:#001840;}
	.st1{fill:#00183F;}
	.st2{fill:#001C45;}
	.st3{fill:#001A43;}
	.st4{fill:#001B43;}
	.st5{fill:#00214C;}
	.st6{fill:#001E48;}
	.st7{fill:#001F49;}
	.st8{fill:#00234E;}
	.st9{fill:#00173E;}
	.st10{fill:#001940;}
	.st11{fill:#001941;}
	.st12{fill:#001D46;}
	.st13{fill:#001D47;}
	.st14{fill:#002B56;}
	.st15{fill:#00214B;}
	.st16{fill:#002652;}
	.st17{fill:#00305A;}
	.st18{fill:#003C65;}
	.st19{fill:#002853;}
	.st20{fill:#002D58;}
	.st21{fill:#003E66;}
	.st22{fill:#00315B;}
	.st23{fill:#003760;}
	.st24{fill:#00214D;}
	.st25{fill:#00224D;}
	.st26{fill:#002C57;}
	.st27{fill:#00345E;}
	.st28{fill:#00204A;}
	.st29{fill:#00305B;}
	.st30{fill:#003861;}
	.st31{fill:#00365F;}
	.st32{fill:#00335D;}
	.st33{fill:#002F59;}
	.st34{fill:#002651;}
	.st35{fill:#002250;}
	.st36{fill:#001F4B;}
	.st37{display:none;}
</style>
<g>
	<polygon class="st0" points="-2,-1.8 140.6,30.9 -2,177.1 	"/>
</g>
<g>
	<polygon class="st1" points="-1.2,0.5 -1,-1.5 123.4,-1.5 140.4,32.9 	"/>
</g>
<g>
	<polygon class="st2" points="121.2,-1.5 228.6,-1.5 228.9,0.4 138.1,32.7 	"/>
</g>
<g>
	<polygon class="st3" points="139.5,29.2 145.2,152.4 -3.8,176.1 	"/>
</g>
<g>
	<polygon class="st4" points="-3.6,174 145.1,150.4 156.7,286.7 	"/>
</g>
<g>
	<polygon class="st3" points="-2,172.7 156.8,284.3 -2,543.3 	"/>
</g>
<g>
	<polygon class="st5" points="136.1,31.3 228.9,-1.7 389.7,161.9 388.5,163.5 	"/>
</g>
<g>
	<polygon class="st5" points="226.2,-1.5 498.4,-1.5 389.2,164.2 	"/>
</g>
<g>
	<polygon class="st6" points="141.2,152.2 137.5,29.8 391.2,162.6 154.7,286.2 	"/>
</g>
<g>
	<polygon class="st2" points="-2.3,539.9 156.6,280.9 142.9,691.2 	"/>
</g>
<g>
	<polygon class="st2" points="-2,654.6 -2,537.3 145.1,690.6 	"/>
</g>
<g>
	<polygon class="st7" points="154.5,284.6 156.4,284.3 250.5,540 140.9,692 	"/>
</g>
<g>
	<polygon class="st8" points="154.3,284.1 390.8,160.5 249.4,542.7 	"/>
</g>
<g>
	<polygon class="st9" points="-2,739.8 61.1,739.8 -2,846.6 	"/>
</g>
<g>
	<polygon class="st0" points="-2,741.8 -2,650.6 61.2,741.8 	"/>
</g>
<g>
	<polygon class="st3" points="-3.3,652.2 144.5,688.4 59,742.2 	"/>
</g>
<g>
	<polygon class="st4" points="57.4,740.8 143.5,686.7 121.8,782.5 	"/>
</g>
<g>
	<polygon class="st10" points="59,739.4 123.1,781 -3.6,845.3 	"/>
</g>
<g>
	<polygon class="st9" points="-2,1080 -2,842.3 123,778.8 -0.1,1080.4 	"/>
</g>
<g>
	<polygon class="st9" points="-2.5,1081 120.2,780.5 122.1,781.1 53.3,1081 	"/>
</g>
<g>
	<polygon class="st11" points="51.2,1081 120.9,777.3 229.5,1081 	"/>
</g>
<g>
	<polygon class="st12" points="119.4,779 321.9,871.9 228,1082.7 	"/>
</g>
<g>
	<polygon class="st13" points="119.9,781.5 141.4,686.8 321.3,871.7 320.2,873.3 	"/>
</g>
<g>
	<polygon class="st14" points="248.5,539.5 388.8,160.1 412,204.6 250.3,540.2 	"/>
</g>
<g>
	<polygon class="st5" points="140.7,688.9 249.9,537.4 322.3,875.6 	"/>
</g>
<g>
	<polygon class="st15" points="248.4,540 250.3,539.4 328.4,714.1 321.6,872.4 319.6,872.6 	"/>
</g>
<g>
	<polygon class="st12" points="226.6,1081 319.7,872 321.6,872.6 272.8,1081 	"/>
</g>
<g>
	<polygon class="st6" points="319.9,871 435,921.1 270.2,1083.1 	"/>
</g>
<g>
	<polygon class="st5" points="319.1,695.4 396.2,792.5 319.6,874.9 	"/>
</g>
<g>
	<polygon class="st16" points="388.2,162 496,-1.5 613.1,-0.5 389.6,163.4 	"/>
</g>
<g>
	<polygon class="st17" points="411.6,200.8 436.2,524.6 247.7,540.9 	"/>
</g>
<g>
	<polygon class="st18" points="409.7,202 621.9,408.9 434.2,525.4 	"/>
</g>
<g>
	<polygon class="st19" points="247.4,537.7 376.9,601.4 320,701.5 	"/>
</g>
<g>
	<polygon class="st20" points="245.7,539.1 437.3,522.5 375.8,603.1 	"/>
</g>
<g>
	<polygon class="st21" points="432.5,524.2 621.3,406.9 621.3,564 	"/>
</g>
<g>
	<polygon class="st20" points="318.9,699.4 376.2,598.6 396.2,795.7 	"/>
</g>
<g>
	<polygon class="st22" points="374.4,601.6 435.8,521.1 479.7,872.3 477.8,872.8 	"/>
</g>
<g>
	<polygon class="st20" points="393.9,792.9 374.5,601.9 376.4,601.4 479.6,872 478,873.1 	"/>
</g>
<g>
	<polygon class="st23" points="433.9,522.4 621.7,562.1 478.1,876 	"/>
</g>
<g>
	<polygon class="st13" points="269.6,1081 433.8,919.4 463.9,1081 	"/>
</g>
<g>
	<polygon class="st7" points="461.9,1081 432.2,921.6 434,920.8 550.8,1081 	"/>
</g>
<g>
	<polygon class="st24" points="431.9,921.3 479.1,870.5 549.7,1079.7 548,1080.6 	"/>
</g>
<g>
	<polygon class="st25" points="477.2,871.1 646,902.2 548.6,1082.5 	"/>
</g>
<g>
	<polygon class="st26" points="477.3,873.2 619.4,562.4 621.3,562.7 645.6,904.1 	"/>
</g>
<g>
	<polygon class="st14" points="387.7,162.3 609.5,-1.3 610.8,0.2 410.7,206.3 	"/>
</g>
<g>
	<polygon class="st17" points="610.4,-2.3 673.4,149.3 407.9,206.3 	"/>
</g>
<g>
	<polygon class="st27" points="408.9,204 673.3,147.3 620.9,410.7 	"/>
</g>
<g>
	<polygon class="st28" points="547.1,1081 643.6,902.4 645.5,903.2 597.4,1081 	"/>
</g>
<g>
	<polygon class="st12" points="595.3,1081 644,900.9 806.5,1081 	"/>
</g>
<g>
	<polygon class="st5" points="608.6,-1.5 746.8,-0.5 671.9,151 	"/>
</g>
<g>
	<polygon class="st29" points="671,148.4 673,148.5 699.6,347.1 618.8,411.2 	"/>
</g>
<g>
	<polygon class="st30" points="619.3,563.7 619.3,408.7 621.3,408.5 649,568 	"/>
</g>
<g>
	<polygon class="st31" points="646.8,567 619,407.1 687.9,435.1 648.8,567.1 	"/>
</g>
<g>
	<polygon class="st32" points="618.3,409 699.8,344.4 687.5,437.1 	"/>
</g>
<g>
	<polygon class="st22" points="686.5,433 730.7,520.1 646.1,568.9 	"/>
</g>
<g>
	<polygon class="st33" points="685.7,435.9 697.5,346.6 699.5,346.5 730.4,519.5 728.5,520.2 	"/>
</g>
<g>
	<polygon class="st22" points="619.2,561.6 648.8,565.9 645.5,902.9 643.5,903 	"/>
</g>
<g>
	<polygon class="st14" points="643.5,902.9 646.8,566.8 648.7,566.3 721.5,709.7 645.4,903.3 	"/>
</g>
<g>
	<polygon class="st14" points="646.5,566.4 730.5,517.9 721.2,713.6 	"/>
</g>
<g>
	<polygon class="st5" points="643.1,903.6 720.3,707.3 841,950.4 	"/>
</g>
<g>
	<polygon class="st13" points="641.6,901.2 840.4,948.2 804.8,1082 	"/>
</g>
<g>
	<polygon class="st5" points="803,1081 838.7,946.8 952.8,1081 	"/>
</g>
<g>
	<polygon class="st14" points="697.5,346.9 671,148.7 672.9,148.1 755.2,304.4 730.4,519.8 728.4,519.9 	"/>
</g>
<g>
	<polygon class="st5" points="670.5,149.3 744.3,-0.9 746.2,-0.5 746.2,163.8 	"/>
</g>
<g>
	<polygon class="st34" points="670.1,147.2 746.1,161.8 755.2,304.5 753.3,305.1 	"/>
</g>
<g>
	<polygon class="st6" points="744.2,-2.7 840.7,80.5 744.2,164.8 	"/>
</g>
<g>
	<polygon class="st6" points="742.5,-1.5 829.4,-1.5 840.5,83 	"/>
</g>
<g>
	<polygon class="st16" points="728.5,518.5 832.4,536 719.2,713.5 	"/>
</g>
<g>
	<polygon class="st16" points="728.3,520.5 753.2,304.5 755.2,304.3 832.2,538 	"/>
</g>
<g>
	<polygon class="st35" points="718.9,710.3 831.6,533.5 840.3,750.2 	"/>
</g>
<g>
	<polygon class="st28" points="718.4,708.1 840.2,748.1 840.2,948.9 838.3,949.3 	"/>
</g>
<g>
	<polygon class="st15" points="743.7,162.6 840.9,77.7 807.1,224.6 	"/>
</g>
<g>
	<polygon class="st15" points="744,160.1 807.8,222.5 753.4,307.7 	"/>
</g>
<g>
	<polygon class="st5" points="753.1,304.5 807.3,219.5 831.7,536.6 829.8,537 	"/>
</g>
<g>
	<polygon class="st8" points="838.2,748.8 829.7,536.7 831.6,536.3 935.4,803 838.2,952.3 	"/>
</g>
<g>
	<polygon class="st6" points="838,949 935.1,799.8 951.8,1082.9 	"/>
</g>
<g>
	<polygon class="st0" points="948.2,1081 1081,946.5 1081,1081 	"/>
</g>
<g>
	<polygon class="st4" points="933.1,800.3 1081.4,948.9 949.7,1082.3 	"/>
</g>
<g>
	<polygon class="st7" points="829.6,536.6 951.7,368.5 935.3,802.9 933.4,803.3 	"/>
</g>
<g>
	<polygon class="st2" points="933.3,802.9 949.7,370 1081.3,448.3 935.2,803.3 	"/>
</g>
<g>
	<polygon class="st3" points="933.1,803.1 1079.1,448.3 1081,448.7 1081,951.3 	"/>
</g>
<g>
	<polygon class="st36" points="805.3,219.9 951.9,371.6 829.9,539.5 	"/>
</g>
<g>
	<polygon class="st13" points="805.8,223.3 806.8,221.6 970.9,271.9 951.2,373.8 	"/>
</g>
<g>
	<polygon class="st3" points="949.5,372.2 969.2,269.9 1080.8,448.2 1079.5,449.6 	"/>
</g>
<g>
	<polygon class="st0" points="968.4,272.4 1081,179.5 1081,452.2 	"/>
</g>
<g>
	<polygon class="st9" points="968.8,272.2 1079.1,-0.9 1081,-0.5 1081,182.1 970.3,273.4 	"/>
</g>
<g>
	<polygon class="st12" points="805.3,223.3 838.7,78 972.1,274.4 	"/>
</g>
<g>
	<polygon class="st12" points="836.7,78.6 961.1,119.9 970.9,276.2 	"/>
</g>
<g>
	<polygon class="st12" points="838.3,81.3 827.1,-3.1 960.8,119.9 959.8,121.5 	"/>
</g>
<g>
	<polygon class="st9" points="968.7,272.7 959.1,120.2 1079.3,-1.2 1080.9,-0.1 970.6,273 	"/>
</g>
<g>
	<polygon class="st11" points="825.9,-1.5 1082.4,-1.5 960.1,122 	"/>
</g>
<g>
	<polygon class="st24" points="392.9,789.1 480.1,872.4 432.7,923.4 	"/>
</g>
<g>
	<polygon class="st24" points="318.9,872.8 395.4,790.4 434.8,923.2 	"/>
</g>
<g id="Layer_1_1_" class="st37">
</g>
<g>
	<g id="Layer_2_1_">
		<polygon class="st0" points="-2.9,-2.4 136.7,29.6 -2.9,172.7 		"/>
		<polygon class="st1" points="-2.9,-2.4 120.9,-2.4 136.7,29.6 		"/>
		<polygon class="st2" points="120.9,-2.4 226.7,-2.4 136.7,29.6 		"/>
		<polygon class="st3" points="136.7,29.6 142.3,149.7 -2.9,172.7 		"/>
		<polygon class="st4" points="-2.9,172.7 153.6,282.7 142.3,149.7 		"/>
		<polygon class="st3" points="-2.9,172.7 -2.9,537.9 153.6,282.7 		"/>
		<polygon class="st5" points="136.7,29.6 387.1,160.7 226.7,-2.4 		"/>
		<polygon class="st5" points="387.1,160.7 494.6,-2.4 226.7,-2.4 		"/>
		<polygon class="st6" points="153.6,282.7 387.1,160.7 136.7,29.6 140.3,150.2 		"/>
		<polygon class="st2" points="-2.9,537.9 140.1,686.9 153.6,282.7 		"/>
		<polygon class="st2" points="-2.9,651.9 140.1,686.9 -2.9,537.9 		"/>
		<polygon class="st7" points="140.1,686.9 247.5,537.9 153.6,282.7 		"/>
		<polygon class="st8" points="247.5,537.9 387.1,160.7 153.6,282.7 		"/>
		<polygon class="st9" points="-2.9,841 57.4,738.9 -2.9,738.9 		"/>
		<polygon class="st0" points="57.4,738.9 -2.9,651.9 -2.9,738.9 		"/>
		<polygon class="st3" points="57.4,738.9 140.1,686.9 -2.9,651.9 		"/>
		<polygon class="st4" points="57.4,738.9 119.2,779 140.1,686.9 		"/>
		<polygon class="st10" points="-2.9,841 119.2,779 57.4,738.9 		"/>
		<polygon class="st9" points="-2.9,1078.1 119.2,779 -2.9,841 		"/>
		<polygon class="st9" points="-2.9,1078.1 50.6,1078.1 119.2,779 		"/>
		<polygon class="st11" points="50.6,1078.1 226.2,1078.1 119.2,779 		"/>
		<polygon class="st12" points="119.2,779 318.7,870.5 226.2,1078.1 		"/>
		<polygon class="st13" points="119.2,779 140.1,686.9 318.7,870.5 		"/>
		<polygon class="st14" points="247.5,537.9 409,202.7 387.1,160.7 		"/>
		<polygon class="st5" points="247.5,537.9 140.1,686.9 318.7,870.5 		"/>
		<polygon class="st15" points="247.5,537.9 325.5,712.4 318.7,870.5 		"/>
		<polygon class="st12" points="318.7,870.5 226.2,1078.1 270.1,1078.1 		"/>
		<polygon class="st6" points="270.1,1078.1 431.3,919.5 318.7,870.5 		"/>
		<polygon class="st5" points="318.2,696.4 393,790.5 318.7,870.5 		"/>
		<polygon class="st16" points="608.2,-1.4 387.1,160.7 494.6,-2.4 		"/>
		<polygon class="st17" points="409,202.7 247.5,537.9 433.2,521.8 		"/>
		<polygon class="st18" points="409,202.7 618.4,406.8 433.2,521.8 		"/>
		<polygon class="st19" points="247.5,537.9 318.2,697.4 373.6,599.9 		"/>
		<polygon class="st20" points="373.6,599.9 247.5,537.9 433.2,521.8 		"/>
		<polygon class="st21" points="433.2,521.8 618.4,560.9 618.4,406.8 		"/>
		<polygon class="st20" points="373.6,599.9 393,790.5 318.2,697.4 		"/>
		<polygon class="st22" points="433.2,521.8 476.8,870.5 373.6,599.9 		"/>
		<polygon class="st20" points="373.6,599.9 393,790.5 476.8,870.5 		"/>
		<polygon class="st23" points="433.2,521.8 618.4,560.9 476.8,870.5 		"/>
		<polygon class="st13" points="431.3,919.5 460.8,1078.1 270.1,1078.1 		"/>
		<polygon class="st7" points="431.3,919.5 546.9,1078.1 460.8,1078.1 		"/>
		<polygon class="st24" points="476.8,870.5 431.3,919.5 546.9,1078.1 		"/>
		<polygon class="st25" points="546.9,1078.1 642.6,901 476.8,870.5 		"/>
		<polygon class="st26" points="618.4,560.9 642.6,901 476.8,870.5 		"/>
		<polygon class="st14" points="409,202.7 608.2,-2.4 387.1,160.7 		"/>
		<polygon class="st17" points="608.2,-2.4 670.1,146.7 409,202.7 		"/>
		<polygon class="st27" points="409,202.7 618.4,406.8 670.1,146.7 		"/>
		<polygon class="st28" points="642.6,901 594.7,1078.1 546.9,1078.1 		"/>
		<polygon class="st12" points="642.6,901 802.4,1078.1 594.7,1078.1 		"/>
		<polygon class="st5" points="670.1,146.7 743.3,-1.4 608.2,-2.4 		"/>
		<polygon class="st29" points="618.4,406.8 696.6,344.8 670.1,146.7 		"/>
		<polygon class="st30" points="618.4,560.9 645.9,564.9 618.4,406.8 		"/>
		<polygon class="st31" points="645.9,564.9 684.8,433.8 618.4,406.8 		"/>
		<polygon class="st32" points="618.4,406.8 696.6,344.8 684.8,433.8 		"/>
		<polygon class="st22" points="645.9,564.9 727.5,517.8 684.8,433.8 		"/>
		<polygon class="st33" points="696.6,344.8 684.8,433.8 727.5,517.8 		"/>
		<polygon class="st22" points="645.9,564.9 642.6,901 618.4,560.9 		"/>
		<polygon class="st14" points="642.6,901 718.5,707.9 645.9,564.9 		"/>
		<polygon class="st14" points="645.9,564.9 727.5,517.8 718.5,707.9 		"/>
		<polygon class="st5" points="718.5,707.9 837.3,947 642.6,901 		"/>
		<polygon class="st13" points="642.6,901 802.4,1078.1 837.3,947 		"/>
		<polygon class="st5" points="837.3,947 948.7,1078.1 802.4,1078.1 		"/>
		<polygon class="st14" points="670.1,146.7 752.3,302.7 727.5,517.8 696.6,344.8 		"/>
		<polygon class="st5" points="670.1,146.7 743.3,160.7 743.3,-2.4 		"/>
		<polygon class="st34" points="670.1,146.7 752.3,302.7 743.3,160.7 		"/>
		<polygon class="st6" points="743.3,160.7 837.3,78.6 743.3,-2.4 		"/>
		<polygon class="st6" points="837.3,78.6 826.6,-2.4 743.3,-2.4 		"/>
		<polygon class="st16" points="718.5,707.9 828.8,534.8 727.5,517.8 		"/>
		<polygon class="st16" points="752.3,302.7 828.8,534.8 727.5,517.8 		"/>
		<polygon class="st35" points="828.8,534.8 837.3,746.9 718.5,707.9 		"/>
		<polygon class="st28" points="718.5,707.9 837.3,947 837.3,746.9 		"/>
		<polygon class="st15" points="743.3,160.7 804.6,220.7 837.3,78.6 		"/>
		<polygon class="st15" points="752.3,302.7 743.3,160.7 804.6,220.7 		"/>
		<polygon class="st5" points="804.6,220.7 752.3,302.7 828.8,534.8 		"/>
		<polygon class="st8" points="828.8,534.8 932.4,801 837.3,947 837.3,746.9 		"/>
		<polygon class="st6" points="932.4,801 837.3,947 948.7,1078.1 		"/>
		<polygon class="st0" points="948.7,1078.1 1078.1,947 1078.1,1078.1 		"/>
		<polygon class="st4" points="932.4,801 1078.1,947 948.7,1078.1 		"/>
		<polygon class="st7" points="828.8,534.8 948.7,369.8 932.4,801 		"/>
		<polygon class="st2" points="932.4,801 1078.1,446.8 948.7,369.8 		"/>
		<polygon class="st3" points="932.4,801 1078.1,446.8 1078.1,947 		"/>
		<polygon class="st36" points="804.6,220.7 948.7,369.8 828.8,534.8 		"/>
		<polygon class="st13" points="804.6,220.7 967.8,270.7 948.7,369.8 		"/>
		<polygon class="st3" points="948.7,369.8 967.8,270.7 1078.1,446.8 		"/>
		<polygon class="st0" points="967.8,270.7 1078.1,179.7 1078.1,446.8 		"/>
		<polygon class="st9" points="967.8,270.7 1078.1,-2.4 1078.1,179.7 		"/>
		<polygon class="st12" points="837.3,78.6 967.8,270.7 804.6,220.7 		"/>
		<polygon class="st12" points="837.3,78.6 958.2,118.7 967.8,270.7 		"/>
		<polygon class="st12" points="826.6,-2.4 958.2,118.7 837.3,78.6 		"/>
		<polygon class="st9" points="958.2,118.7 1078.1,-2.4 967.8,270.7 		"/>
		<polygon class="st11" points="826.6,-2.4 1078.1,-2.4 958.2,118.7 		"/>
		<polygon class="st24" points="476.8,870.5 393,790.5 431.3,919.5 		"/>
		<polygon class="st24" points="318.7,870.5 431.3,919.5 393,790.5 		"/>
	</g>
</g>
</svg>
